{
.appVersion = "1338";
DisplayStrings = (
"¡xH.:/ellipsis/twodotenleader .!/exclamdouble/exclamdown.case H!/space/exclam.sc/h.sc/exclam.sc/exclamdown.sc \012??¿xH?/questiondown.case H?/space/questiondown.sc/h.sc/question.sc/exclam.sc",
"/tbar Ð/Dcroat/Dcroat"
);
classes = (
{
automatic = 1;

glyphs = (
{
glyphname = A;
layers = (
{
anchors = (
{
name = bottom;
position = "{354, 0}";
},
{
name = ogonek;
position = "{618, 0}";
},
{
name = top;
position = "{359, 692}";
}
);
background = {
paths = (
{
closed = 1;
nodes = (
"120 28 LINE",
"358 666 LINE",
"581 28 LINE",
"603 28 LINE",
"368 693 LINE",
"349 691 LINE",
"99 28 LINE"
);
},
{
closed = 1;
nodes = (
"235 0 LINE",
"235 15 LINE",
"120 28 LINE",
"99 28 LINE",
"6 15 LINE",
"6 0 LINE"
);
},
{
closed = 1;
nodes = (
"519 206 LINE",
"513 225 LINE",
"190 225 LINE",
"180 206 LINE"
);
},
{
closed = 1;
nodes = (
"698 0 LINE",
"698 15 LINE",
"603 28 LINE",
"581 28 LINE",
"464 15 LINE",
"464 0 LINE"
);
}
);
};
layerId = "075BA79B-D813-4287-A9DD-CCAF2D535ED3";
paths = (
{
closed = 1;
nodes = (
"368 693 LINE",
"349 691 LINE",
"97 22 LINE",
"105 29 LINE",
"6 15 LINE",
"6 0 LINE",
"235 0 LINE",
"235 15 LINE",
"113 29 LINE",
"118 22 LINE",
"189 213 LINE",
"179 206 LINE",
"525 206 LINE",
"517 211 LINE",
"583 22 LINE",
"587 29 LINE",
"464 15 LINE",
"464 0 LINE",
"698 0 LINE",
"698 15 LINE",
"596 29 LINE",
"605 22 LINE"
);
},
{
closed = 1;
nodes = (
"360 672 LINE",
"356 672 LINE",
"514 220 LINE",
"518 225 LINE",
"185 225 LINE",
"191 219 LINE"
);
}
);
width = 704;
},
{
anchors = (
{
name = bottom;
position = "{341, 0}";
},
{
name = ogonek;
position = "{716, 0}";
},
{
name = top;
position = "{365, 710}";
}
);
background = {
paths = (
{
closed = 1;
nodes = (
"259 710 LINE",
"35 100 LINE",
"80 134 LINE",
"0 100 LINE",
"0 0 LINE",
"280 5 LINE",
"280 105 LINE",
"204 138 LINE",
"220 99 LINE",
"354 533 LINE",
"344 533 LINE",
"457 86 LINE",
"481 135 LINE",
"396 100 LINE",
"396 0 LINE",
"718 5 LINE",
"718 105 LINE",
"637 139 LINE",
"683 105 LINE",
"472 710 LINE"
);
}
);
};
layerId = "927AED37-E9E6-4F96-A08E-421C3785EFC6";
paths = (
{
closed = 1;
nodes = (
"471 713 LINE",
"260 708 LINE",
"32 94 LINE",
"77 133 LINE",
"1 100 LINE",
"1 0 LINE",
"279 0 LINE",
"279 100 LINE",
"219 127 LINE",
"223 108 LINE",
"252 202 LINE",
"231 180 LINE",
"455 180 LINE",
"426 205 LINE",
"453 104 LINE",
"471 131 LINE",
"403 100 LINE",
"403 0 LINE",
"716 0 LINE",
"716 100 LINE",
"638 135 LINE",
"689 89 LINE"
);
},
{
closed = 1;
nodes = (
"375 604 LINE",
"327 605 LINE",
"404 289 LINE",
"423 320 LINE",
"268 320 LINE",
"280 294 LINE"
);
}
);
width = 718;
}
);
leftKerningGroup = A;
rightKerningGroup = A;
unicode = 0041;
},
{
glyphname = Aogonek;
layers = (
{
background = {
paths = (
{
closed = 1;
nodes = (
"368 693 LINE",
"349 691 LINE",
"97 22 LINE",
"105 29 LINE",
"6 15 LINE",
"6 0 LINE",
"235 0 LINE",
"235 15 LINE",
"113 29 LINE",
"118 22 LINE",
"189 213 LINE",
"179 206 LINE",
"525 206 LINE",
"517 211 LINE",
"583 22 LINE",
"587 29 LINE",
"464 15 LINE",
"464 0 LINE",
"698 0 LINE",
"698 15 LINE",
"596 29 LINE",
"605 22 LINE"
);
},
{
closed = 1;
nodes = (
"360 672 LINE",
"356 672 LINE",
"514 220 LINE",
"518 225 LINE",
"185 225 LINE",
"191 219 LINE"
);
},
{
closed = 1;
nodes = (
"633 -216 OFFCURVE",
"653 -213 OFFCURVE",
"675 -208 CURVE",
"672 -191 LINE",
"653 -195 OFFCURVE",
"636 -197 OFFCURVE",
"621 -197 CURVE SMOOTH",
"560 -197 OFFCURVE",
"524 -168 OFFCURVE",
"524 -128 CURVE SMOOTH",
"524 -90 OFFCURVE",
"552 -24 OFFCURVE",
"698 0 CURVE",
"680 13 LINE",
"534 -9 OFFCURVE",
"503 -86 OFFCURVE",
"503 -130 CURVE SMOOTH",
"503 -179 OFFCURVE",
"545 -216 OFFCURVE",
"613 -216 CURVE SMOOTH"
);
}
);
};
components = (
{
name = A.ogonekAccent;
},
{
name = ogonekcomb.case;
transform = "{1, 0, 0, 1, 378, 0}";
}
);
layerId = "075BA79B-D813-4287-A9DD-CCAF2D535ED3";
width = 704;
},
{
background = {
paths = (
{
closed = 1;
nodes = (
"471 713 LINE",
"260 708 LINE",
"32 94 LINE",
"77 133 LINE",
"1 100 LINE",
"1 0 LINE",
"279 0 LINE",
"279 100 LINE",
"219 127 LINE",
"223 108 LINE",
"252 202 LINE",
"231 180 LINE",
"455 180 LINE",
"426 205 LINE",
"453 104 LINE",
"471 131 LINE",
"403 100 LINE",
"403 0 LINE",
"716 0 LINE",
"716 100 LINE",
"638 135 LINE",
"689 89 LINE"
);
},
{
closed = 1;
nodes = (
"375 604 LINE",
"327 605 LINE",
"404 289 LINE",
"423 320 LINE",
"268 320 LINE",
"280 294 LINE"
);
},
{
closed = 1;
nodes = (
"613 -228 OFFCURVE",
"650 -222 OFFCURVE",
"692 -208 CURVE",
"682 -99 LINE",
"667 -102 OFFCURVE",
"654 -104 OFFCURVE",
"643 -104 CURVE SMOOTH",
"604 -104 OFFCURVE",
"584 -87 OFFCURVE",
"584 -67 CURVE SMOOTH",
"584 -44 OFFCURVE",
"608 -13 OFFCURVE",
"716 0 CURVE",
"699 72 LINE",
"502 45 OFFCURVE",
"443 -55 OFFCURVE",
"443 -121 CURVE SMOOTH",
"443 -180 OFFCURVE",
"492 -228 OFFCURVE",
"581 -228 CURVE SMOOTH"
);
}
);
};
components = (
{
name = A.ogonekAccent;
},
{
name = ogonekcomb.case;
transform = "{1, 0, 0, 1, 311, 0}";
}
);
layerId = "927AED37-E9E6-4F96-A08E-421C3785EFC6";
width = 718;
}
);
leftKerningGroup = A;
rightKerningGroup = A;
unicode = 0104;
},
{
glyphname = AE;
layers = (
{
anchors = (
{
name = bottom;
position = "{470, 0}";
},
{
name = top;
position = "{589, 692}";
}
);
background = {
paths = (
{
closed = 1;
nodes = (
"115 28 LINE",
"469 678 LINE",
"450 683 LINE",
"93 28 LINE"
);
},
{
closed = 1;
nodes = (
"229 0 LINE",
"229 15 LINE",
"115 28 LINE",
"93 28 LINE",
"0 15 LINE",
"0 0 LINE"
);
},
{
closed = 1;
nodes = (
"487 226 LINE",
"487 245 LINE",
"213 245 LINE",
"203 226 LINE"
);
},
{
closed = 1;
nodes = (
"861 0 LINE",
"861 19 LINE",
"501 19 LINE",
"481 28 LINE",
"381 15 LINE",
"381 0 LINE"
);
},
{
closed = 1;
nodes = (
"501 673 LINE",
"481 673 LINE",
"481 28 LINE",
"501 19 LINE"
);
},
{
closed = 1;
nodes = (
"861 141 LINE",
"846 141 LINE",
"831 12 LINE",
"861 0 LINE"
);
},
{
closed = 1;
nodes = (
"780 359 LINE",
"780 378 LINE",
"493 378 LINE",
"493 359 LINE"
);
},
{
closed = 1;
nodes = (
"348 687 LINE",
"348 672 LINE",
"447 665 LINE",
"454 673 LINE",
"819 673 LINE",
"848 692 LINE",
"502 692 LINE"
);
},
{
closed = 1;
nodes = (
"848 556 LINE",
"848 692 LINE",
"818 680 LINE",
"833 556 LINE"
);
}
);
};
layerId = "075BA79B-D813-4287-A9DD-CCAF2D535ED3";
paths = (
{
closed = 1;
nodes = (
"229 0 LINE",
"229 15 LINE",
"108 29 LINE",
"112 22 LINE",
"226 232 LINE",
"216 226 LINE",
"488 226 LINE",
"481 233 LINE",
"481 21 LINE",
"488 29 LINE",
"381 15 LINE",
"381 0 LINE",
"865 0 LINE",
"865 141 LINE",
"850 141 LINE",
"835 12 LINE",
"843 19 LINE",
"494 19 LINE",
"501 12 LINE",
"501 366 LINE",
"494 359 LINE",
"784 359 LINE",
"784 378 LINE",
"494 378 LINE",
"501 371 LINE",
"501 680 LINE",
"494 673 LINE",
"830 673 LINE",
"822 680 LINE",
"837 556 LINE",
"852 556 LINE",
"852 692 LINE",
"502 692 LINE",
"348 687 LINE",
"348 672 LINE",
"447 664 LINE",
"443 671 LINE",
"90 22 LINE",
"100 29 LINE",
"0 15 LINE",
"0 0 LINE"
);
},
{
closed = 1;
nodes = (
"469 679 LINE",
"459 673 LINE",
"488 673 LINE",
"481 680 LINE",
"481 238 LINE",
"488 245 LINE",
"226 245 LINE",
"230 239 LINE"
);
}
);
width = 949;
},
{
anchors = (
{
name = bottom;
position = "{474, 0}";
},
{
name = top;
position = "{534, 710}";
}
);
background = {
paths = (
{
closed = 1;
nodes = (
"766 115 LINE",
"803 145 LINE",
"606 145 LINE",
"636 115 LINE",
"636 325 LINE",
"606 295 LINE",
"815 295 LINE",
"815 430 LINE",
"606 430 LINE",
"636 400 LINE",
"636 595 LINE",
"606 565 LINE",
"791 565 LINE",
"755 591 LINE",
"778 508 LINE",
"898 508 LINE",
"898 710 LINE",
"631 710 LINE",
"371 705 LINE",
"371 605 LINE",
"455 572 LINE",
"431 610 LINE",
"431 95 LINE",
"456 134 LINE",
"371 100 LINE",
"371 0 LINE",
"908 0 LINE",
"910 211 LINE",
"790 211 LINE"
);
}
);
};
layerId = "927AED37-E9E6-4F96-A08E-421C3785EFC6";
paths = (
{
closed = 1;
nodes = (
"280 0 LINE",
"280 100 LINE",
"209 133 LINE",
"219 91 LINE",
"272 221 LINE",
"231 190 LINE",
"461 190 LINE",
"431 221 LINE",
"431 104 LINE",
"455 136 LINE",
"381 100 LINE",
"381 0 LINE",
"904 0 LINE",
"906 211 LINE",
"786 211 LINE",
"760 111 LINE",
"795 145 LINE",
"606 145 LINE",
"636 114 LINE",
"636 325 LINE",
"606 290 LINE",
"810 290 LINE",
"810 430 LINE",
"606 430 LINE",
"636 400 LINE",
"636 595 LINE",
"606 565 LINE",
"783 565 LINE",
"748 601 LINE",
"773 508 LINE",
"893 508 LINE",
"893 710 LINE",
"432 710 LINE",
"169 705 LINE",
"169 605 LINE",
"267 568 LINE",
"246 598 LINE",
"29 92 LINE",
"81 133 LINE",
"1 100 LINE",
"1 0 LINE"
);
},
{
closed = 1;
nodes = (
"418 583 LINE",
"381 565 LINE",
"461 565 LINE",
"431 584 LINE",
"431 305 LINE",
"461 330 LINE",
"284 330 LINE",
"306 305 LINE"
);
}
);
width = 939;
}
);
leftKerningGroup = A;
rightKerningGroup = E;
rightMetricsKey = E;
unicode = 00C6;
},
{
glyphname = B;
layers = (
{
anchors = (
{
name = bottom;
position = "{312, 0}";
},
{
name = top;
position = "{312, 692}";
}
);
background = {
paths = (
{
closed = 1;
nodes = (
"478 377 OFFCURVE",
"523 442 OFFCURVE",
"523 525 CURVE SMOOTH",
"523 622 OFFCURVE",
"462 692 OFFCURVE",
"319 692 CURVE SMOOTH",
"182 692 LINE",
"61 687 LINE",
"61 672 LINE",
"168 662 LINE",
"161 670 LINE",
"161 21 LINE",
"168 29 LINE",
"61 15 LINE",
"61 0 LINE",
"310 0 LINE SMOOTH",
"484 0 OFFCURVE",
"547 83 OFFCURVE",
"547 183 CURVE SMOOTH",
"547 276 OFFCURVE",
"490 354 OFFCURVE",
"358 358 CURVE",
"365 356 LINE"
);
},
{
closed = 1;
nodes = (
"445 673 OFFCURVE",
"501 612 OFFCURVE",
"501 523 CURVE SMOOTH",
"501 432 OFFCURVE",
"442 364 OFFCURVE",
"286 364 CURVE SMOOTH",
"174 364 LINE",
"181 357 LINE",
"181 680 LINE",
"174 673 LINE",
"314 673 LINE SMOOTH"
);
},
{
closed = 1;
nodes = (
"174 19 LINE",
"181 12 LINE",
"181 352 LINE",
"174 345 LINE",
"338 345 LINE SMOOTH",
"469 345 OFFCURVE",
"525 271 OFFCURVE",
"525 181 CURVE SMOOTH",
"525 91 OFFCURVE",
"468 19 OFFCURVE",
"310 19 CURVE SMOOTH"
);
}
);
};
guideLines = (
{
angle = 90;
position = "{520, 425}";
}
);
layerId = "075BA79B-D813-4287-A9DD-CCAF2D535ED3";
paths = (
{
closed = 1;
nodes = (
"487 377 OFFCURVE",
"530 442 OFFCURVE",
"530 525 CURVE SMOOTH",
"530 622 OFFCURVE",
"469 692 OFFCURVE",
"326 692 CURVE SMOOTH",
"182 692 LINE",
"61 687 LINE",
"61 672 LINE",
"168 662 LINE",
"161 670 LINE",
"161 21 LINE",
"168 29 LINE",
"61 15 LINE",
"61 0 LINE",
"320 0 LINE SMOOTH",
"494 0 OFFCURVE",
"557 83 OFFCURVE",
"557 183 CURVE SMOOTH",
"557 276 OFFCURVE",
"500 354 OFFCURVE",
"368 358 CURVE",
"365 354 LINE"
);
},
{
closed = 1;
nodes = (
"452 673 OFFCURVE",
"508 612 OFFCURVE",
"508 523 CURVE SMOOTH",
"508 432 OFFCURVE",
"449 364 OFFCURVE",
"293 364 CURVE SMOOTH",
"174 364 LINE",
"181 357 LINE",
"181 680 LINE",
"174 673 LINE",
"321 673 LINE SMOOTH"
);
},
{
closed = 1;
nodes = (
"174 19 LINE",
"181 12 LINE",
"181 352 LINE",
"174 345 LINE",
"348 345 LINE SMOOTH",
"479 345 OFFCURVE",
"535 271 OFFCURVE",
"535 181 CURVE SMOOTH",
"535 91 OFFCURVE",
"478 19 OFFCURVE",
"320 19 CURVE SMOOTH"
);
}
);
width = 644;
},
{
anchors = (
{
name = bottom;
position = "{328, 0}";
},
{
name = top;
position = "{328, 710}";
}
);
background = {
paths = (
{
closed = 1;
nodes = (
"342 357 LINE SMOOTH",
"523 357 OFFCURVE",
"611 405 OFFCURVE",
"611 531 CURVE SMOOTH",
"611 664 OFFCURVE",
"516 711 OFFCURVE",
"361 711 CURVE SMOOTH",
"279 711 LINE",
"14 705 LINE",
"14 605 LINE",
"84 580 LINE",
"289 566 LINE",
"335 566 LINE SMOOTH",
"384 566 OFFCURVE",
"411 549 OFFCURVE",
"411 496 CURVE SMOOTH",
"411 445 OFFCURVE",
"375 433 OFFCURVE",
"316 433 CURVE SMOOTH",
"265 433 LINE",
"286 357 LINE"
);
},
{
closed = 1;
nodes = (
"289 0 LINE",
"289 130 LINE",
"84 125 LINE",
"14 100 LINE",
"14 0 LINE"
);
},
{
closed = 1;
nodes = (
"289 130 LINE",
"289 566 LINE",
"84 580 LINE",
"84 125 LINE"
);
},
{
closed = 1;
nodes = (
"346 0 LINE SMOOTH",
"526 0 OFFCURVE",
"633 65 OFFCURVE",
"633 204 CURVE SMOOTH",
"633 339 OFFCURVE",
"522 371 OFFCURVE",
"376 371 CURVE SMOOTH",
"265 371 LINE",
"265 304 LINE",
"351 303 LINE SMOOTH",
"402 302 OFFCURVE",
"422 271 OFFCURVE",
"422 229 CURVE SMOOTH",
"422 165 OFFCURVE",
"386 145 OFFCURVE",
"327 145 CURVE SMOOTH",
"280 145 LINE",
"280 0 LINE"
);
}
);
};
guideLines = (
{
angle = 90;
position = "{603, 435}";
}
);
layerId = "927AED37-E9E6-4F96-A08E-421C3785EFC6";
paths = (
{
closed = 1;
nodes = (
"521 355 OFFCURVE",
"603 409 OFFCURVE",
"603 532 CURVE SMOOTH",
"603 664 OFFCURVE",
"507 710 OFFCURVE",
"362 710 CURVE SMOOTH",
"279 710 LINE",
"24 705 LINE",
"24 605 LINE",
"116 569 LINE",
"84 610 LINE",
"84 95 LINE",
"109 134 LINE",
"24 100 LINE",
"24 0 LINE",
"342 0 LINE SMOOTH",
"522 0 OFFCURVE",
"629 66 OFFCURVE",
"629 202 CURVE SMOOTH",
"629 337 OFFCURVE",
"525 367 OFFCURVE",
"381 367 CURVE",
"369 348 LINE"
);
},
{
closed = 1;
nodes = (
"353 568 OFFCURVE",
"398 568 OFFCURVE",
"398 503 CURVE SMOOTH",
"398 430 OFFCURVE",
"340 430 OFFCURVE",
"303 430 CURVE SMOOTH",
"259 430 LINE",
"289 403 LINE",
"289 598 LINE",
"259 568 LINE",
"322 568 LINE SMOOTH"
);
},
{
closed = 1;
nodes = (
"259 143 LINE",
"289 113 LINE",
"289 324 LINE",
"259 290 LINE",
"347 290 LINE SMOOTH",
"369 290 OFFCURVE",
"421 290 OFFCURVE",
"421 219 CURVE SMOOTH",
"421 143 OFFCURVE",
"361 143 OFFCURVE",
"323 143 CURVE SMOOTH"
);
}
);
width = 648;
}
);
leftKerningGroup = H;
rightKerningGroup = B;
unicode = 0042;
},
{
glyphname = C;
layers = (
{
anchors = (
{
name = bottom;
position = "{361, 0}";
},
{
name = top;
position = "{361, 692}";
}
);
background = {
paths = (
{
closed = 1;
nodes = (
"446 -6 OFFCURVE",
"533 26 OFFCURVE",
"616 93 CURVE",
"604 110 LINE",
"528 45 OFFCURVE",
"447 15 OFFCURVE",
"371 15 CURVE SMOOTH",
"226 15 OFFCURVE",
"102 133 OFFCURVE",
"102 344 CURVE SMOOTH",
"102 551 OFFCURVE",
"221 678 OFFCURVE",
"385 678 CURVE SMOOTH",
"447 678 OFFCURVE",
"517 661 OFFCURVE",
"581 637 CURVE",
"576 646 LINE",
"587 516 LINE",
"602 516 LINE",
"607 650 LINE",
"530 683 OFFCURVE",
"458 698 OFFCURVE",
"394 698 CURVE SMOOTH",
"211 698 OFFCURVE",
"80 569 OFFCURVE",
"80 344 CURVE SMOOTH",
"80 120 OFFCURVE",
"210 -6 OFFCURVE",
"366 -6 CURVE SMOOTH"
);
}
);
};
layerId = "075BA79B-D813-4287-A9DD-CCAF2D535ED3";
paths = (
{
closed = 1;
nodes = (
"437 -6 OFFCURVE",
"523 26 OFFCURVE",
"596 93 CURVE",
"583 109 LINE",
"515 45 OFFCURVE",
"436 15 OFFCURVE",
"365 15 CURVE SMOOTH",
"218 15 OFFCURVE",
"102 138 OFFCURVE",
"102 347 CURVE SMOOTH",
"102 551 OFFCURVE",
"215 678 OFFCURVE",
"377 678 CURVE SMOOTH",
"431 678 OFFCURVE",
"500 664 OFFCURVE",
"562 637 CURVE",
"557 646 LINE",
"568 516 LINE",
"582 516 LINE",
"587 650 LINE",
"513 683 OFFCURVE",
"441 698 OFFCURVE",
"380 698 CURVE SMOOTH",
"203 698 OFFCURVE",
"80 566 OFFCURVE",
"80 343 CURVE SMOOTH",
"80 122 OFFCURVE",
"202 -6 OFFCURVE",
"359 -6 CURVE SMOOTH"
);
}
);
width = 659;
},
{
anchors = (
{
name = bottom;
position = "{335, 0}";
},
{
name = top;
position = "{342, 710}";
}
);
background = {
paths = (
{
closed = 1;
nodes = (
"409 -16 OFFCURVE",
"501 17 OFFCURVE",
"602 86 CURVE",
"529 202 LINE",
"469 166 OFFCURVE",
"415 148 OFFCURVE",
"373 148 CURVE SMOOTH",
"288 148 OFFCURVE",
"242 225 OFFCURVE",
"242 374 CURVE SMOOTH",
"242 500 OFFCURVE",
"274 570 OFFCURVE",
"366 570 CURVE SMOOTH",
"394 570 OFFCURVE",
"424 563 OFFCURVE",
"463 549 CURVE",
"429 579 LINE",
"460 472 LINE",
"580 472 LINE",
"591 671 LINE",
"503 707 OFFCURVE",
"431 725 OFFCURVE",
"356 725 CURVE SMOOTH",
"161 725 OFFCURVE",
"22 599 OFFCURVE",
"22 353 CURVE SMOOTH",
"22 121 OFFCURVE",
"145 -16 OFFCURVE",
"318 -16 CURVE SMOOTH"
);
}
);
};
layerId = "927AED37-E9E6-4F96-A08E-421C3785EFC6";
paths = (
{
closed = 1;
nodes = (
"420 -15 OFFCURVE",
"514 18 OFFCURVE",
"602 86 CURVE",
"529 202 LINE",
"476 166 OFFCURVE",
"426 148 OFFCURVE",
"383 148 CURVE SMOOTH",
"298 148 OFFCURVE",
"242 216 OFFCURVE",
"242 375 CURVE SMOOTH",
"242 499 OFFCURVE",
"276 570 OFFCURVE",
"366 570 CURVE SMOOTH",
"394 570 OFFCURVE",
"424 563 OFFCURVE",
"463 549 CURVE",
"429 579 LINE",
"460 468 LINE",
"580 468 LINE",
"591 671 LINE",
"503 707 OFFCURVE",
"431 725 OFFCURVE",
"357 725 CURVE SMOOTH",
"151 725 OFFCURVE",
"22 585 OFFCURVE",
"22 351 CURVE SMOOTH",
"22 107 OFFCURVE",
"163 -15 OFFCURVE",
"332 -15 CURVE SMOOTH"
);
}
);
width = 619;
}
);
leftKerningGroup = O;
rightKerningGroup = C;
unicode = 0043;
},
{
glyphname = Ccedilla;
layers = (
{
components = (
{
name = C;
},
{
name = cedillacomb.case;
transform = "{1, 0, 0, 1, 217, 0}";
}
);
layerId = "075BA79B-D813-4287-A9DD-CCAF2D535ED3";
width = 659;
},
{
background = {
paths = (
{
closed = 1;
nodes = (
"357 -167 OFFCURVE",
"340 -173 OFFCURVE",
"310 -173 CURVE SMOOTH",
"288 -173 OFFCURVE",
"268 -166 OFFCURVE",
"248 -155 CURVE",
"205 -241 LINE",
"232 -258 OFFCURVE",
"278 -275 OFFCURVE",
"330 -275 CURVE SMOOTH",
"435 -275 OFFCURVE",
"494 -220 OFFCURVE",
"494 -151 CURVE SMOOTH",
"494 -89 OFFCURVE",
"457 -52 OFFCURVE",
"384 -43 CURVE",
"384 -18 LINE",
"476 -10 OFFCURVE",
"548 31 OFFCURVE",
"594 77 CURVE",
"504 193 LINE",
"463 161 OFFCURVE",
"422 135 OFFCURVE",
"364 135 CURVE SMOOTH",
"290 135 OFFCURVE",
"244 203 OFFCURVE",
"244 350 CURVE SMOOTH",
"244 497 OFFCURVE",
"292 568 OFFCURVE",
"370 568 CURVE SMOOTH",
"418 568 OFFCURVE",
"455 549 OFFCURVE",
"488 519 CURVE",
"586 634 LINE",
"527 685 OFFCURVE",
"455 716 OFFCURVE",
"358 716 CURVE SMOOTH",
"166 716 OFFCURVE",
"30 582 OFFCURVE",
"30 350 CURVE SMOOTH",
"30 142 OFFCURVE",
"125 17 OFFCURVE",
"276 -13 CURVE",
"263 -120 LINE",
"328 -120 OFFCURVE",
"357 -127 OFFCURVE",
"357 -148 CURVE SMOOTH"
);
}
);
};
components = (
{
name = C;
},
{
name = cedillacomb.case;
transform = "{1, 0, 0, 1, 203, 0}";
}
);
layerId = "927AED37-E9E6-4F96-A08E-421C3785EFC6";
width = 619;
}
);
leftKerningGroup = O;
rightKerningGroup = C;
unicode = 00C7;
},
{
glyphname = D;
layers = (
{
anchors = (
{
name = bottom;
position = "{358, 0}";
},
{
name = center;
position = "{221, 355}";
},
{
name = top;
position = "{337, 692}";
}
);
background = {
paths = (
{
closed = 1;
nodes = (
"211 0 LINE",
"211 19 LINE",
"181 19 LINE",
"161 28 LINE",
"61 15 LINE",
"61 0 LINE"
);
},
{
closed = 1;
nodes = (
"181 19 LINE",
"181 673 LINE",
"161 663 LINE",
"161 28 LINE"
);
},
{
closed = 1;
nodes = (
"161 663 LINE",
"181 673 LINE",
"211 673 LINE",
"211 692 LINE",
"61 687 LINE",
"61 672 LINE"
);
},
{
closed = 1;
nodes = (
"352 0 LINE SMOOTH",
"523 0 OFFCURVE",
"666 119 OFFCURVE",
"666 356 CURVE SMOOTH",
"666 590 OFFCURVE",
"521 692 OFFCURVE",
"364 692 CURVE SMOOTH",
"211 692 LINE",
"211 673 LINE",
"363 673 LINE SMOOTH",
"514 673 OFFCURVE",
"644 569 OFFCURVE",
"644 352 CURVE SMOOTH",
"644 125 OFFCURVE",
"507 19 OFFCURVE",
"352 19 CURVE SMOOTH",
"211 19 LINE",
"211 0 LINE"
);
}
);
};
layerId = "075BA79B-D813-4287-A9DD-CCAF2D535ED3";
paths = (
{
closed = 1;
nodes = (
"211 692 LINE",
"61 687 LINE",
"61 672 LINE",
"168 662 LINE",
"161 670 LINE",
"161 21 LINE",
"168 29 LINE",
"61 15 LINE",
"61 0 LINE",
"332 0 LINE SMOOTH",
"503 0 OFFCURVE",
"646 120 OFFCURVE",
"646 355 CURVE SMOOTH",
"646 591 OFFCURVE",
"501 692 OFFCURVE",
"344 692 CURVE SMOOTH"
);
},
{
closed = 1;
nodes = (
"174 19 LINE",
"181 12 LINE",
"181 680 LINE",
"174 673 LINE",
"343 673 LINE SMOOTH",
"494 673 OFFCURVE",
"624 570 OFFCURVE",
"624 351 CURVE SMOOTH",
"624 126 OFFCURVE",
"487 19 OFFCURVE",
"332 19 CURVE SMOOTH"
);
}
);
width = 724;
},
{
anchors = (
{
name = bottom;
position = "{329, 0}";
},
{
name = center;
position = "{204, 360}";
},
{
name = top;
position = "{309, 710}";
}
);
background = {
paths = (
{
closed = 1;
nodes = (
"289 0 LINE",
"289 145 LINE",
"289 145 LINE",
"84 125 LINE",
"14 100 LINE",
"14 0 LINE"
);
},
{
closed = 1;
nodes = (
"289 145 LINE",
"289 565 LINE",
"84 580 LINE",
"84 125 LINE"
);
},
{
closed = 1;
nodes = (
"84 580 LINE",
"289 565 LINE",
"289 565 LINE",
"289 710 LINE",
"14 705 LINE",
"14 605 LINE"
);
},
{
closed = 1;
nodes = (
"329 0 LINE SMOOTH",
"545 0 OFFCURVE",
"680 137 OFFCURVE",
"680 373 CURVE SMOOTH",
"680 588 OFFCURVE",
"565 710 OFFCURVE",
"349 710 CURVE SMOOTH",
"289 710 LINE",
"289 565 LINE",
"344 565 LINE SMOOTH",
"425 565 OFFCURVE",
"460 517 OFFCURVE",
"460 360 CURVE SMOOTH",
"460 179 OFFCURVE",
"414 145 OFFCURVE",
"334 145 CURVE SMOOTH",
"289 145 LINE",
"289 0 LINE"
);
}
);
};
guideLines = (
{
angle = 90;
position = "{726, 291}";
}
);
layerId = "927AED37-E9E6-4F96-A08E-421C3785EFC6";
paths = (
{
closed = 1;
nodes = (
"289 710 LINE",
"24 705 LINE",
"24 605 LINE",
"112 570 LINE",
"84 610 LINE",
"84 95 LINE",
"110 134 LINE",
"24 100 LINE",
"24 0 LINE",
"329 0 LINE SMOOTH",
"555 0 OFFCURVE",
"685 130 OFFCURVE",
"685 369 CURVE SMOOTH",
"685 590 OFFCURVE",
"570 710 OFFCURVE",
"354 710 CURVE SMOOTH"
);
},
{
closed = 1;
nodes = (
"259 145 LINE",
"289 115 LINE",
"289 595 LINE",
"259 565 LINE",
"349 565 LINE SMOOTH",
"395 565 OFFCURVE",
"465 565 OFFCURVE",
"465 358 CURVE SMOOTH",
"465 145 OFFCURVE",
"391 145 OFFCURVE",
"339 145 CURVE SMOOTH"
);
}
);
width = 706;
}
);
leftKerningGroup = H;
rightKerningGroup = O;
unicode = 0044;
},
{
glyphname = Eth;
layers = (
{
anchors = (
{
name = bottom;
position = "{358, 0}";
},
{
name = center;
position = "{221, 355}";
},
{
name = top;
position = "{337, 692}";
}
);
background = {
paths = (
{
closed = 1;
nodes = (
"68 345 LINE",
"388 345 LINE",
"388 364 LINE",
"68 364 LINE"
);
}
);
};
guideLines = (
{
angle = 90.9681;
position = "{68, 249}";
}
);
layerId = "075BA79B-D813-4287-A9DD-CCAF2D535ED3";
paths = (
{
closed = 1;
nodes = (
"211 692 LINE",
"61 687 LINE",
"61 672 LINE",
"168 662 LINE",
"161 670 LINE",
"161 21 LINE",
"168 29 LINE",
"61 15 LINE",
"61 0 LINE",
"332 0 LINE SMOOTH",
"503 0 OFFCURVE",
"646 120 OFFCURVE",
"646 355 CURVE SMOOTH",
"646 591 OFFCURVE",
"501 692 OFFCURVE",
"344 692 CURVE SMOOTH"
);
},
{
closed = 1;
nodes = (
"174 19 LINE",
"181 12 LINE",
"181 680 LINE",
"174 673 LINE",
"343 673 LINE SMOOTH",
"494 673 OFFCURVE",
"624 570 OFFCURVE",
"624 351 CURVE SMOOTH",
"624 126 OFFCURVE",
"487 19 OFFCURVE",
"332 19 CURVE SMOOTH"
);
},
{
closed = 1;
nodes = (
"386 345 LINE",
"386 364 LINE",
"66 364 LINE",
"66 345 LINE"
);
}
);
width = 724;
},
{
anchors = (
{
name = bottom;
position = "{329, 0}";
},
{
name = center;
position = "{204, 360}";
},
{
name = top;
position = "{309, 710}";
}
);
background = {
paths = (
{
closed = 1;
nodes = (
"66 294 LINE",
"425 294 LINE",
"425 439 LINE",
"66 439 LINE"
);
}
);
};
guideLines = (
{
angle = 90;
position = "{24, 241}";
}
);
layerId = "927AED37-E9E6-4F96-A08E-421C3785EFC6";
paths = (
{
closed = 1;
nodes = (
"289 710 LINE",
"24 705 LINE",
"24 605 LINE",
"112 570 LINE",
"84 610 LINE",
"84 95 LINE",
"110 134 LINE",
"24 100 LINE",
"24 0 LINE",
"329 0 LINE SMOOTH",
"555 0 OFFCURVE",
"685 130 OFFCURVE",
"685 369 CURVE SMOOTH",
"685 590 OFFCURVE",
"570 710 OFFCURVE",
"354 710 CURVE SMOOTH"
);
},
{
closed = 1;
nodes = (
"259 145 LINE",
"289 115 LINE",
"289 595 LINE",
"259 565 LINE",
"349 565 LINE SMOOTH",
"395 565 OFFCURVE",
"465 565 OFFCURVE",
"465 358 CURVE SMOOTH",
"465 145 OFFCURVE",
"391 145 OFFCURVE",
"339 145 CURVE SMOOTH"
);
},
{
closed = 1;
nodes = (
"383.455 293.6 LINE",
"383.455 425.6 LINE",
"24.455 425.6 LINE",
"24.455 293.6 LINE"
);
}
);
width = 706;
}
);
leftKerningGroup = H;
rightKerningGroup = O;
rightMetricsKey = D;
unicode = 00D0;
},
{
glyphname = E;
layers = (
{
anchors = (
{
name = bottom;
position = "{320, 0}";
},
{
name = ogonek;
position = "{550, 0}";
},
{
name = top;
position = "{329, 692}";
},
{
name = topleft;
position = "{31, 692}";
}
);
background = {
paths = (
{
closed = 1;
nodes = (
"181 673 LINE",
"509 673 LINE",
"537 692 LINE",
"182 692 LINE",
"61 687 LINE",
"61 672 LINE",
"161 663 LINE"
);
},
{
closed = 1;
nodes = (
"550 0 LINE",
"550 19 LINE",
"181 19 LINE",
"161 28 LINE",
"61 15 LINE",
"61 0 LINE"
);
},
{
closed = 1;
nodes = (
"181 673 LINE",
"161 663 LINE",
"161 28 LINE",
"181 19 LINE"
);
},
{
closed = 1;
nodes = (
"550 141 LINE",
"535 141 LINE",
"520 12 LINE",
"550 0 LINE"
);
},
{
closed = 1;
nodes = (
"469 359 LINE",
"469 378 LINE",
"173 378 LINE",
"173 359 LINE"
);
},
{
closed = 1;
nodes = (
"537 556 LINE",
"537 692 LINE",
"507 680 LINE",
"522 556 LINE"
);
}
);
};
guideLines = (
{
angle = 90;
position = "{1198, 116}";
}
);
layerId = "075BA79B-D813-4287-A9DD-CCAF2D535ED3";
paths = (
{
closed = 1;
nodes = (
"520 12 LINE",
"528 19 LINE",
"174 19 LINE",
"181 12 LINE",
"181 353 LINE",
"174 346 LINE",
"469 346 LINE",
"469 365 LINE",
"174 365 LINE",
"181 358 LINE",
"181 680 LINE",
"174 673 LINE",
"515 673 LINE",
"507 680 LINE",
"522 556 LINE",
"537 556 LINE",
"537 692 LINE",
"182 692 LINE",
"61 687 LINE",
"61 672 LINE",
"168 662 LINE",
"161 670 LINE",
"161 21 LINE",
"168 29 LINE",
"61 15 LINE",
"61 0 LINE",
"550 0 LINE",
"550 141 LINE",
"535 141 LINE"
);
}
);
width = 634;
},
{
anchors = (
{
name = bottom;
position = "{310, 0}";
},
{
name = ogonek;
position = "{561, 0}";
},
{
name = top;
position = "{304, 710}";
},
{
name = topleft;
position = "{9, 710}";
}
);
background = {
paths = (
{
closed = 1;
nodes = (
"289 145 LINE",
"289 565 LINE",
"84 580 LINE",
"84 125 LINE"
);
},
{
closed = 1;
nodes = (
"556 0 LINE",
"421 145 LINE",
"289 145 LINE",
"84 125 LINE",
"14 100 LINE",
"14 0 LINE"
);
},
{
closed = 1;
nodes = (
"558 221 LINE",
"438 221 LINE",
"421 145 LINE",
"556 0 LINE"
);
},
{
closed = 1;
nodes = (
"463 295 LINE",
"463 430 LINE",
"267 430 LINE",
"267 295 LINE"
);
},
{
closed = 1;
nodes = (
"409 565 LINE",
"546 710 LINE",
"284 710 LINE",
"14 705 LINE",
"14 605 LINE",
"84 580 LINE",
"289 565 LINE"
);
},
{
closed = 1;
nodes = (
"546 498 LINE",
"546 710 LINE",
"409 565 LINE",
"426 498 LINE"
);
}
);
};
layerId = "927AED37-E9E6-4F96-A08E-421C3785EFC6";
paths = (
{
closed = 1;
nodes = (
"419 115 LINE",
"456 145 LINE",
"259 145 LINE",
"289 115 LINE",
"289 325 LINE",
"259 290 LINE",
"468 290 LINE",
"468 430 LINE",
"259 430 LINE",
"289 400 LINE",
"289 595 LINE",
"259 565 LINE",
"444 565 LINE",
"408 591 LINE",
"431 508 LINE",
"551 508 LINE",
"551 710 LINE",
"284 710 LINE",
"24 705 LINE",
"24 605 LINE",
"108 572 LINE",
"84 610 LINE",
"84 95 LINE",
"109 134 LINE",
"24 100 LINE",
"24 0 LINE",
"561 0 LINE",
"563 211 LINE",
"443 211 LINE"
);
}
);
width = 596;
}
);
leftKerningGroup = H;
rightKerningGroup = E;
unicode = 0045;
},
{
glyphname = Ecedillabreve;
layers = (
{
background = {
paths = (
{
closed = 1;
nodes = (
"527 12 LINE",
"535 19 LINE",
"181 19 LINE",
"188 12 LINE",
"188 366 LINE",
"181 359 LINE",
"476 359 LINE",
"476 378 LINE",
"181 378 LINE",
"188 371 LINE",
"188 680 LINE",
"181 673 LINE",
"522 673 LINE",
"514 680 LINE",
"529 556 LINE",
"544 556 LINE",
"544 692 LINE",
"189 692 LINE",
"68 687 LINE",
"68 672 LINE",
"175 662 LINE",
"168 670 LINE",
"168 21 LINE",
"175 29 LINE",
"68 15 LINE",
"68 0 LINE",
"557 0 LINE",
"557 141 LINE",
"542 141 LINE"
);
},
{
closed = 1;
nodes = (
"393 756 OFFCURVE",
"448 787 OFFCURVE",
"448 850 CURVE",
"433 849 LINE",
"429 801 OFFCURVE",
"384 777 OFFCURVE",
"338 777 CURVE SMOOTH",
"292 777 OFFCURVE",
"245 801 OFFCURVE",
"239 850 CURVE",
"224 848 LINE",
"226 787 OFFCURVE",
"282 756 OFFCURVE",
"337 756 CURVE SMOOTH"
);
},
{
closed = 1;
nodes = (
"393 -212 OFFCURVE",
"433 -188 OFFCURVE",
"433 -138 CURVE SMOOTH",
"433 -102 OFFCURVE",
"412 -74 OFFCURVE",
"337 -68 CURVE",
"337 0 LINE",
"318 0 LINE",
"314 -87 LINE",
"381 -88 OFFCURVE",
"412 -106 OFFCURVE",
"412 -141 CURVE SMOOTH",
"412 -175 OFFCURVE",
"381 -192 OFFCURVE",
"342 -192 CURVE SMOOTH",
"321 -192 OFFCURVE",
"297 -187 OFFCURVE",
"277 -179 CURVE",
"269 -196 LINE",
"293 -207 OFFCURVE",
"319 -212 OFFCURVE",
"342 -212 CURVE SMOOTH"
);
}
);
};
components = (
{
name = E;
},
{
name = cedillacomb.case;
transform = "{1, 0, 0, 1, 176, 0}";
},
{
name = brevecomb.case;
transform = "{1, 0, 0, 1, 117, 0}";
}
);
layerId = "075BA79B-D813-4287-A9DD-CCAF2D535ED3";
width = 634;
},
{
background = {
anchors = (
{
name = _bottom;
position = "{307, 0}";
},
{
name = bottom;
position = "{307, 0}";
},
{
name = ogonek;
position = "{561, 0}";
},
{
name = top;
position = "{301, 710}";
},
{
name = topleft;
position = "{9, 710}";
}
);
paths = (
{
closed = 1;
nodes = (
"419 115 LINE",
"456 145 LINE",
"259 145 LINE",
"289 115 LINE",
"289 325 LINE",
"259 295 LINE",
"468 295 LINE",
"468 430 LINE",
"259 430 LINE",
"289 400 LINE",
"289 595 LINE",
"259 565 LINE",
"444 565 LINE",
"408 591 LINE",
"431 508 LINE",
"551 508 LINE",
"551 710 LINE",
"284 710 LINE",
"24 705 LINE",
"24 605 LINE",
"108 572 LINE",
"84 610 LINE",
"84 95 LINE",
"109 134 LINE",
"24 100 LINE",
"24 0 LINE",
"561 0 LINE",
"563 211 LINE",
"443 211 LINE"
);
},
{
closed = 1;
nodes = (
"392 -275 OFFCURVE",
"476 -232 OFFCURVE",
"476 -146 CURVE SMOOTH",
"476 -89 OFFCURVE",
"430 -49 OFFCURVE",
"353 -39 CURVE",
"353 0 LINE",
"238 0 LINE",
"230 -117 LINE",
"281 -119 OFFCURVE",
"336 -129 OFFCURVE",
"336 -151 CURVE SMOOTH",
"336 -166 OFFCURVE",
"321 -172 OFFCURVE",
"299 -172 CURVE SMOOTH",
"273 -172 OFFCURVE",
"237 -164 OFFCURVE",
"209 -154 CURVE",
"173 -246 LINE",
"212 -266 OFFCURVE",
"257 -275 OFFCURVE",
"300 -275 CURVE SMOOTH"
);
}
);
};
components = (
{
name = E;
},
{
name = cedillacomb.case;
transform = "{1, 0, 0, 1, 178, 0}";
},
{
name = brevecomb.case;
transform = "{1, 0, 0, 1, 96, 0}";
}
);
layerId = "927AED37-E9E6-4F96-A08E-421C3785EFC6";
width = 596;
}
);
leftKerningGroup = H;
rightKerningGroup = E;
unicode = 1E1C;
},
{
glyphname = Eogonek;
layers = (
{
background = {
paths = (
{
closed = 1;
nodes = (
"508 -194 OFFCURVE",
"536 -183 OFFCURVE",
"536 -183 CURVE",
"538 -175 LINE",
"538 -175 OFFCURVE",
"517 -184 OFFCURVE",
"490 -184 CURVE SMOOTH",
"458 -184 OFFCURVE",
"431 -164 OFFCURVE",
"431 -124 CURVE SMOOTH",
"431 -45 OFFCURVE",
"535 0 OFFCURVE",
"535 0 CURVE",
"535 143 LINE",
"512 143 LINE",
"497 12 LINE",
"180 12 LINE",
"180 351 LINE",
"458 351 LINE",
"458 379 LINE",
"180 379 LINE",
"180 680 LINE",
"481 680 LINE",
"506 561 LINE",
"528 561 LINE",
"528 691 LINE",
"180 691 LINE",
"59 686 LINE",
"59 683 LINE",
"161 680 LINE",
"161 20 LINE",
"59 17 LINE",
"59 0 LINE",
"496 0 LINE",
"496 0 OFFCURVE",
"411 -38 OFFCURVE",
"411 -108 CURVE SMOOTH",
"411 -154 OFFCURVE",
"447 -194 OFFCURVE",
"494 -194 CURVE SMOOTH"
);
}
);
};
components = (
{
name = E;
},
{
name = ogonekcomb.case;
transform = "{1, 0, 0, 1, 317, 0}";
}
);
layerId = "075BA79B-D813-4287-A9DD-CCAF2D535ED3";
width = 634;
},
{
background = {
paths = (
{
closed = 1;
nodes = (
"512 -250 OFFCURVE",
"566 -220 OFFCURVE",
"566 -220 CURVE",
"542 -127 LINE",
"542 -127 OFFCURVE",
"513 -132 OFFCURVE",
"501 -132 CURVE SMOOTH",
"484 -132 OFFCURVE",
"472 -123 OFFCURVE",
"472 -105 CURVE SMOOTH",
"472 -67 OFFCURVE",
"579 0 OFFCURVE",
"579 0 CURVE",
"579 224 LINE",
"464 224 LINE",
"438 161 LINE",
"311 161 LINE",
"311 295 LINE",
"484 295 LINE",
"484 435 LINE",
"311 435 LINE",
"311 549 LINE",
"425 549 LINE",
"450 494 LINE",
"565 494 LINE",
"565 710 LINE",
"311 710 LINE",
"40 705 LINE",
"40 589 LINE",
"105 549 LINE",
"105 151 LINE",
"40 111 LINE",
"40 0 LINE",
"429 0 LINE",
"429 0 OFFCURVE",
"321 -53 OFFCURVE",
"321 -145 CURVE SMOOTH",
"321 -221 OFFCURVE",
"377 -250 OFFCURVE",
"442 -250 CURVE SMOOTH"
);
}
);
};
components = (
{
name = E;
},
{
name = ogonekcomb.case;
transform = "{1, 0, 0, 1, 291, 0}";
}
);
layerId = "927AED37-E9E6-4F96-A08E-421C3785EFC6";
width = 596;
}
);
leftKerningGroup = H;
rightKerningGroup = E;
unicode = 0118;
},
{
glyphname = F;
layers = (
{
anchors = (
{
name = bottom;
position = "{171, 0}";
},
{
name = top;
position = "{329, 692}";
}
);
background = {
paths = (
{
closed = 1;
nodes = (
"305 0 LINE",
"305 15 LINE",
"181 28 LINE",
"161 28 LINE",
"61 15 LINE",
"61 0 LINE"
);
},
{
closed = 1;
nodes = (
"181 28 LINE",
"181 673 LINE",
"161 663 LINE",
"161 28 LINE"
);
},
{
closed = 1;
nodes = (
"455 356 LINE",
"455 375 LINE",
"173 375 LINE",
"173 356 LINE"
);
},
{
closed = 1;
nodes = (
"61 687 LINE",
"61 672 LINE",
"161 663 LINE",
"181 673 LINE",
"498 673 LINE",
"512 556 LINE",
"527 556 LINE",
"527 692 LINE",
"182 692 LINE"
);
}
);
};
layerId = "075BA79B-D813-4287-A9DD-CCAF2D535ED3";
paths = (
{
closed = 1;
nodes = (
"305 0 LINE",
"305 15 LINE",
"174 29 LINE",
"181 21 LINE",
"181 341 LINE",
"174 334 LINE",
"454 334 LINE",
"454 353 LINE",
"174 353 LINE",
"181 346 LINE",
"181 680 LINE",
"174 673 LINE",
"504 673 LINE",
"496 680 LINE",
"511 556 LINE",
"526 556 LINE",
"526 692 LINE",
"182 692 LINE",
"61 687 LINE",
"61 672 LINE",
"168 662 LINE",
"161 670 LINE",
"161 21 LINE",
"168 29 LINE",
"61 15 LINE",
"61 0 LINE"
);
}
);
width = 566;
},
{
anchors = (
{
name = bottom;
position = "{188, 0}";
},
{
name = top;
position = "{301, 710}";
}
);
background = {
paths = (
{
closed = 1;
nodes = (
"374 0 LINE",
"374 100 LINE",
"289 125 LINE",
"84 125 LINE",
"14 100 LINE",
"14 0 LINE"
);
},
{
closed = 1;
nodes = (
"289 125 LINE",
"289 565 LINE",
"84 580 LINE",
"84 125 LINE"
);
},
{
closed = 1;
nodes = (
"14 705 LINE",
"14 605 LINE",
"84 580 LINE",
"289 565 LINE",
"407 565 LINE",
"424 498 LINE",
"544 498 LINE",
"543 710 LINE",
"284 710 LINE"
);
},
{
closed = 1;
nodes = (
"464 290 LINE",
"464 425 LINE",
"270 425 LINE",
"270 290 LINE"
);
}
);
};
layerId = "927AED37-E9E6-4F96-A08E-421C3785EFC6";
paths = (
{
closed = 1;
nodes = (
"364 0 LINE",
"364 100 LINE",
"266 132 LINE",
"289 105 LINE",
"289 315 LINE",
"259 285 LINE",
"469 285 LINE",
"469 430 LINE",
"259 430 LINE",
"289 403 LINE",
"289 595 LINE",
"259 565 LINE",
"442 565 LINE",
"407 584 LINE",
"429 505 LINE",
"549 505 LINE",
"548 710 LINE",
"284 710 LINE",
"24 705 LINE",
"24 605 LINE",
"111 571 LINE",
"84 610 LINE",
"84 105 LINE",
"103 132 LINE",
"24 100 LINE",
"24 0 LINE"
);
}
);
width = 560;
}
);
leftKerningGroup = H;
rightKerningGroup = F;
unicode = 0046;
},
{
glyphname = G;
layers = (
{
anchors = (
{
name = bottom;
position = "{392, 0}";
},
{
name = top;
position = "{390, 692}";
}
);
background = {
components = (
{
name = C;
}
);
paths = (
{
closed = 1;
nodes = (
"451 -5 OFFCURVE",
"531 11 OFFCURVE",
"618 45 CURVE",
"604 60 LINE",
"523 30 OFFCURVE",
"449 15 OFFCURVE",
"385 15 CURVE SMOOTH",
"210 15 OFFCURVE",
"101 126 OFFCURVE",
"101 337 CURVE SMOOTH",
"101 554 OFFCURVE",
"221 678 OFFCURVE",
"391 678 CURVE SMOOTH",
"450 678 OFFCURVE",
"526 662 OFFCURVE",
"589 639 CURVE",
"598 511 LINE",
"614 511 LINE",
"619 650 LINE",
"542 683 OFFCURVE",
"464 698 OFFCURVE",
"399 698 CURVE SMOOTH",
"213 698 OFFCURVE",
"79 574 OFFCURVE",
"79 336 CURVE SMOOTH",
"79 111 OFFCURVE",
"195 -5 OFFCURVE",
"382 -5 CURVE SMOOTH"
);
},
{
closed = 1;
nodes = (
"618 45 LINE",
"618 287 LINE",
"704 300 LINE",
"704 315 LINE",
"490 310 LINE",
"490 295 LINE",
"598 287 LINE",
"598 45 LINE"
);
}
);
};
guideLines = (
{
angle = 90;
position = "{608, 433}";
}
);
layerId = "075BA79B-D813-4287-A9DD-CCAF2D535ED3";
paths = (
{
closed = 1;
nodes = (
"461 -5 OFFCURVE",
"537 11 OFFCURVE",
"618 45 CURVE",
"618 294 LINE",
"611 286 LINE",
"713 300 LINE",
"713 315 LINE",
"498 310 LINE",
"498 295 LINE",
"605 287 LINE",
"598 294 LINE",
"598 51 LINE",
"603 60 LINE",
"528 30 OFFCURVE",
"458 15 OFFCURVE",
"393 15 CURVE SMOOTH",
"214 15 OFFCURVE",
"101 127 OFFCURVE",
"101 337 CURVE SMOOTH",
"101 546 OFFCURVE",
"214 678 OFFCURVE",
"390 678 CURVE SMOOTH",
"454 678 OFFCURVE",
"531 661 OFFCURVE",
"595 637 CURVE",
"591 646 LINE",
"601 516 LINE",
"616 516 LINE",
"621 650 LINE",
"544 683 OFFCURVE",
"466 698 OFFCURVE",
"400 698 CURVE SMOOTH",
"204 698 OFFCURVE",
"79 566 OFFCURVE",
"79 337 CURVE SMOOTH",
"79 112 OFFCURVE",
"199 -5 OFFCURVE",
"390 -5 CURVE SMOOTH"
);
}
);
width = 759;
},
{
anchors = (
{
name = bottom;
position = "{363, 0}";
},
{
name = top;
position = "{357, 710}";
}
);
background = {
paths = (
{
closed = 1;
nodes = (
"437 -15 OFFCURVE",
"531 4 OFFCURVE",
"629 44 CURVE",
"629 277 LINE",
"611 244 LINE",
"689 272 LINE",
"689 377 LINE",
"379 372 LINE",
"379 268 LINE",
"470 244 LINE",
"439 277 LINE",
"439 114 LINE",
"462 154 LINE",
"432 144 OFFCURVE",
"405 140 OFFCURVE",
"383 140 CURVE SMOOTH",
"285 140 OFFCURVE",
"243 222 OFFCURVE",
"243 366 CURVE SMOOTH",
"243 507 OFFCURVE",
"283 570 OFFCURVE",
"390 570 CURVE SMOOTH",
"421 570 OFFCURVE",
"461 566 OFFCURVE",
"501 552 CURVE",
"470 577 LINE",
"501 470 LINE",
"621 470 LINE",
"633 669 LINE",
"544 706 OFFCURVE",
"456 725 OFFCURVE",
"371 725 CURVE SMOOTH",
"162 725 OFFCURVE",
"23 598 OFFCURVE",
"23 353 CURVE SMOOTH",
"23 112 OFFCURVE",
"158 -15 OFFCURVE",
"359 -15 CURVE SMOOTH"
);
}
);
};
layerId = "927AED37-E9E6-4F96-A08E-421C3785EFC6";
paths = (
{
closed = 1;
nodes = (
"437 -15 OFFCURVE",
"531 4 OFFCURVE",
"629 44 CURVE",
"629 277 LINE",
"611 244 LINE",
"689 272 LINE",
"689 377 LINE",
"379 372 LINE",
"379 268 LINE",
"470 244 LINE",
"439 277 LINE",
"439 114 LINE",
"462 154 LINE",
"432 144 OFFCURVE",
"405 140 OFFCURVE",
"383 140 CURVE SMOOTH",
"285 140 OFFCURVE",
"243 225 OFFCURVE",
"243 357 CURVE SMOOTH",
"243 506 OFFCURVE",
"296 571 OFFCURVE",
"395 571 CURVE SMOOTH",
"427 571 OFFCURVE",
"462 564 OFFCURVE",
"501 552 CURVE",
"470 577 LINE",
"501 468 LINE",
"621 468 LINE",
"633 669 LINE",
"544 706 OFFCURVE",
"456 725 OFFCURVE",
"373 725 CURVE SMOOTH",
"151 725 OFFCURVE",
"23 587 OFFCURVE",
"23 353 CURVE SMOOTH",
"23 112 OFFCURVE",
"158 -15 OFFCURVE",
"359 -15 CURVE SMOOTH"
);
}
);
width = 695;
}
);
leftKerningGroup = O;
leftMetricsKey = O;
rightKerningGroup = G;
unicode = 0047;
},
{
glyphname = H;
layers = (
{
anchors = (
{
name = bottom;
position = "{403, 0}";
},
{
name = center;
position = "{403, 350}";
},
{
name = top;
position = "{403, 692}";
},
{
name = topleft;
position = "{38, 692}";
}
);
background = {
paths = (
{
closed = 1;
nodes = (
"181 28 LINE",
"181 342 LINE",
"624 342 LINE",
"624 28 LINE",
"644 28 LINE",
"644 664 LINE",
"624 664 LINE",
"624 361 LINE",
"181 361 LINE",
"181 664 LINE",
"161 664 LINE",
"161 28 LINE"
);
},
{
closed = 1;
nodes = (
"296 0 LINE",
"296 15 LINE",
"181 28 LINE",
"161 28 LINE",
"61 15 LINE",
"61 0 LINE"
);
},
{
closed = 1;
nodes = (
"744 0 LINE",
"744 15 LINE",
"644 28 LINE",
"624 28 LINE",
"509 15 LINE",
"509 0 LINE"
);
},
{
closed = 1;
nodes = (
"181 664 LINE",
"296 677 LINE",
"296 692 LINE",
"61 687 LINE",
"61 672 LINE",
"161 664 LINE"
);
},
{
closed = 1;
nodes = (
"644 664 LINE",
"744 677 LINE",
"744 692 LINE",
"509 687 LINE",
"509 672 LINE",
"624 664 LINE"
);
}
);
};
layerId = "075BA79B-D813-4287-A9DD-CCAF2D535ED3";
paths = (
{
closed = 1;
nodes = (
"281 0 LINE",
"281 15 LINE",
"174 29 LINE",
"181 21 LINE",
"181 349 LINE",
"174 342 LINE",
"631 342 LINE",
"624 349 LINE",
"624 21 LINE",
"631 29 LINE",
"524 15 LINE",
"524 0 LINE",
"744 0 LINE",
"744 15 LINE",
"637 29 LINE",
"644 21 LINE",
"644 671 LINE",
"637 663 LINE",
"744 677 LINE",
"744 692 LINE",
"524 687 LINE",
"524 672 LINE",
"631 664 LINE",
"624 671 LINE",
"624 354 LINE",
"631 361 LINE",
"174 361 LINE",
"181 354 LINE",
"181 671 LINE",
"174 663 LINE",
"281 677 LINE",
"281 692 LINE",
"61 687 LINE",
"61 672 LINE",
"168 663 LINE",
"161 671 LINE",
"161 21 LINE",
"168 29 LINE",
"61 15 LINE",
"61 0 LINE"
);
}
);
width = 804;
},
{
anchors = (
{
name = bottom;
position = "{387, 0}";
},
{
name = center;
position = "{387, 355}";
},
{
name = top;
position = "{387, 710}";
},
{
name = topleft;
position = "{20, 710}";
}
);
background = {
paths = (
{
closed = 1;
nodes = (
"289 125 LINE",
"289 293 LINE",
"485 293 LINE",
"485 125 LINE",
"690 125 LINE",
"690 581 LINE",
"485 580 LINE",
"485 438 LINE",
"289 438 LINE",
"289 581 LINE",
"84 580 LINE",
"84 125 LINE"
);
},
{
closed = 1;
nodes = (
"354 0 LINE",
"354 100 LINE",
"289 125 LINE",
"84 125 LINE",
"14 100 LINE",
"14 0 LINE"
);
},
{
closed = 1;
nodes = (
"760 0 LINE",
"760 100 LINE",
"690 125 LINE",
"485 125 LINE",
"420 100 LINE",
"420 0 LINE"
);
},
{
closed = 1;
nodes = (
"289 581 LINE",
"354 610 LINE",
"354 710 LINE",
"14 705 LINE",
"14 605 LINE",
"84 580 LINE"
);
},
{
closed = 1;
nodes = (
"690 581 LINE",
"760 610 LINE",
"760 710 LINE",
"420 705 LINE",
"420 605 LINE",
"485 580 LINE"
);
}
);
};
layerId = "927AED37-E9E6-4F96-A08E-421C3785EFC6";
paths = (
{
closed = 1;
nodes = (
"349 0 LINE",
"349 100 LINE",
"265 134 LINE",
"289 95 LINE",
"289 320 LINE",
"259 290 LINE",
"520 290 LINE",
"490 320 LINE",
"490 95 LINE",
"514 134 LINE",
"430 100 LINE",
"430 0 LINE",
"755 0 LINE",
"755 100 LINE",
"669 134 LINE",
"695 95 LINE",
"695 611 LINE",
"669 570 LINE",
"755 610 LINE",
"755 710 LINE",
"430 705 LINE",
"430 605 LINE",
"520 569 LINE",
"490 610 LINE",
"490 405 LINE",
"520 435 LINE",
"259 435 LINE",
"289 405 LINE",
"289 611 LINE",
"260 569 LINE",
"349 610 LINE",
"349 710 LINE",
"24 705 LINE",
"24 605 LINE",
"116 569 LINE",
"84 610 LINE",
"84 95 LINE",
"109 134 LINE",
"24 100 LINE",
"24 0 LINE"
);
}
);
width = 779;
}
);
leftKerningGroup = H;
rightKerningGroup = H;
unicode = 0048;
},
{
glyphname = Hbar;
layers = (
{
guideLines = (
{
angle = 90;
position = "{66, 614}";
},
{
angle = 90;
position = "{749, 614}";
}
);
layerId = "075BA79B-D813-4287-A9DD-CCAF2D535ED3";
paths = (
{
closed = 1;
nodes = (
"749 509 LINE",
"749 528 LINE",
"66 528 LINE",
"66 509 LINE"
);
},
{
closed = 1;
nodes = (
"286 0 LINE",
"286 15 LINE",
"179 29 LINE",
"186 21 LINE",
"186 349 LINE",
"179 342 LINE",
"636 342 LINE",
"629 349 LINE",
"629 21 LINE",
"636 29 LINE",
"529 15 LINE",
"529 0 LINE",
"749 0 LINE",
"749 15 LINE",
"642 29 LINE",
"649 21 LINE",
"649 671 LINE",
"642 663 LINE",
"749 677 LINE",
"749 692 LINE",
"529 687 LINE",
"529 672 LINE",
"636 664 LINE",
"629 671 LINE",
"629 354 LINE",
"636 361 LINE",
"179 361 LINE",
"186 354 LINE",
"186 671 LINE",
"179 663 LINE",
"286 677 LINE",
"286 692 LINE",
"66 687 LINE",
"66 672 LINE",
"173 663 LINE",
"166 671 LINE",
"166 21 LINE",
"173 29 LINE",
"66 15 LINE",
"66 0 LINE"
);
}
);
width = 814;
},
{
background = {
paths = (
{
closed = 1;
nodes = (
"775 475 LINE",
"775 555 LINE",
"29 555 LINE",
"29 475 LINE"
);
},
{
closed = 1;
nodes = (
"369 0 LINE",
"369 100 LINE",
"280 134 LINE",
"304 95 LINE",
"304 310 LINE",
"274 280 LINE",
"530 280 LINE",
"500 310 LINE",
"500 95 LINE",
"524 134 LINE",
"435 100 LINE",
"435 0 LINE",
"775 0 LINE",
"775 100 LINE",
"679 134 LINE",
"705 95 LINE",
"705 611 LINE",
"679 570 LINE",
"775 610 LINE",
"775 710 LINE",
"435 705 LINE",
"435 605 LINE",
"530 569 LINE",
"500 610 LINE",
"500 390 LINE",
"530 420 LINE",
"274 420 LINE",
"304 390 LINE",
"304 611 LINE",
"275 569 LINE",
"369 610 LINE",
"369 710 LINE",
"29 705 LINE",
"29 605 LINE",
"131 569 LINE",
"99 610 LINE",
"99 95 LINE",
"124 134 LINE",
"29 100 LINE",
"29 0 LINE"
);
}
);
};
guideLines = (
{
angle = 90;
position = "{29, 540}";
},
{
angle = 90;
position = "{760, 540}";
}
);
layerId = "927AED37-E9E6-4F96-A08E-421C3785EFC6";
paths = (
{
closed = 1;
nodes = (
"760 460 LINE",
"760 555 LINE",
"29 555 LINE",
"29 460 LINE"
);
},
{
closed = 1;
nodes = (
"354 0 LINE",
"354 100 LINE",
"270 134 LINE",
"294 95 LINE",
"294 305 LINE",
"264 275 LINE",
"525 275 LINE",
"495 305 LINE",
"495 95 LINE",
"519 134 LINE",
"435 100 LINE",
"435 0 LINE",
"760 0 LINE",
"760 100 LINE",
"674 134 LINE",
"700 95 LINE",
"700 611 LINE",
"674 570 LINE",
"760 610 LINE",
"760 710 LINE",
"435 705 LINE",
"435 605 LINE",
"525 569 LINE",
"495 610 LINE",
"495 385 LINE",
"525 415 LINE",
"264 415 LINE",
"294 385 LINE",
"294 611 LINE",
"265 569 LINE",
"354 610 LINE",
"354 710 LINE",
"29 705 LINE",
"29 605 LINE",
"121 569 LINE",
"89 610 LINE",
"89 95 LINE",
"114 134 LINE",
"29 100 LINE",
"29 0 LINE"
);
}
);
width = 789;
}
);
leftKerningGroup = H;
leftMetricsKey = "=H+5";
rightKerningGroup = H;
rightMetricsKey = "=H+5";
unicode = 0126;
},
{
glyphname = I;
layers = (
{
anchors = (
{
name = bottom;
position = "{171, 0}";
},
{
name = ogonek;
position = "{251, 0}";
},
{
name = top;
position = "{171, 692}";
},
{
name = topleft;
position = "{31, 692}";
}
);
background = {
paths = (
{
closed = 1;
nodes = (
"181 664 LINE",
"161 664 LINE",
"161 28 LINE",
"181 28 LINE"
);
},
{
closed = 1;
nodes = (
"281 0 LINE",
"281 15 LINE",
"181 28 LINE",
"161 28 LINE",
"61 15 LINE",
"61 0 LINE"
);
},
{
closed = 1;
nodes = (
"181 664 LINE",
"281 677 LINE",
"281 692 LINE",
"61 687 LINE",
"61 672 LINE",
"161 664 LINE"
);
}
);
};
layerId = "075BA79B-D813-4287-A9DD-CCAF2D535ED3";
paths = (
{
closed = 1;
nodes = (
"281 692 LINE",
"61 687 LINE",
"61 672 LINE",
"168 663 LINE",
"161 671 LINE",
"161 21 LINE",
"168 29 LINE",
"61 15 LINE",
"61 0 LINE",
"281 0 LINE",
"281 15 LINE",
"174 29 LINE",
"181 21 LINE",
"181 671 LINE",
"174 663 LINE",
"281 677 LINE"
);
}
);
width = 341;
},
{
anchors = (
{
name = bottom;
position = "{188, 0}";
},
{
name = ogonek;
position = "{291, 0}";
},
{
name = top;
position = "{186, 710}";
},
{
name = topleft;
position = "{9, 710}";
}
);
background = {
paths = (
{
closed = 1;
nodes = (
"289 580 LINE",
"84 580 LINE",
"84 125 LINE",
"289 125 LINE"
);
},
{
closed = 1;
nodes = (
"354 0 LINE",
"354 100 LINE",
"289 125 LINE",
"84 125 LINE",
"19 100 LINE",
"19 0 LINE"
);
},
{
closed = 1;
nodes = (
"289 580 LINE",
"354 610 LINE",
"354 710 LINE",
"19 705 LINE",
"19 605 LINE",
"84 580 LINE"
);
}
);
};
layerId = "927AED37-E9E6-4F96-A08E-421C3785EFC6";
paths = (
{
closed = 1;
nodes = (
"349 710 LINE",
"24 705 LINE",
"24 605 LINE",
"108 571 LINE",
"84 600 LINE",
"84 105 LINE",
"101 131 LINE",
"24 100 LINE",
"24 0 LINE",
"349 0 LINE",
"349 100 LINE",
"270 132 LINE",
"289 105 LINE",
"289 600 LINE",
"270 572 LINE",
"349 610 LINE"
);
}
);
width = 373;
}
);
leftKerningGroup = H;
rightKerningGroup = H;
unicode = 0049;
},
{
glyphname = IJ;
layers = (
{
background = {
components = (
{
name = I;
transform = "{1, 0, 0, 1, 45, 0}";
},
{
alignment = -1;
name = J;
transform = "{1, 0, 0, 1, 348, 0}";
}
);
};
components = (
{
alignment = -1;
name = I;
},
{
alignment = -1;
name = J;
transform = "{1, 0, 0, 1, 348, 0}";
}
);
layerId = "075BA79B-D813-4287-A9DD-CCAF2D535ED3";
width = 667;
},
{
background = {
paths = (
{
closed = 1;
nodes = (
"371 0 LINE",
"371 111 LINE",
"306 151 LINE",
"306 549 LINE",
"371 589 LINE",
"371 710 LINE",
"35 705 LINE",
"35 589 LINE",
"100 549 LINE",
"100 151 LINE",
"35 111 LINE",
"35 0 LINE"
);
},
{
closed = 1;
nodes = (
"707 -170 OFFCURVE",
"741 -61 OFFCURVE",
"741 168 CURVE SMOOTH",
"741 549 LINE",
"805 589 LINE",
"805 710 LINE",
"465 705 LINE",
"465 589 LINE",
"535 549 LINE",
"535 67 LINE SMOOTH",
"535 1 OFFCURVE",
"504 -30 OFFCURVE",
"449 -30 CURVE SMOOTH",
"403 -30 LINE",
"386 -161 LINE",
"386 -161 OFFCURVE",
"435 -170 OFFCURVE",
"474 -170 CURVE SMOOTH"
);
}
);
};
components = (
{
name = I;
},
{
alignment = -1;
name = J;
transform = "{1, 0, 0, 1, 394, 0}";
}
);
layerId = "927AED37-E9E6-4F96-A08E-421C3785EFC6";
width = 748;
}
);
leftKerningGroup = H;
leftMetricsKey = I;
rightKerningGroup = U;
rightMetricsKey = J;
unicode = 0132;
},
{
glyphname = Iogonek;
layers = (
{
background = {
paths = (
{
closed = 1;
nodes = (
"281 692 LINE",
"61 687 LINE",
"61 672 LINE",
"168 663 LINE",
"161 671 LINE",
"161 21 LINE",
"168 29 LINE",
"61 15 LINE",
"61 0 LINE",
"281 0 LINE",
"281 15 LINE",
"174 29 LINE",
"181 21 LINE",
"181 671 LINE",
"174 663 LINE",
"281 677 LINE"
);
},
{
closed = 1;
nodes = (
"215 -216 OFFCURVE",
"235 -213 OFFCURVE",
"257 -208 CURVE",
"254 -191 LINE",
"235 -195 OFFCURVE",
"218 -197 OFFCURVE",
"203 -197 CURVE SMOOTH",
"142 -197 OFFCURVE",
"106 -168 OFFCURVE",
"106 -128 CURVE SMOOTH",
"106 -90 OFFCURVE",
"134 -24 OFFCURVE",
"280 0 CURVE",
"262 13 LINE",
"116 -9 OFFCURVE",
"85 -86 OFFCURVE",
"85 -130 CURVE SMOOTH",
"85 -179 OFFCURVE",
"127 -216 OFFCURVE",
"195 -216 CURVE SMOOTH"
);
}
);
};
components = (
{
name = I;
},
{
name = ogonekcomb.case.alt;
transform = "{1, 0, 0, 1, 17, 0}";
}
);
layerId = "075BA79B-D813-4287-A9DD-CCAF2D535ED3";
width = 341;
},
{
background = {
paths = (
{
closed = 1;
nodes = (
"349 710 LINE",
"24 705 LINE",
"24 605 LINE",
"108 571 LINE",
"84 600 LINE",
"84 105 LINE",
"101 131 LINE",
"24 100 LINE",
"24 0 LINE",
"349 0 LINE",
"349 100 LINE",
"270 132 LINE",
"289 105 LINE",
"289 600 LINE",
"270 572 LINE",
"349 610 LINE"
);
},
{
closed = 1;
nodes = (
"234 -228 OFFCURVE",
"271 -222 OFFCURVE",
"313 -208 CURVE",
"303 -99 LINE",
"288 -102 OFFCURVE",
"275 -104 OFFCURVE",
"264 -104 CURVE SMOOTH",
"225 -104 OFFCURVE",
"205 -87 OFFCURVE",
"205 -67 CURVE SMOOTH",
"205 -44 OFFCURVE",
"231 -13 OFFCURVE",
"349 0 CURVE",
"320 72 LINE",
"123 45 OFFCURVE",
"64 -55 OFFCURVE",
"64 -121 CURVE SMOOTH",
"64 -180 OFFCURVE",
"113 -228 OFFCURVE",
"202 -228 CURVE SMOOTH"
);
}
);
};
components = (
{
name = I;
},
{
name = ogonekcomb.case.alt;
transform = "{1, 0, 0, 1, 61, 0}";
}
);
guideLines = (
{
angle = 90;
position = "{289, -102}";
},
{
angle = 90;
position = "{84, -102}";
},
{
angle = 90;
position = "{24, -102}";
},
{
angle = 90;
position = "{349, -102}";
}
);
layerId = "927AED37-E9E6-4F96-A08E-421C3785EFC6";
width = 373;
}
);
leftKerningGroup = H;
rightKerningGroup = H;
unicode = 012E;
},
{
glyphname = J;
layers = (
{
anchors = (
{
name = bottom;
position = "{161, 0}";
},
{
name = top;
position = "{161, 692}";
}
);
background = {
paths = (
{
closed = 1;
nodes = (
"41 672 LINE",
"158 664 LINE",
"151 671 LINE",
"151 3 LINE SMOOTH",
"151 -79 OFFCURVE",
"110 -105 OFFCURVE",
"32 -105 CURVE SMOOTH",
"3 -105 LINE",
"1 -122 LINE",
"13 -123 OFFCURVE",
"25 -124 OFFCURVE",
"38 -124 CURVE SMOOTH",
"103 -124 OFFCURVE",
"171 -104 OFFCURVE",
"171 3 CURVE SMOOTH",
"171 671 LINE",
"164 663 LINE",
"271 677 LINE",
"271 692 LINE",
"41 687 LINE"
);
}
);
};
layerId = "075BA79B-D813-4287-A9DD-CCAF2D535ED3";
paths = (
{
closed = 1;
nodes = (
"41 672 LINE",
"158 664 LINE",
"151 671 LINE",
"151 3 LINE SMOOTH",
"151 -73 OFFCURVE",
"116 -105 OFFCURVE",
"39 -105 CURVE SMOOTH",
"25 -105 OFFCURVE",
"15 -104 OFFCURVE",
"3 -103 CURVE",
"1 -122 LINE",
"14 -123 OFFCURVE",
"26 -124 OFFCURVE",
"40 -124 CURVE SMOOTH",
"122 -124 OFFCURVE",
"171 -90 OFFCURVE",
"171 3 CURVE SMOOTH",
"171 671 LINE",
"164 663 LINE",
"271 677 LINE",
"271 692 LINE",
"41 687 LINE"
);
}
);
width = 319;
},
{
anchors = (
{
name = bottom;
position = "{177, 0}";
},
{
name = top;
position = "{170, 710}";
}
);
background = {
components = (
{
name = jdotless;
transform = "{1, 0, 0, 1, 14, 59}";
}
);
};
layerId = "927AED37-E9E6-4F96-A08E-421C3785EFC6";
paths = (
{
closed = 1;
nodes = (
"9 605 LINE",
"96 573 LINE",
"74 610 LINE",
"74 114 LINE SMOOTH",
"74 12 OFFCURVE",
"54 -37 OFFCURVE",
"-17 -37 CURVE SMOOTH",
"-27 -37 OFFCURVE",
"-36 -36 OFFCURVE",
"-49 -34 CURVE",
"-66 -177 LINE",
"-31 -183 OFFCURVE",
"-2 -186 OFFCURVE",
"28 -186 CURVE SMOOTH",
"233 -186 OFFCURVE",
"279 -48 OFFCURVE",
"279 158 CURVE SMOOTH",
"279 610 LINE",
"259 570 LINE",
"339 612 LINE",
"339 710 LINE",
"9 705 LINE"
);
}
);
width = 354;
}
);
leftKerningGroup = J;
rightKerningGroup = U;
unicode = 004A;
},
{
glyphname = K;
layers = (
{
anchors = (
{
name = bottom;
position = "{348, 0}";
},
{
name = top;
position = "{348, 692}";
}
);
background = {
anchors = (
{
name = bottom;
position = "{334, 0}";
},
{
name = top;
position = "{334, 691}";
}
);
paths = (
{
closed = 1;
nodes = (
"345 364 LINE",
"345 353 LINE",
"546 671 LINE",
"535 664 LINE",
"642 678 LINE",
"642 693 LINE",
"412 688 LINE",
"412 673 LINE",
"529 665 LINE",
"526 671 LINE",
"327 358 LINE",
"338 364 LINE",
"174 364 LINE",
"181 357 LINE",
"181 672 LINE",
"174 664 LINE",
"291 678 LINE",
"291 693 LINE",
"61 688 LINE",
"61 673 LINE",
"168 664 LINE",
"161 672 LINE",
"161 21 LINE",
"168 29 LINE",
"61 15 LINE",
"61 0 LINE",
"291 0 LINE",
"291 15 LINE",
"174 29 LINE",
"181 21 LINE",
"181 352 LINE",
"174 345 LINE",
"344 345 LINE",
"333 350 LINE",
"571 23 LINE",
"574 29 LINE",
"462 15 LINE",
"462 0 LINE",
"690 0 LINE",
"690 15 LINE",
"583 29 LINE",
"594 23 LINE"
);
}
);
};
layerId = "075BA79B-D813-4287-A9DD-CCAF2D535ED3";
paths = (
{
closed = 1;
nodes = (
"347 364 LINE",
"347 353 LINE",
"543 670 LINE",
"532 663 LINE",
"635 677 LINE",
"635 692 LINE",
"419 687 LINE",
"419 672 LINE",
"526 664 LINE",
"522 670 LINE",
"329 358 LINE",
"340 364 LINE",
"174 364 LINE",
"181 357 LINE",
"181 671 LINE",
"174 663 LINE",
"281 677 LINE",
"281 692 LINE",
"61 687 LINE",
"61 672 LINE",
"168 663 LINE",
"161 671 LINE",
"161 21 LINE",
"168 29 LINE",
"61 15 LINE",
"61 0 LINE",
"281 0 LINE",
"281 15 LINE",
"174 29 LINE",
"181 21 LINE",
"181 352 LINE",
"174 345 LINE",
"346 345 LINE",
"333 350 LINE",
"567 23 LINE",
"571 28 LINE",
"468 15 LINE",
"468 0 LINE",
"683 0 LINE",
"683 15 LINE",
"580 28 LINE",
"591 23 LINE"
);
}
);
width = 701;
},
{
anchors = (
{
name = bottom;
position = "{361, 0}";
},
{
name = top;
position = "{361, 710}";
}
);
background = {
paths = (
{
closed = 1;
nodes = (
"674 125 LINE",
"499 387 LINE",
"501 356 LINE",
"643 586 LINE",
"448 587 LINE",
"361 434 LINE",
"285 434 LINE",
"285 299 LINE",
"344 299 LINE",
"449 125 LINE"
);
},
{
closed = 1;
nodes = (
"339 0 LINE",
"339 100 LINE",
"289 125 LINE",
"84 125 LINE",
"14 100 LINE",
"14 0 LINE"
);
},
{
closed = 1;
nodes = (
"289 125 LINE",
"289 586 LINE",
"84 581 LINE",
"84 125 LINE"
);
},
{
closed = 1;
nodes = (
"738 0 LINE",
"738 100 LINE",
"674 125 LINE",
"449 125 LINE",
"398 100 LINE",
"398 0 LINE"
);
},
{
closed = 1;
nodes = (
"289 586 LINE",
"339 612 LINE",
"339 710 LINE",
"14 705 LINE",
"14 605 LINE",
"84 581 LINE"
);
},
{
closed = 1;
nodes = (
"643 586 LINE",
"702 612 LINE",
"702 710 LINE",
"382 705 LINE",
"382 605 LINE",
"448 587 LINE"
);
}
);
};
layerId = "927AED37-E9E6-4F96-A08E-421C3785EFC6";
paths = (
{
closed = 1;
nodes = (
"489 395 LINE",
"489 346 LINE",
"651 607 LINE",
"610 574 LINE",
"692 610 LINE",
"692 710 LINE",
"395 705 LINE",
"395 605 LINE",
"468 580 LINE",
"453 609 LINE",
"336 404 LINE",
"386 435 LINE",
"259 435 LINE",
"289 404 LINE",
"289 616 LINE",
"266 574 LINE",
"344 612 LINE",
"344 710 LINE",
"24 705 LINE",
"24 605 LINE",
"103 575 LINE",
"84 611 LINE",
"84 95 LINE",
"104 132 LINE",
"24 100 LINE",
"24 0 LINE",
"344 0 LINE",
"344 100 LINE",
"265 137 LINE",
"289 95 LINE",
"289 329 LINE",
"259 290 LINE",
"369 290 LINE",
"318 329 LINE",
"457 99 LINE",
"460 133 LINE",
"398 100 LINE",
"398 0 LINE",
"716 0 LINE",
"716 100 LINE",
"639 133 LINE",
"692 91 LINE"
);
}
);
width = 726;
}
);
leftKerningGroup = H;
leftMetricsKey = H;
rightKerningGroup = X;
unicode = 004B;
},
{
glyphname = L;
layers = (
{
anchors = (
{
name = bottom;
position = "{318, 0}";
},
{
name = center;
position = "{390, 357}";
},
{
name = top;
position = "{171, 692}";
},
{
name = topright;
position = "{434, 692}";
}
);
background = {
paths = (
{
closed = 1;
nodes = (
"181 663 LINE",
"161 663 LINE",
"161 28 LINE",
"181 19 LINE"
);
},
{
closed = 1;
nodes = (
"514 0 LINE",
"488 19 LINE",
"181 19 LINE",
"161 28 LINE",
"61 15 LINE",
"61 0 LINE"
);
},
{
closed = 1;
nodes = (
"514 145 LINE",
"499 145 LINE",
"484 12 LINE",
"514 0 LINE"
);
},
{
closed = 1;
nodes = (
"181 663 LINE",
"296 677 LINE",
"296 692 LINE",
"61 687 LINE",
"61 672 LINE",
"161 663 LINE"
);
}
);
};
layerId = "075BA79B-D813-4287-A9DD-CCAF2D535ED3";
paths = (
{
closed = 1;
nodes = (
"484 12 LINE",
"492 19 LINE",
"174 19 LINE",
"181 12 LINE",
"181 670 LINE",
"174 662 LINE",
"296 677 LINE",
"296 692 LINE",
"61 687 LINE",
"61 672 LINE",
"168 662 LINE",
"161 670 LINE",
"161 21 LINE",
"168 29 LINE",
"61 15 LINE",
"61 0 LINE",
"514 0 LINE",
"514 145 LINE",
"499 145 LINE"
);
}
);
width = 547;
},
{
anchors = (
{
name = bottom;
position = "{299, 0}";
},
{
name = center;
position = "{430, 384}";
},
{
name = top;
position = "{187, 710}";
},
{
name = topright;
position = "{399, 710}";
}
);
background = {
paths = (
{
closed = 1;
nodes = (
"289 580 LINE",
"84 580 LINE",
"84 125 LINE",
"289 145 LINE"
);
},
{
closed = 1;
nodes = (
"529 0 LINE",
"373 145 LINE",
"289 145 LINE",
"84 125 LINE",
"14 100 LINE",
"14 0 LINE"
);
},
{
closed = 1;
nodes = (
"529 264 LINE",
"398 264 LINE",
"373 145 LINE",
"529 0 LINE"
);
},
{
closed = 1;
nodes = (
"289 580 LINE",
"359 610 LINE",
"359 710 LINE",
"14 705 LINE",
"14 605 LINE",
"84 580 LINE"
);
}
);
};
layerId = "927AED37-E9E6-4F96-A08E-421C3785EFC6";
paths = (
{
closed = 1;
nodes = (
"402 114 LINE",
"428 145 LINE",
"259 145 LINE",
"289 115 LINE",
"289 610 LINE",
"270 573 LINE",
"352 610 LINE",
"352 710 LINE",
"24 705 LINE",
"24 605 LINE",
"105 573 LINE",
"84 610 LINE",
"84 95 LINE",
"105 132 LINE",
"24 100 LINE",
"24 0 LINE",
"549 0 LINE",
"549 245 LINE",
"429 245 LINE"
);
}
);
width = 564;
}
);
leftKerningGroup = H;
leftMetricsKey = H;
rightKerningGroup = L;
unicode = 004C;
},
{
glyphname = Lcaron;
layers = (
{
background = {
components = (
{
name = L;
}
);
paths = (
{
closed = 1;
nodes = (
"341 532 LINE",
"385 590 OFFCURVE",
"406 645 OFFCURVE",
"406 695 CURVE",
"375 690 LINE",
"375 640 OFFCURVE",
"363 597 OFFCURVE",
"326 536 CURVE"
);
}
);
};
components = (
{
name = L;
},
{
name = caroncomb.alt;
transform = "{1, 0, 0, 1, 314, -70}";
}
);
layerId = "075BA79B-D813-4287-A9DD-CCAF2D535ED3";
width = 547;
},
{
background = {
paths = (
{
closed = 1;
nodes = (
"465 483 LINE",
"529 561 OFFCURVE",
"561 641 OFFCURVE",
"562 714 CURVE",
"422 704 LINE",
"425 647 OFFCURVE",
"426 598 OFFCURVE",
"383 518 CURVE"
);
},
{
closed = 1;
nodes = (
"402 114 LINE",
"428 145 LINE",
"259 145 LINE",
"289 115 LINE",
"289 610 LINE",
"270 573 LINE",
"349 610 LINE",
"349 710 LINE",
"24 705 LINE",
"24 605 LINE",
"105 573 LINE",
"84 610 LINE",
"84 95 LINE",
"105 132 LINE",
"24 100 LINE",
"24 0 LINE",
"549 0 LINE",
"549 235 LINE",
"429 235 LINE"
);
}
);
};
components = (
{
name = L;
},
{
name = caroncomb.alt;
transform = "{1, 0, 0, 1, 368, -70}";
}
);
guideLines = (
{
angle = 90;
position = "{562, 569}";
}
);
layerId = "927AED37-E9E6-4F96-A08E-421C3785EFC6";
width = 564;
}
);
leftKerningGroup = H;
leftMetricsKey = L;
rightKerningGroup = Lcaron;
unicode = 013D;
},
{
glyphname = Lslash;
layers = (
{
background = {
paths = (
{
closed = 1;
nodes = (
"68 259 LINE",
"385 462 LINE",
"385 485 LINE",
"68 282 LINE"
);
}
);
};
guideLines = (
{
angle = 90;
position = "{79, 484}";
},
{
angle = 90;
position = "{69, 484}";
}
);
layerId = "075BA79B-D813-4287-A9DD-CCAF2D535ED3";
paths = (
{
closed = 1;
nodes = (
"78 245 LINE",
"395 448 LINE",
"386 465 LINE",
"69 262 LINE"
);
},
{
closed = 1;
nodes = (
"495 12 LINE",
"503 19 LINE",
"185 19 LINE",
"192 12 LINE",
"192 670 LINE",
"185 662 LINE",
"307 677 LINE",
"307 692 LINE",
"72 687 LINE",
"72 672 LINE",
"179 662 LINE",
"172 670 LINE",
"172 21 LINE",
"179 29 LINE",
"72 15 LINE",
"72 0 LINE",
"525 0 LINE",
"525 145 LINE",
"510 145 LINE"
);
}
);
width = 558;
},
{
background = {
paths = (
{
closed = 1;
nodes = (
"99 195 LINE",
"507 389 LINE",
"507 550 LINE",
"99 356 LINE"
);
},
{
closed = 1;
nodes = (
"72 212 LINE",
"480 406 LINE",
"439 515 LINE",
"31 321 LINE"
);
}
);
};
guideLines = (
{
angle = 90;
position = "{52, 445}";
},
{
angle = -0.7948;
position = "{74, 542}";
},
{
angle = 90;
position = "{42, 484}";
}
);
layerId = "927AED37-E9E6-4F96-A08E-421C3785EFC6";
paths = (
{
closed = 1;
nodes = (
"52 220 LINE",
"460 414 LINE",
"417 515 LINE",
"9 321 LINE"
);
},
{
closed = 1;
nodes = (
"430 114 LINE",
"456 145 LINE",
"287 145 LINE",
"317 115 LINE",
"317 610 LINE",
"298 573 LINE",
"380 610 LINE",
"380 710 LINE",
"52 705 LINE",
"52 605 LINE",
"133 573 LINE",
"112 610 LINE",
"112 95 LINE",
"133 132 LINE",
"52 100 LINE",
"52 0 LINE",
"577 0 LINE",
"577 245 LINE",
"457 245 LINE"
);
}
);
width = 592;
}
);
leftKerningGroup = H;
rightKerningGroup = L;
rightMetricsKey = L;
unicode = 0141;
},
{
glyphname = M;
layers = (
{
anchors = (
{
name = bottom;
position = "{455, 0}";
},
{
name = top;
position = "{455, 692}";
}
);
background = {
paths = (
{
closed = 1;
nodes = (
"180 664 LINE",
"161 664 LINE",
"161 28 LINE",
"180 28 LINE"
);
},
{
closed = 1;
nodes = (
"295 0 LINE",
"295 15 LINE",
"180 28 LINE",
"161 28 LINE",
"61 15 LINE",
"61 0 LINE"
);
},
{
closed = 1;
nodes = (
"849 0 LINE",
"849 15 LINE",
"749 28 LINE",
"729 28 LINE",
"614 15 LINE",
"614 0 LINE"
);
},
{
closed = 1;
nodes = (
"180 664 LINE",
"186 692 LINE",
"61 687 LINE",
"61 672 LINE",
"161 664 LINE"
);
},
{
closed = 1;
nodes = (
"749 664 LINE",
"849 677 LINE",
"849 692 LINE",
"724 687 LINE",
"729 664 LINE"
);
},
{
closed = 1;
nodes = (
"729 28 LINE",
"749 28 LINE",
"749 664 LINE",
"729 664 LINE"
);
},
{
closed = 1;
nodes = (
"745 683 LINE",
"724 687 LINE",
"445 191 LINE",
"458 191 LINE",
"186 692 LINE",
"164 687 LINE",
"441 178 LINE",
"461 182 LINE"
);
}
);
};
layerId = "075BA79B-D813-4287-A9DD-CCAF2D535ED3";
paths = (
{
closed = 1;
nodes = (
"849 692 LINE",
"724 687 LINE",
"449 197 LINE",
"455 197 LINE",
"186 692 LINE",
"61 687 LINE",
"61 672 LINE",
"168 663 LINE",
"161 671 LINE",
"161 21 LINE",
"168 29 LINE",
"61 15 LINE",
"61 0 LINE",
"281 0 LINE",
"281 15 LINE",
"173 29 LINE",
"181 21 LINE",
"181 665 LINE",
"177 664 LINE",
"441 178 LINE",
"461 182 LINE",
"732 661 LINE",
"729 662 LINE",
"729 21 LINE",
"736 29 LINE",
"629 15 LINE",
"629 0 LINE",
"849 0 LINE",
"849 15 LINE",
"742 29 LINE",
"749 21 LINE",
"749 671 LINE",
"742 663 LINE",
"849 677 LINE"
);
}
);
width = 909;
},
{
anchors = (
{
name = bottom;
position = "{428, 0}";
},
{
name = top;
position = "{428, 710}";
}
);
layerId = "927AED37-E9E6-4F96-A08E-421C3785EFC6";
paths = (
{
closed = 1;
nodes = (
"831 710 LINE",
"547 705 LINE",
"425 383 LINE",
"448 383 LINE",
"335 710 LINE",
"24 705 LINE",
"24 605 LINE",
"110 571 LINE",
"84 620 LINE",
"84 95 LINE",
"110 134 LINE",
"24 100 LINE",
"24 0 LINE",
"308 0 LINE",
"308 100 LINE",
"227 131 LINE",
"247 95 LINE",
"247 496 LINE",
"218 496 LINE",
"350 178 LINE",
"475 183 LINE",
"614 495 LINE",
"583 496 LINE",
"583 95 LINE",
"615 135 LINE",
"523 100 LINE",
"523 0 LINE",
"831 0 LINE",
"831 100 LINE",
"745 134 LINE",
"771 95 LINE",
"771 620 LINE",
"745 569 LINE",
"831 610 LINE"
);
}
);
width = 855;
}
);
leftKerningGroup = H;
rightKerningGroup = H;
unicode = 004D;
},
{
glyphname = N;
layers = (
{
anchors = (
{
name = bottom;
position = "{413, 0}";
},
{
name = top;
position = "{420, 692}";
}
);
background = {
paths = (
{
closed = 1;
nodes = (
"661 13 LINE",
"186 692 LINE",
"164 687 LINE",
"644 0 LINE"
);
},
{
closed = 1;
nodes = (
"296 0 LINE",
"296 15 LINE",
"181 28 LINE",
"161 28 LINE",
"61 15 LINE",
"61 0 LINE"
);
},
{
closed = 1;
nodes = (
"181 28 LINE",
"181 664 LINE",
"161 664 LINE",
"161 28 LINE"
);
},
{
closed = 1;
nodes = (
"181 664 LINE",
"186 692 LINE",
"61 687 LINE",
"61 672 LINE",
"161 664 LINE"
);
},
{
closed = 1;
nodes = (
"664 0 LINE",
"664 664 LINE",
"644 665 LINE",
"644 0 LINE"
);
},
{
closed = 1;
nodes = (
"664 664 LINE",
"764 677 LINE",
"764 692 LINE",
"529 687 LINE",
"529 672 LINE",
"644 665 LINE"
);
}
);
};
layerId = "075BA79B-D813-4287-A9DD-CCAF2D535ED3";
paths = (
{
closed = 1;
nodes = (
"544 672 LINE",
"651 665 LINE",
"644 672 LINE",
"644 30 LINE",
"648 31 LINE",
"186 692 LINE",
"61 687 LINE",
"61 672 LINE",
"168 663 LINE",
"161 671 LINE",
"161 21 LINE",
"168 29 LINE",
"61 15 LINE",
"61 0 LINE",
"281 0 LINE",
"281 15 LINE",
"174 29 LINE",
"181 21 LINE",
"181 670 LINE",
"177 669 LINE",
"644 0 LINE",
"664 0 LINE",
"664 671 LINE",
"657 663 LINE",
"764 677 LINE",
"764 692 LINE",
"544 687 LINE"
);
}
);
width = 812;
},
{
anchors = (
{
name = bottom;
position = "{382, 0}";
},
{
name = top;
position = "{387, 710}";
}
);
background = {
paths = (
{
closed = 1;
nodes = (
"667 0 LINE",
"317 710 LINE",
"175 569 LINE",
"448 0 LINE"
);
},
{
closed = 1;
nodes = (
"319 0 LINE",
"319 100 LINE",
"249 125 LINE",
"84 125 LINE",
"14 100 LINE",
"14 0 LINE"
);
},
{
closed = 1;
nodes = (
"249 125 LINE",
"249 581 LINE",
"84 580 LINE",
"84 125 LINE"
);
},
{
closed = 1;
nodes = (
"249 581 LINE",
"317 710 LINE",
"14 705 LINE",
"14 605 LINE",
"84 580 LINE"
);
},
{
closed = 1;
nodes = (
"680 0 LINE",
"680 581 LINE",
"515 580 LINE",
"515 0 LINE"
);
},
{
closed = 1;
nodes = (
"680 581 LINE",
"750 610 LINE",
"750 710 LINE",
"445 705 LINE",
"445 605 LINE",
"515 580 LINE"
);
}
);
};
layerId = "927AED37-E9E6-4F96-A08E-421C3785EFC6";
paths = (
{
closed = 1;
nodes = (
"452 605 LINE",
"541 570 LINE",
"512 610 LINE",
"512 228 LINE",
"541 228 LINE",
"327 710 LINE",
"24 705 LINE",
"24 605 LINE",
"102 574 LINE",
"84 610 LINE",
"84 95 LINE",
"113 135 LINE",
"24 100 LINE",
"24 0 LINE",
"312 0 LINE",
"312 100 LINE",
"223 135 LINE",
"252 95 LINE",
"252 495 LINE",
"224 495 LINE",
"443 0 LINE",
"680 0 LINE",
"680 611 LINE",
"653 570 LINE",
"740 610 LINE",
"740 710 LINE",
"452 705 LINE"
);
}
);
width = 752;
}
);
leftKerningGroup = H;
rightKerningGroup = H;
unicode = 004E;
},
{
glyphname = Eng;
layers = (
{
background = {
paths = (
{
closed = 1;
nodes = (
"597 -237 OFFCURVE",
"664 -213 OFFCURVE",
"664 -108 CURVE SMOOTH",
"664 671 LINE",
"657 663 LINE",
"764 677 LINE",
"764 692 LINE",
"529 687 LINE",
"529 671 LINE",
"651 665 LINE",
"644 672 LINE",
"644 28 LINE",
"648 29 LINE",
"186 692 LINE",
"61 687 LINE",
"61 672 LINE",
"168 663 LINE",
"161 671 LINE",
"161 21 LINE",
"168 29 LINE",
"61 15 LINE",
"61 0 LINE",
"296 0 LINE",
"296 15 LINE",
"174 29 LINE",
"181 21 LINE",
"181 670 LINE",
"177 669 LINE",
"648 -9 LINE",
"644 4 LINE",
"644 -108 LINE SMOOTH",
"644 -192 OFFCURVE",
"604 -218 OFFCURVE",
"526 -218 CURVE SMOOTH",
"497 -218 LINE",
"495 -235 LINE",
"507 -236 OFFCURVE",
"519 -237 OFFCURVE",
"532 -237 CURVE SMOOTH"
);
}
);
};
layerId = "075BA79B-D813-4287-A9DD-CCAF2D535ED3";
paths = (
{
closed = 1;
nodes = (
"597 -236 OFFCURVE",
"664 -212 OFFCURVE",
"664 -107 CURVE SMOOTH",
"664 671 LINE",
"657 663 LINE",
"764 677 LINE",
"764 692 LINE",
"529 687 LINE",
"529 671 LINE",
"651 665 LINE",
"644 672 LINE",
"644 28 LINE",
"648 29 LINE",
"186 692 LINE",
"61 687 LINE",
"61 672 LINE",
"168 663 LINE",
"161 671 LINE",
"161 21 LINE",
"168 29 LINE",
"61 15 LINE",
"61 0 LINE",
"296 0 LINE",
"296 15 LINE",
"174 29 LINE",
"181 21 LINE",
"181 670 LINE",
"177 669 LINE",
"648 -9 LINE",
"644 4 LINE",
"644 -107 LINE SMOOTH",
"644 -185 OFFCURVE",
"609 -217 OFFCURVE",
"532 -217 CURVE SMOOTH",
"521 -217 OFFCURVE",
"510 -216 OFFCURVE",
"497 -215 CURVE",
"495 -234 LINE",
"507 -235 OFFCURVE",
"519 -236 OFFCURVE",
"532 -236 CURVE SMOOTH"
);
}
);
width = 812;
},
{
background = {
paths = (
{
closed = 1;
nodes = (
"690 -209 OFFCURVE",
"690 6 CURVE SMOOTH",
"690 611 LINE",
"663 570 LINE",
"760 610 LINE",
"760 710 LINE",
"455 705 LINE",
"455 605 LINE",
"554 570 LINE",
"525 610 LINE",
"525 258 LINE",
"550 258 LINE",
"327 710 LINE",
"24 705 LINE",
"24 605 LINE",
"112 574 LINE",
"94 610 LINE",
"94 95 LINE",
"123 135 LINE",
"24 100 LINE",
"24 0 LINE",
"329 0 LINE",
"329 100 LINE",
"230 135 LINE",
"259 95 LINE",
"259 465 LINE",
"235 465 LINE",
"500 -21 LINE",
"489 35 LINE",
"489 -22 LINE SMOOTH",
"489 -92 OFFCURVE",
"455 -107 OFFCURVE",
"364 -97 CURVE",
"349 -237 LINE",
"515 -269 OFFCURVE"
);
}
);
};
layerId = "927AED37-E9E6-4F96-A08E-421C3785EFC6";
paths = (
{
closed = 1;
nodes = (
"568 -245 OFFCURVE",
"690 -174 OFFCURVE",
"690 6 CURVE SMOOTH",
"690 611 LINE",
"663 570 LINE",
"760 610 LINE",
"760 710 LINE",
"455 705 LINE",
"455 605 LINE",
"554 570 LINE",
"525 610 LINE",
"525 258 LINE",
"550 258 LINE",
"327 710 LINE",
"24 705 LINE",
"24 605 LINE",
"112 574 LINE",
"94 610 LINE",
"94 95 LINE",
"123 135 LINE",
"24 100 LINE",
"24 0 LINE",
"329 0 LINE",
"329 100 LINE",
"230 135 LINE",
"259 95 LINE",
"259 465 LINE",
"235 465 LINE",
"500 -21 LINE",
"489 35 LINE",
"489 -22 LINE SMOOTH",
"489 -79 OFFCURVE",
"466 -100 OFFCURVE",
"408 -100 CURVE SMOOTH",
"395 -100 OFFCURVE",
"380 -99 OFFCURVE",
"364 -97 CURVE",
"349 -237 LINE",
"376 -242 OFFCURVE",
"404 -245 OFFCURVE",
"432 -245 CURVE SMOOTH"
);
}
);
width = 775;
}
);
leftKerningGroup = H;
leftMetricsKey = N;
rightKerningGroup = U;
rightMetricsKey = J;
unicode = 014A;
},
{
glyphname = O;
layers = (
{
anchors = (
{
name = bottom;
position = "{379, 0}";
},
{
name = center;
position = "{379, 346}";
},
{
name = ogonek;
position = "{431, 0}";
},
{
name = top;
position = "{383, 692}";
},
{
name = topleft;
position = "{13, 692}";
},
{
name = topright;
position = "{594, 692}";
}
);
background = {
anchors = (
{
name = bottom;
position = "{379, 0}";
},
{
name = center;
position = "{379, 346}";
},
{
name = ogonek;
position = "{432, 0}";
},
{
name = top;
position = "{383, 692}";
},
{
name = topleft;
position = "{13, 692}";
},
{
name = topright;
position = "{594, 650}";
}
);
paths = (
{
closed = 1;
nodes = (
"536 -6 OFFCURVE",
"679 123 OFFCURVE",
"679 356 CURVE SMOOTH",
"679 591 OFFCURVE",
"534 698 OFFCURVE",
"383 698 CURVE SMOOTH",
"225 698 OFFCURVE",
"79 581 OFFCURVE",
"79 341 CURVE SMOOTH",
"79 107 OFFCURVE",
"217 -6 OFFCURVE",
"371 -6 CURVE SMOOTH"
);
},
{
closed = 1;
nodes = (
"229 14 OFFCURVE",
"101 121 OFFCURVE",
"101 342 CURVE SMOOTH",
"101 568 OFFCURVE",
"235 678 OFFCURVE",
"382 678 CURVE SMOOTH",
"527 678 OFFCURVE",
"657 570 OFFCURVE",
"657 353 CURVE SMOOTH",
"657 129 OFFCURVE",
"520 14 OFFCURVE",
"372 14 CURVE SMOOTH"
);
}
);
};
guideLines = (
{
angle = 90;
position = "{73, 854}";
},
{
angle = 90;
position = "{685, 854}";
},
{
angle = 90;
position = "{379, 661}";
}
);
layerId = "075BA79B-D813-4287-A9DD-CCAF2D535ED3";
paths = (
{
closed = 1;
nodes = (
"536 -6 OFFCURVE",
"679 123 OFFCURVE",
"679 356 CURVE SMOOTH",
"679 591 OFFCURVE",
"533 698 OFFCURVE",
"383 698 CURVE SMOOTH",
"225 698 OFFCURVE",
"79 581 OFFCURVE",
"79 341 CURVE SMOOTH",
"79 107 OFFCURVE",
"217 -6 OFFCURVE",
"371 -6 CURVE SMOOTH"
);
},
{
closed = 1;
nodes = (
"229 14 OFFCURVE",
"101 121 OFFCURVE",
"101 342 CURVE SMOOTH",
"101 568 OFFCURVE",
"235 678 OFFCURVE",
"382 678 CURVE SMOOTH",
"527 678 OFFCURVE",
"657 570 OFFCURVE",
"657 353 CURVE SMOOTH",
"657 129 OFFCURVE",
"520 14 OFFCURVE",
"372 14 CURVE SMOOTH"
);
}
);
width = 757;
},
{
anchors = (
{
name = bottom;
position = "{360, 0}";
},
{
name = center;
position = "{360, 355}";
},
{
name = ogonek;
position = "{458, 0}";
},
{
name = top;
position = "{363, 710}";
},
{
name = topleft;
position = "{25, 710}";
},
{
name = topright;
position = "{546, 710}";
}
);
background = {
paths = (
{
closed = 1;
nodes = (
"566 -15 OFFCURVE",
"698 133 OFFCURVE",
"698 370 CURVE SMOOTH",
"698 594 OFFCURVE",
"583 725 OFFCURVE",
"368 725 CURVE SMOOTH",
"153 725 OFFCURVE",
"23 595 OFFCURVE",
"23 344 CURVE SMOOTH",
"23 113 OFFCURVE",
"135 -15 OFFCURVE",
"343 -15 CURVE SMOOTH"
);
},
{
closed = 1;
nodes = (
"274 140 OFFCURVE",
"243 193 OFFCURVE",
"243 351 CURVE SMOOTH",
"243 531 OFFCURVE",
"283 570 OFFCURVE",
"359 570 CURVE SMOOTH",
"443 570 OFFCURVE",
"478 524 OFFCURVE",
"478 362 CURVE SMOOTH",
"478 182 OFFCURVE",
"433 140 OFFCURVE",
"358 140 CURVE SMOOTH"
);
}
);
};
guideLines = (
{
angle = 90;
position = "{360, 764}";
}
);
layerId = "927AED37-E9E6-4F96-A08E-421C3785EFC6";
paths = (
{
closed = 1;
nodes = (
"566 -15 OFFCURVE",
"698 133 OFFCURVE",
"698 370 CURVE SMOOTH",
"698 594 OFFCURVE",
"583 725 OFFCURVE",
"368 725 CURVE SMOOTH",
"153 725 OFFCURVE",
"23 595 OFFCURVE",
"23 344 CURVE SMOOTH",
"23 113 OFFCURVE",
"135 -15 OFFCURVE",
"343 -15 CURVE SMOOTH"
);
},
{
closed = 1;
nodes = (
"274 140 OFFCURVE",
"243 193 OFFCURVE",
"243 351 CURVE SMOOTH",
"243 531 OFFCURVE",
"283 570 OFFCURVE",
"359 570 CURVE SMOOTH",
"443 570 OFFCURVE",
"478 524 OFFCURVE",
"478 362 CURVE SMOOTH",
"478 182 OFFCURVE",
"433 140 OFFCURVE",
"358 140 CURVE SMOOTH"
);
}
);
width = 720;
}
);
leftKerningGroup = O;
rightKerningGroup = O;
unicode = 004F;
},
{
glyphname = Ocircumflexacute;
layers = (
{
components = (
{
name = O;
},
{
name = circumflexcomb_acutecomb.case;
transform = "{1, 0, 0, 1, 146, 0}";
}
);
guideLines = (
{
angle = 90;
position = "{386, 594}";
}
);
layerId = "075BA79B-D813-4287-A9DD-CCAF2D535ED3";
width = 757;
},
{
background = {
anchors = (
{
name = _top;
position = "{354, 710}";
},
{
name = bottom;
position = "{354, 0}";
},
{
name = center;
position = "{354, 355}";
},
{
name = ogonek;
position = "{452, 0}";
},
{
name = top;
position = "{354, 710}";
},
{
name = topleft;
position = "{19, 710}";
},
{
name = topright;
position = "{573, 679}";
}
);
paths = (
{
closed = 1;
nodes = (
"560 -15 OFFCURVE",
"692 133 OFFCURVE",
"692 370 CURVE SMOOTH",
"692 594 OFFCURVE",
"577 725 OFFCURVE",
"362 725 CURVE SMOOTH",
"147 725 OFFCURVE",
"17 595 OFFCURVE",
"17 344 CURVE SMOOTH",
"17 113 OFFCURVE",
"129 -15 OFFCURVE",
"337 -15 CURVE SMOOTH"
);
},
{
closed = 1;
nodes = (
"268 140 OFFCURVE",
"237 193 OFFCURVE",
"237 351 CURVE SMOOTH",
"237 531 OFFCURVE",
"277 570 OFFCURVE",
"353 570 CURVE SMOOTH",
"437 570 OFFCURVE",
"472 524 OFFCURVE",
"472 362 CURVE SMOOTH",
"472 182 OFFCURVE",
"427 140 OFFCURVE",
"352 140 CURVE SMOOTH"
);
},
{
closed = 1;
nodes = (
"422 862 LINE",
"281 864 LINE",
"506 732 LINE",
"571 808 LINE",
"405 961 LINE",
"293 950 LINE",
"141 808 LINE",
"204 732 LINE"
);
},
{
closed = 1;
nodes = (
"749.577 993.557 LINE",
"657.875 1101.215 LINE",
"484.274 940.952 LINE",
"555.707 858.77 LINE"
);
}
);
};
components = (
{
name = O;
},
{
name = circumflexcomb_acutecomb.case;
transform = "{1, 0, 0, 1, 115, 0}";
}
);
layerId = "927AED37-E9E6-4F96-A08E-421C3785EFC6";
width = 720;
}
);
leftKerningGroup = O;
rightKerningGroup = O;
unicode = 1ED0;
},
{
glyphname = Ohorn;
layers = (
{
anchors = (
{
name = bottom;
position = "{379, 0}";
},
{
name = top;
position = "{383, 692}";
}
);
background = {
components = (
{
name = O;
},
{
name = horncomb.case;
transform = "{1, 0, 0, 1, 492, 0}";
}
);
};
guideLines = (
{
position = "{73, 821}";
}
);
layerId = "075BA79B-D813-4287-A9DD-CCAF2D535ED3";
paths = (
{
closed = 1;
nodes = (
"536 -6 OFFCURVE",
"679 123 OFFCURVE",
"679 356 CURVE SMOOTH",
"679 591 OFFCURVE",
"533 698 OFFCURVE",
"383 698 CURVE SMOOTH",
"225 698 OFFCURVE",
"79 581 OFFCURVE",
"79 341 CURVE SMOOTH",
"79 107 OFFCURVE",
"217 -6 OFFCURVE",
"371 -6 CURVE SMOOTH"
);
},
{
closed = 1;
nodes = (
"229 14 OFFCURVE",
"101 121 OFFCURVE",
"101 342 CURVE SMOOTH",
"101 568 OFFCURVE",
"235 678 OFFCURVE",
"382 678 CURVE SMOOTH",
"527 678 OFFCURVE",
"657 570 OFFCURVE",
"657 353 CURVE SMOOTH",
"657 129 OFFCURVE",
"520 14 OFFCURVE",
"372 14 CURVE SMOOTH"
);
},
{
closed = 1;
nodes = (
"619 651 OFFCURVE",
"684 690 OFFCURVE",
"684 751 CURVE SMOOTH",
"684 768 OFFCURVE",
"680 793 OFFCURVE",
"670 821 CURVE",
"650 814 LINE",
"658 790 OFFCURVE",
"662 767 OFFCURVE",
"662 754 CURVE SMOOTH",
"662 698 OFFCURVE",
"597 668 OFFCURVE",
"497 667 CURVE",
"527 648 LINE"
);
}
);
width = 769;
},
{
anchors = (
{
name = bottom;
position = "{360, 0}";
},
{
name = top;
position = "{363, 710}";
}
);
background = {
components = (
{
name = O;
},
{
alignment = -1;
name = horncomb.case;
transform = "{1, 0, 0, 1, 477, 0}";
}
);
};
guideLines = (
{
position = "{73, 867}";
}
);
layerId = "927AED37-E9E6-4F96-A08E-421C3785EFC6";
paths = (
{
closed = 1;
nodes = (
"566 -15 OFFCURVE",
"698 133 OFFCURVE",
"698 370 CURVE SMOOTH",
"698 594 OFFCURVE",
"583 725 OFFCURVE",
"368 725 CURVE SMOOTH",
"153 725 OFFCURVE",
"23 595 OFFCURVE",
"23 344 CURVE SMOOTH",
"23 113 OFFCURVE",
"135 -15 OFFCURVE",
"343 -15 CURVE SMOOTH"
);
},
{
closed = 1;
nodes = (
"274 140 OFFCURVE",
"243 193 OFFCURVE",
"243 351 CURVE SMOOTH",
"243 531 OFFCURVE",
"283 570 OFFCURVE",
"359 570 CURVE SMOOTH",
"443 570 OFFCURVE",
"478 524 OFFCURVE",
"478 362 CURVE SMOOTH",
"478 182 OFFCURVE",
"433 140 OFFCURVE",
"358 140 CURVE SMOOTH"
);
},
{
closed = 1;
nodes = (
"642 613 OFFCURVE",
"718 662 OFFCURVE",
"718 751 CURVE SMOOTH",
"718 785 OFFCURVE",
"707 823 OFFCURVE",
"685 867 CURVE",
"543 837 LINE",
"554 805 OFFCURVE",
"561 781 OFFCURVE",
"561 762 CURVE SMOOTH",
"561 722 OFFCURVE",
"534 707 OFFCURVE",
"472 707 CURVE",
"514 618 LINE"
);
}
);
width = 732;
}
);
leftKerningGroup = O;
leftMetricsKey = O;
rightKerningGroup = O;
unicode = 01A0;
},
{
glyphname = Oslash;
layers = (
{
anchors = (
{
name = top;
position = "{383, 692}";
}
);
background = {
anchors = (
{
name = bottom;
position = "{370, 0}";
},
{
name = center;
position = "{392, 345}";
},
{
name = ogonek;
position = "{671, 10}";
},
{
name = top;
position = "{370, 691}";
},
{
name = topleft;
position = "{12, 691}";
},
{
name = topright;
position = "{727, 691}";
}
);
guideLines = (
{
angle = 90;
position = "{392, 592}";
}
);
paths = (
{
closed = 1;
nodes = (
"552 -6 OFFCURVE",
"695 123 OFFCURVE",
"695 357 CURVE SMOOTH",
"695 591 OFFCURVE",
"550 698 OFFCURVE",
"399 698 CURVE SMOOTH",
"241 698 OFFCURVE",
"95 581 OFFCURVE",
"95 341 CURVE SMOOTH",
"95 107 OFFCURVE",
"233 -6 OFFCURVE",
"387 -6 CURVE SMOOTH"
);
},
{
closed = 1;
nodes = (
"245 14 OFFCURVE",
"117 121 OFFCURVE",
"117 342 CURVE SMOOTH",
"117 568 OFFCURVE",
"251 678 OFFCURVE",
"398 678 CURVE SMOOTH",
"543 678 OFFCURVE",
"673 570 OFFCURVE",
"673 353 CURVE SMOOTH",
"673 129 OFFCURVE",
"536 14 OFFCURVE",
"388 14 CURVE SMOOTH"
);
},
{
closed = 1;
nodes = (
"124 -59 LINE",
"141 -70 LINE",
"661 752 LINE",
"644 762 LINE"
);
}
);
};
guideLines = (
{
angle = 90;
position = "{392, 592}";
}
);
layerId = "075BA79B-D813-4287-A9DD-CCAF2D535ED3";
paths = (
{
closed = 1;
nodes = (
"551 638 LINE",
"546 629 LINE",
"195 76 LINE",
"190 68 LINE",
"110 -59 LINE",
"127 -70 LINE",
"206 55 LINE",
"210 62 LINE",
"562 619 LINE",
"567 626 LINE",
"647 752 LINE",
"630 762 LINE"
);
},
{
closed = 1;
nodes = (
"536 -6 OFFCURVE",
"679 123 OFFCURVE",
"679 356 CURVE SMOOTH",
"679 591 OFFCURVE",
"533 698 OFFCURVE",
"383 698 CURVE SMOOTH",
"225 698 OFFCURVE",
"79 581 OFFCURVE",
"79 341 CURVE SMOOTH",
"79 107 OFFCURVE",
"217 -6 OFFCURVE",
"371 -6 CURVE SMOOTH"
);
},
{
closed = 1;
nodes = (
"229 14 OFFCURVE",
"101 121 OFFCURVE",
"101 342 CURVE SMOOTH",
"101 568 OFFCURVE",
"235 678 OFFCURVE",
"382 678 CURVE SMOOTH",
"527 678 OFFCURVE",
"657 570 OFFCURVE",
"657 353 CURVE SMOOTH",
"657 129 OFFCURVE",
"520 14 OFFCURVE",
"372 14 CURVE SMOOTH"
);
}
);
width = 757;
},
{
anchors = (
{
name = top;
position = "{366, 710}";
}
);
background = {
paths = (
{
closed = 1;
nodes = (
"85 -15 LINE",
"215 -92 LINE",
"725 717 LINE",
"596 794 LINE"
);
}
);
};
layerId = "927AED37-E9E6-4F96-A08E-421C3785EFC6";
paths = (
{
closed = 1;
nodes = (
"483 663 LINE",
"477 643 LINE",
"168 154 LINE",
"149 133 LINE",
"51 -22 LINE",
"154 -83 LINE",
"253 75 LINE",
"263 100 LINE",
"559 571 LINE",
"588 607 LINE",
"665 729 LINE",
"563 790 LINE"
);
},
{
closed = 1;
nodes = (
"569 -15 OFFCURVE",
"701 133 OFFCURVE",
"701 370 CURVE SMOOTH",
"701 594 OFFCURVE",
"586 725 OFFCURVE",
"371 725 CURVE SMOOTH",
"156 725 OFFCURVE",
"26 595 OFFCURVE",
"26 344 CURVE SMOOTH",
"26 113 OFFCURVE",
"138 -15 OFFCURVE",
"346 -15 CURVE SMOOTH"
);
},
{
closed = 1;
nodes = (
"277 140 OFFCURVE",
"246 193 OFFCURVE",
"246 351 CURVE SMOOTH",
"246 531 OFFCURVE",
"286 570 OFFCURVE",
"362 570 CURVE SMOOTH",
"446 570 OFFCURVE",
"481 524 OFFCURVE",
"481 362 CURVE SMOOTH",
"481 182 OFFCURVE",
"436 140 OFFCURVE",
"361 140 CURVE SMOOTH"
);
}
);
width = 724;
}
);
leftKerningGroup = O;
rightKerningGroup = O;
unicode = 00D8;
},
{
glyphname = Otildeacute;
layers = (
{
components = (
{
name = O;
},
{
name = tildecomb_acutecomb.case;
transform = "{1, 0, 0, 1, 143, 0}";
}
);
layerId = "075BA79B-D813-4287-A9DD-CCAF2D535ED3";
width = 757;
},
{
background = {
anchors = (
{
name = _top;
position = "{355, 701}";
},
{
name = top;
position = "{355, 943}";
}
);
paths = (
{
closed = 1;
nodes = (
"244 789 OFFCURVE",
"258 803 OFFCURVE",
"279 803 CURVE SMOOTH",
"315 803 OFFCURVE",
"380 760 OFFCURVE",
"432 760 CURVE SMOOTH",
"492 760 OFFCURVE",
"537 802 OFFCURVE",
"566 904 CURVE",
"484 939 LINE",
"464 907 OFFCURVE",
"447 892 OFFCURVE",
"423 892 CURVE SMOOTH",
"383 892 OFFCURVE",
"322 936 OFFCURVE",
"267 936 CURVE SMOOTH",
"210 936 OFFCURVE",
"171 894 OFFCURVE",
"143 794 CURVE",
"223 758 LINE"
);
},
{
closed = 1;
nodes = (
"514.69 1038.914 LINE",
"447.654 1182.341 LINE",
"190.643 1043.226 LINE",
"233.334 947.678 LINE"
);
}
);
};
components = (
{
name = O;
},
{
name = tildecomb_acutecomb.case;
transform = "{1, 0, 0, 1, 120, 0}";
}
);
layerId = "927AED37-E9E6-4F96-A08E-421C3785EFC6";
width = 720;
}
);
leftKerningGroup = O;
rightKerningGroup = O;
unicode = 1E4C;
},
{
glyphname = OE;
layers = (
{
anchors = (
{
name = bottom;
position = "{477, 0}";
},
{
name = top;
position = "{477, 692}";
}
);
background = {
paths = (
{
closed = 1;
nodes = (
"390 -3 OFFCURVE",
"443 0 OFFCURVE",
"467 0 CURVE SMOOTH",
"850 0 LINE",
"833 19 LINE",
"486 19 LINE",
"486 673 LINE",
"812 673 LINE",
"837 692 LINE",
"487 692 LINE SMOOTH",
"467 692 OFFCURVE",
"405 695 OFFCURVE",
"379 695 CURVE SMOOTH",
"219 695 OFFCURVE",
"79 580 OFFCURVE",
"79 339 CURVE SMOOTH",
"79 107 OFFCURVE",
"212 -3 OFFCURVE",
"365 -3 CURVE SMOOTH"
);
},
{
closed = 1;
nodes = (
"222 18 OFFCURVE",
"101 120 OFFCURVE",
"101 339 CURVE SMOOTH",
"101 567 OFFCURVE",
"229 675 OFFCURVE",
"380 675 CURVE SMOOTH",
"401 675 OFFCURVE",
"449 673 OFFCURVE",
"466 672 CURVE",
"466 21 LINE",
"446 19 OFFCURVE",
"389 18 OFFCURVE",
"374 18 CURVE SMOOTH"
);
},
{
closed = 1;
nodes = (
"850 141 LINE",
"835 141 LINE",
"820 12 LINE",
"850 0 LINE"
);
},
{
closed = 1;
nodes = (
"769 359 LINE",
"769 378 LINE",
"478 378 LINE",
"478 359 LINE"
);
},
{
closed = 1;
nodes = (
"837 556 LINE",
"837 692 LINE",
"807 680 LINE",
"822 556 LINE"
);
}
);
};
layerId = "075BA79B-D813-4287-A9DD-CCAF2D535ED3";
paths = (
{
closed = 1;
nodes = (
"403 -2 OFFCURVE",
"454 0 OFFCURVE",
"471 0 CURVE SMOOTH",
"850 0 LINE",
"850 141 LINE",
"835 141 LINE",
"820 12 LINE",
"828 19 LINE",
"479 19 LINE",
"486 12 LINE",
"486 366 LINE",
"479 359 LINE",
"769 359 LINE",
"769 378 LINE",
"479 378 LINE",
"486 371 LINE",
"486 680 LINE",
"479 673 LINE",
"815 673 LINE",
"807 680 LINE",
"822 556 LINE",
"837 556 LINE",
"837 692 LINE",
"487 692 LINE SMOOTH",
"469 692 OFFCURVE",
"410 694 OFFCURVE",
"383 694 CURVE SMOOTH",
"218 694 OFFCURVE",
"79 580 OFFCURVE",
"79 340 CURVE SMOOTH",
"79 107 OFFCURVE",
"210 -2 OFFCURVE",
"367 -2 CURVE SMOOTH"
);
},
{
closed = 1;
nodes = (
"469 21 LINE",
"452 19 OFFCURVE",
"401 18 OFFCURVE",
"375 18 CURVE SMOOTH",
"218 18 OFFCURVE",
"101 120 OFFCURVE",
"101 340 CURVE SMOOTH",
"101 567 OFFCURVE",
"227 674 OFFCURVE",
"387 674 CURVE SMOOTH",
"409 674 OFFCURVE",
"456 673 OFFCURVE",
"470 672 CURVE",
"466 679 LINE",
"466 14 LINE"
);
}
);
width = 934;
},
{
anchors = (
{
name = bottom;
position = "{539, 0}";
},
{
name = top;
position = "{539, 710}";
}
);
background = {
paths = (
{
closed = 1;
nodes = (
"758 115 LINE",
"795 145 LINE",
"598 145 LINE",
"628 115 LINE",
"628 325 LINE",
"598 295 LINE",
"807 295 LINE",
"807 430 LINE",
"598 430 LINE",
"628 400 LINE",
"628 595 LINE",
"598 565 LINE",
"783 565 LINE",
"747 591 LINE",
"770 508 LINE",
"890 508 LINE",
"890 710 LINE",
"623 710 LINE",
"363 705 LINE",
"363 605 LINE",
"447 572 LINE",
"423 610 LINE",
"423 95 LINE",
"448 134 LINE",
"363 100 LINE",
"363 0 LINE",
"900 0 LINE",
"902 211 LINE",
"782 211 LINE"
);
}
);
};
layerId = "927AED37-E9E6-4F96-A08E-421C3785EFC6";
paths = (
{
closed = 1;
nodes = (
"400 -7 OFFCURVE",
"525 0 OFFCURVE",
"570 0 CURVE SMOOTH",
"905 0 LINE",
"907 211 LINE",
"787 211 LINE",
"763 115 LINE",
"800 145 LINE",
"608 145 LINE",
"638 115 LINE",
"638 320 LINE",
"608 290 LINE",
"812 290 LINE",
"812 430 LINE",
"608 430 LINE",
"638 400 LINE",
"638 595 LINE",
"608 565 LINE",
"788 565 LINE",
"752 591 LINE",
"775 508 LINE",
"895 508 LINE",
"895 710 LINE",
"634 710 LINE SMOOTH",
"593 710 OFFCURVE",
"441 716 OFFCURVE",
"387 716 CURVE SMOOTH",
"151 716 OFFCURVE",
"23 601 OFFCURVE",
"23 346 CURVE SMOOTH",
"23 112 OFFCURVE",
"131 -7 OFFCURVE",
"347 -7 CURVE SMOOTH"
);
},
{
closed = 1;
nodes = (
"466 159 LINE",
"459 157 OFFCURVE",
"407 147 OFFCURVE",
"364 147 CURVE SMOOTH",
"274 147 OFFCURVE",
"243 190 OFFCURVE",
"243 353 CURVE SMOOTH",
"243 536 OFFCURVE",
"282 561 OFFCURVE",
"375 561 CURVE SMOOTH",
"417 561 OFFCURVE",
"441 556 OFFCURVE",
"476 551 CURVE",
"433 606 LINE",
"433 103 LINE"
);
}
);
width = 940;
}
);
leftKerningGroup = O;
leftMetricsKey = O;
rightKerningGroup = E;
rightMetricsKey = E;
unicode = 0152;
},
{
glyphname = P;
layers = (
{
anchors = (
{
name = bottom;
position = "{171, 0}";
},
{
name = top;
position = "{291, 692}";
}
);
background = {
paths = (
{
closed = 1;
nodes = (
"270 285 LINE SMOOTH",
"429 285 OFFCURVE",
"522 365 OFFCURVE",
"522 500 CURVE SMOOTH",
"522 619 OFFCURVE",
"448 692 OFFCURVE",
"307 692 CURVE SMOOTH",
"182 692 LINE",
"61 687 LINE",
"61 672 LINE",
"161 664 LINE",
"181 673 LINE",
"305 673 LINE SMOOTH",
"433 673 OFFCURVE",
"500 607 OFFCURVE",
"500 499 CURVE SMOOTH",
"500 377 OFFCURVE",
"416 304 OFFCURVE",
"271 304 CURVE SMOOTH",
"173 304 LINE",
"173 285 LINE"
);
},
{
closed = 1;
nodes = (
"306 0 LINE",
"306 15 LINE",
"181 28 LINE",
"161 28 LINE",
"61 15 LINE",
"61 0 LINE"
);
},
{
closed = 1;
nodes = (
"181 28 LINE",
"181 673 LINE",
"161 664 LINE",
"161 28 LINE"
);
}
);
};
layerId = "075BA79B-D813-4287-A9DD-CCAF2D535ED3";
paths = (
{
closed = 1;
nodes = (
"439 285 OFFCURVE",
"532 365 OFFCURVE",
"532 500 CURVE SMOOTH",
"532 619 OFFCURVE",
"458 692 OFFCURVE",
"317 692 CURVE SMOOTH",
"182 692 LINE",
"61 687 LINE",
"61 672 LINE",
"168 663 LINE",
"161 671 LINE",
"161 21 LINE",
"168 29 LINE",
"61 15 LINE",
"61 0 LINE",
"306 0 LINE",
"306 15 LINE",
"174 29 LINE",
"181 21 LINE",
"181 292 LINE",
"174 285 LINE",
"280 285 LINE SMOOTH"
);
},
{
closed = 1;
nodes = (
"443 673 OFFCURVE",
"510 607 OFFCURVE",
"510 499 CURVE SMOOTH",
"510 377 OFFCURVE",
"426 304 OFFCURVE",
"281 304 CURVE SMOOTH",
"174 304 LINE",
"181 297 LINE",
"181 680 LINE",
"174 673 LINE",
"315 673 LINE SMOOTH"
);
}
);
width = 581;
},
{
anchors = (
{
name = bottom;
position = "{187, 0}";
},
{
name = top;
position = "{308, 710}";
}
);
background = {
paths = (
{
closed = 1;
nodes = (
"330 231 LINE SMOOTH",
"542 231 OFFCURVE",
"629 346 OFFCURVE",
"629 479 CURVE SMOOTH",
"629 606 OFFCURVE",
"551 711 OFFCURVE",
"374 711 CURVE SMOOTH",
"293 711 LINE",
"14 705 LINE",
"14 605 LINE",
"84 582 LINE",
"289 566 LINE",
"344 566 LINE SMOOTH",
"395 566 OFFCURVE",
"421 532 OFFCURVE",
"421 476 CURVE SMOOTH",
"421 417 OFFCURVE",
"391 376 OFFCURVE",
"330 376 CURVE SMOOTH",
"265 376 LINE",
"265 231 LINE"
);
},
{
closed = 1;
nodes = (
"384 0 LINE",
"384 100 LINE",
"289 125 LINE",
"84 125 LINE",
"14 100 LINE",
"14 0 LINE"
);
},
{
closed = 1;
nodes = (
"289 125 LINE",
"289 566 LINE",
"84 582 LINE",
"84 125 LINE"
);
}
);
};
layerId = "927AED37-E9E6-4F96-A08E-421C3785EFC6";
paths = (
{
closed = 1;
nodes = (
"527 231 OFFCURVE",
"614 345 OFFCURVE",
"614 480 CURVE SMOOTH",
"614 605 OFFCURVE",
"539 710 OFFCURVE",
"362 710 CURVE SMOOTH",
"293 710 LINE",
"24 705 LINE",
"24 605 LINE",
"119 570 LINE",
"84 612 LINE",
"84 95 LINE",
"114 135 LINE",
"24 100 LINE",
"24 0 LINE",
"369 0 LINE",
"369 100 LINE",
"262 132 LINE",
"289 95 LINE",
"289 261 LINE",
"249 231 LINE",
"315 231 LINE SMOOTH"
);
},
{
closed = 1;
nodes = (
"380 566 OFFCURVE",
"406 532 OFFCURVE",
"406 476 CURVE SMOOTH",
"406 417 OFFCURVE",
"376 376 OFFCURVE",
"315 376 CURVE SMOOTH",
"249 376 LINE",
"289 346 LINE",
"289 596 LINE",
"259 566 LINE",
"329 566 LINE SMOOTH"
);
}
);
width = 625;
}
);
leftKerningGroup = H;
rightKerningGroup = P;
unicode = 0050;
},
{
glyphname = Thorn;
layers = (
{
anchors = (
{
name = bottom;
position = "{171, 0}";
},
{
name = top;
position = "{171, 692}";
}
);
background = {
paths = (
{
closed = 1;
nodes = (
"181 664 LINE",
"161 664 LINE",
"161 28 LINE",
"181 28 LINE"
);
},
{
closed = 1;
nodes = (
"306 0 LINE",
"306 15 LINE",
"181 28 LINE",
"161 28 LINE",
"61 15 LINE",
"61 0 LINE"
);
},
{
closed = 1;
nodes = (
"181 664 LINE",
"281 677 LINE",
"281 692 LINE",
"61 687 LINE",
"61 672 LINE",
"161 664 LINE"
);
},
{
closed = 1;
nodes = (
"265 162 LINE SMOOTH",
"424 162 OFFCURVE",
"517 242 OFFCURVE",
"517 378 CURVE SMOOTH",
"517 499 OFFCURVE",
"443 572 OFFCURVE",
"302 572 CURVE SMOOTH",
"177 572 LINE",
"176 553 LINE",
"300 553 LINE SMOOTH",
"428 553 OFFCURVE",
"495 487 OFFCURVE",
"495 377 CURVE SMOOTH",
"495 254 OFFCURVE",
"411 181 OFFCURVE",
"266 181 CURVE SMOOTH",
"168 181 LINE",
"168 162 LINE"
);
}
);
};
layerId = "075BA79B-D813-4287-A9DD-CCAF2D535ED3";
paths = (
{
closed = 1;
nodes = (
"306 0 LINE",
"306 15 LINE",
"174 29 LINE",
"181 21 LINE",
"181 156 LINE",
"174 149 LINE",
"265 149 LINE SMOOTH",
"424 149 OFFCURVE",
"517 229 OFFCURVE",
"517 365 CURVE SMOOTH",
"517 484 OFFCURVE",
"443 556 OFFCURVE",
"302 556 CURVE SMOOTH",
"174 556 LINE",
"181 549 LINE",
"181 671 LINE",
"174 663 LINE",
"281 677 LINE",
"281 692 LINE",
"61 687 LINE",
"61 672 LINE",
"168 663 LINE",
"161 671 LINE",
"161 21 LINE",
"168 29 LINE",
"61 15 LINE",
"61 0 LINE"
);
},
{
closed = 1;
nodes = (
"181 544 LINE",
"174 537 LINE",
"300 537 LINE SMOOTH",
"428 537 OFFCURVE",
"495 472 OFFCURVE",
"495 364 CURVE SMOOTH",
"495 241 OFFCURVE",
"411 168 OFFCURVE",
"266 168 CURVE SMOOTH",
"174 168 LINE",
"181 161 LINE"
);
}
);
width = 566;
},
{
anchors = (
{
name = bottom;
position = "{187, 0}";
},
{
name = top;
position = "{187, 710}";
}
);
background = {
paths = (
{
closed = 1;
nodes = (
"348 170 LINE SMOOTH",
"502 170 OFFCURVE",
"601 239 OFFCURVE",
"601 369 CURVE SMOOTH",
"601 495 OFFCURVE",
"513 547 OFFCURVE",
"388 547 CURVE SMOOTH",
"244 547 LINE",
"244 412 LINE",
"317 412 LINE SMOOTH",
"382 412 OFFCURVE",
"406 397 OFFCURVE",
"406 361 CURVE SMOOTH",
"406 315 OFFCURVE",
"365 305 OFFCURVE",
"302 305 CURVE SMOOTH",
"244 305 LINE",
"244 170 LINE"
);
},
{
closed = 1;
nodes = (
"360 710 LINE",
"15 705 LINE",
"15 605 LINE",
"109 571 LINE",
"85 600 LINE",
"85 105 LINE",
"102 131 LINE",
"15 100 LINE",
"15 0 LINE",
"385 0 LINE",
"385 100 LINE",
"271 132 LINE",
"290 105 LINE",
"290 600 LINE",
"271 567 LINE",
"360 610 LINE"
);
}
);
};
layerId = "927AED37-E9E6-4F96-A08E-421C3785EFC6";
paths = (
{
closed = 1;
nodes = (
"364 0 LINE",
"364 100 LINE",
"264 134 LINE",
"289 97 LINE",
"289 191 LINE",
"259 156 LINE",
"351 156 LINE SMOOTH",
"504 156 OFFCURVE",
"604 222 OFFCURVE",
"604 373 CURVE SMOOTH",
"604 506 OFFCURVE",
"527 559 OFFCURVE",
"391 559 CURVE SMOOTH",
"259 559 LINE",
"289 524 LINE",
"289 606 LINE",
"268 568 LINE",
"349 610 LINE",
"349 710 LINE",
"24 705 LINE",
"24 605 LINE",
"108 571 LINE",
"84 610 LINE",
"84 95 LINE",
"108 133 LINE",
"24 100 LINE",
"24 0 LINE"
);
},
{
closed = 1;
nodes = (
"289 449 LINE",
"259 419 LINE",
"320 419 LINE SMOOTH",
"357 419 OFFCURVE",
"399 419 OFFCURVE",
"399 360 CURVE SMOOTH",
"399 296 OFFCURVE",
"351 296 OFFCURVE",
"308 296 CURVE SMOOTH",
"259 296 LINE",
"289 266 LINE"
);
}
);
width = 615;
}
);
leftKerningGroup = H;
rightKerningGroup = P;
rightMetricsKey = P;
unicode = 00DE;
},
{
glyphname = Q;
layers = (
{
anchors = (
{
name = bottom;
position = "{385, 0}";
},
{
name = top;
position = "{385, 692}";
}
);
background = {
paths = (
{
closed = 1;
nodes = (
"785 -94 LINE",
"744 -116 OFFCURVE",
"703 -135 OFFCURVE",
"675 -135 CURVE SMOOTH",
"626 -135 OFFCURVE",
"543 -77 OFFCURVE",
"401 -2 CURVE",
"403 -5 LINE",
"563 8 OFFCURVE",
"691 135 OFFCURVE",
"691 356 CURVE SMOOTH",
"691 591 OFFCURVE",
"546 698 OFFCURVE",
"389 698 CURVE SMOOTH",
"225 698 OFFCURVE",
"79 581 OFFCURVE",
"79 341 CURVE SMOOTH",
"79 109 OFFCURVE",
"214 -4 OFFCURVE",
"373 -6 CURVE",
"362 -2 LINE",
"552 -106 OFFCURVE",
"622 -156 OFFCURVE",
"671 -156 CURVE SMOOTH",
"705 -156 OFFCURVE",
"749 -132 OFFCURVE",
"795 -109 CURVE"
);
},
{
closed = 1;
nodes = (
"101 568 OFFCURVE",
"235 678 OFFCURVE",
"388 678 CURVE SMOOTH",
"539 678 OFFCURVE",
"669 570 OFFCURVE",
"669 353 CURVE SMOOTH",
"669 129 OFFCURVE",
"532 14 OFFCURVE",
"378 14 CURVE SMOOTH",
"229 14 OFFCURVE",
"101 121 OFFCURVE",
"101 342 CURVE SMOOTH"
);
}
);
};
layerId = "075BA79B-D813-4287-A9DD-CCAF2D535ED3";
paths = (
{
closed = 1;
nodes = (
"785 -94 LINE",
"738 -121 OFFCURVE",
"708 -134 OFFCURVE",
"677 -134 CURVE SMOOTH",
"620 -134 OFFCURVE",
"563 -89 OFFCURVE",
"401 -2 CURVE",
"403 -5 LINE",
"563 8 OFFCURVE",
"691 135 OFFCURVE",
"691 356 CURVE SMOOTH",
"691 591 OFFCURVE",
"546 698 OFFCURVE",
"389 698 CURVE SMOOTH",
"225 698 OFFCURVE",
"79 581 OFFCURVE",
"79 341 CURVE SMOOTH",
"79 109 OFFCURVE",
"214 -4 OFFCURVE",
"373 -6 CURVE",
"362 -2 LINE",
"548 -104 OFFCURVE",
"615 -154 OFFCURVE",
"677 -154 CURVE SMOOTH",
"712 -154 OFFCURVE",
"744 -139 OFFCURVE",
"795 -109 CURVE"
);
},
{
closed = 1;
nodes = (
"101 568 OFFCURVE",
"235 678 OFFCURVE",
"388 678 CURVE SMOOTH",
"539 678 OFFCURVE",
"669 570 OFFCURVE",
"669 353 CURVE SMOOTH",
"669 129 OFFCURVE",
"532 14 OFFCURVE",
"378 14 CURVE SMOOTH",
"229 14 OFFCURVE",
"101 121 OFFCURVE",
"101 342 CURVE SMOOTH"
);
}
);
width = 770;
},
{
anchors = (
{
name = bottom;
position = "{361, 0}";
},
{
name = top;
position = "{361, 710}";
}
);
background = {
paths = (
{
closed = 1;
nodes = (
"764 -23 LINE",
"725 -44 OFFCURVE",
"687 -62 OFFCURVE",
"661 -62 CURVE SMOOTH",
"620 -62 OFFCURVE",
"548 -24 OFFCURVE",
"470 32 CURVE",
"469 3 LINE",
"616 49 OFFCURVE",
"700 182 OFFCURVE",
"700 371 CURVE SMOOTH",
"700 594 OFFCURVE",
"585 725 OFFCURVE",
"369 725 CURVE SMOOTH",
"153 725 OFFCURVE",
"23 594 OFFCURVE",
"23 345 CURVE SMOOTH",
"23 114 OFFCURVE",
"135 -13 OFFCURVE",
"341 -15 CURVE",
"289 0 LINE",
"515 -152 OFFCURVE",
"559 -209 OFFCURVE",
"641 -209 CURVE SMOOTH",
"696 -209 OFFCURVE",
"757 -181 OFFCURVE",
"835 -134 CURVE"
);
},
{
closed = 1;
nodes = (
"243 514 OFFCURVE",
"273 570 OFFCURVE",
"360 570 CURVE SMOOTH",
"449 570 OFFCURVE",
"480 517 OFFCURVE",
"480 363 CURVE SMOOTH",
"480 197 OFFCURVE",
"449 140 OFFCURVE",
"359 140 CURVE SMOOTH",
"273 140 OFFCURVE",
"243 194 OFFCURVE",
"243 351 CURVE SMOOTH"
);
}
);
};
layerId = "927AED37-E9E6-4F96-A08E-421C3785EFC6";
paths = (
{
closed = 1;
nodes = (
"764 -16 LINE",
"722 -40 OFFCURVE",
"692 -53 OFFCURVE",
"657 -53 CURVE SMOOTH",
"613 -53 OFFCURVE",
"565 -32 OFFCURVE",
"476 26 CURVE",
"469 3 LINE",
"616 49 OFFCURVE",
"700 182 OFFCURVE",
"700 371 CURVE SMOOTH",
"700 594 OFFCURVE",
"585 725 OFFCURVE",
"369 725 CURVE SMOOTH",
"153 725 OFFCURVE",
"23 594 OFFCURVE",
"23 345 CURVE SMOOTH",
"23 114 OFFCURVE",
"135 -13 OFFCURVE",
"341 -15 CURVE",
"297 0 LINE",
"486 -151 OFFCURVE",
"573 -213 OFFCURVE",
"654 -213 CURVE SMOOTH",
"708 -213 OFFCURVE",
"759 -186 OFFCURVE",
"835 -139 CURVE"
);
},
{
closed = 1;
nodes = (
"243 514 OFFCURVE",
"273 570 OFFCURVE",
"360 570 CURVE SMOOTH",
"449 570 OFFCURVE",
"480 517 OFFCURVE",
"480 363 CURVE SMOOTH",
"480 197 OFFCURVE",
"449 140 OFFCURVE",
"359 140 CURVE SMOOTH",
"273 140 OFFCURVE",
"243 194 OFFCURVE",
"243 351 CURVE SMOOTH"
);
}
);
width = 722;
}
);
leftKerningGroup = O;
rightKerningGroup = O;
unicode = 0051;
},
{
glyphname = R;
layers = (
{
anchors = (
{
name = bottom;
position = "{345, 0}";
},
{
name = top;
position = "{305, 692}";
}
);
background = {
paths = (
{
closed = 1;
nodes = (
"274 343 LINE SMOOTH",
"433 343 OFFCURVE",
"526 411 OFFCURVE",
"526 528 CURVE SMOOTH",
"526 627 OFFCURVE",
"452 692 OFFCURVE",
"311 692 CURVE SMOOTH",
"182 692 LINE",
"61 687 LINE",
"61 672 LINE",
"161 664 LINE",
"181 673 LINE",
"309 673 LINE SMOOTH",
"437 673 OFFCURVE",
"504 615 OFFCURVE",
"504 527 CURVE SMOOTH",
"504 423 OFFCURVE",
"420 362 OFFCURVE",
"275 362 CURVE SMOOTH",
"173 362 LINE",
"173 343 LINE"
);
},
{
closed = 1;
nodes = (
"306 0 LINE",
"306 15 LINE",
"181 28 LINE",
"161 28 LINE",
"61 15 LINE",
"61 0 LINE"
);
},
{
closed = 1;
nodes = (
"181 28 LINE",
"181 673 LINE",
"161 664 LINE",
"161 28 LINE"
);
},
{
closed = 1;
nodes = (
"256 343 LINE",
"345 343 OFFCURVE",
"389 333 OFFCURVE",
"444 212 CURVE SMOOTH",
"541 0 LINE",
"624 0 LINE",
"624 15 LINE",
"553 28 LINE",
"463 218 LINE SMOOTH",
"425 299 OFFCURVE",
"401 338 OFFCURVE",
"338 351 CURVE"
);
}
);
};
layerId = "075BA79B-D813-4287-A9DD-CCAF2D535ED3";
paths = (
{
closed = 1;
nodes = (
"306 0 LINE",
"306 15 LINE",
"174 29 LINE",
"181 21 LINE",
"181 334 LINE",
"174 327 LINE",
"260 327 LINE SMOOTH",
"375 327 OFFCURVE",
"406 293 OFFCURVE",
"448 202 CURVE SMOOTH",
"541 0 LINE",
"624 0 LINE",
"624 15 LINE",
"546 29 LINE",
"556 22 LINE",
"467 208 LINE SMOOTH",
"431 283 OFFCURVE",
"405 323 OFFCURVE",
"328 336 CURVE",
"330 333 LINE",
"463 344 OFFCURVE",
"533 413 OFFCURVE",
"533 520 CURVE SMOOTH",
"533 632 OFFCURVE",
"459 692 OFFCURVE",
"318 692 CURVE SMOOTH",
"182 692 LINE",
"61 687 LINE",
"61 672 LINE",
"168 663 LINE",
"161 671 LINE",
"161 21 LINE",
"168 29 LINE",
"61 15 LINE",
"61 0 LINE"
);
},
{
closed = 1;
nodes = (
"181 680 LINE",
"174 673 LINE",
"316 673 LINE SMOOTH",
"444 673 OFFCURVE",
"511 620 OFFCURVE",
"511 519 CURVE SMOOTH",
"511 406 OFFCURVE",
"427 346 OFFCURVE",
"282 346 CURVE SMOOTH",
"174 346 LINE",
"181 339 LINE"
);
}
);
width = 648;
},
{
anchors = (
{
name = bottom;
position = "{349, 0}";
},
{
name = top;
position = "{324, 710}";
}
);
background = {
paths = (
{
closed = 1;
nodes = (
"349 0 LINE",
"349 100 LINE",
"264 134 LINE",
"289 95 LINE",
"289 303 LINE",
"257 276 LINE",
"292 277 LINE SMOOTH",
"340 278 OFFCURVE",
"345 269 OFFCURVE",
"373 204 CURVE SMOOTH",
"462 0 LINE",
"662 0 LINE",
"662 100 LINE",
"569 139 LINE",
"625 104 LINE",
"550 258 LINE SMOOTH",
"528 303 OFFCURVE",
"493 335 OFFCURVE",
"415 333 CURVE",
"408 301 LINE",
"561 321 OFFCURVE",
"626 401 OFFCURVE",
"626 510 CURVE SMOOTH",
"626 636 OFFCURVE",
"539 711 OFFCURVE",
"370 711 CURVE SMOOTH",
"297 711 LINE",
"24 705 LINE",
"24 605 LINE",
"119 568 LINE",
"84 609 LINE",
"84 95 LINE",
"108 133 LINE",
"24 100 LINE",
"24 0 LINE"
);
},
{
closed = 1;
nodes = (
"289 596 LINE",
"257 566 LINE",
"343 566 LINE SMOOTH",
"395 566 OFFCURVE",
"418 534 OFFCURVE",
"418 488 CURVE SMOOTH",
"418 436 OFFCURVE",
"389 406 OFFCURVE",
"322 406 CURVE SMOOTH",
"257 406 LINE",
"289 376 LINE"
);
}
);
};
layerId = "927AED37-E9E6-4F96-A08E-421C3785EFC6";
paths = (
{
closed = 1;
nodes = (
"349 0 LINE",
"349 100 LINE",
"264 134 LINE",
"289 95 LINE",
"289 292 LINE",
"257 265 LINE",
"292 266 LINE SMOOTH",
"341 267 OFFCURVE",
"341 258 OFFCURVE",
"374 188 CURVE SMOOTH",
"463 0 LINE",
"667 0 LINE",
"667 100 LINE",
"569 139 LINE",
"625 104 LINE",
"550 242 LINE SMOOTH",
"526 286 OFFCURVE",
"493 314 OFFCURVE",
"415 312 CURVE",
"413 289 LINE",
"566 309 OFFCURVE",
"631 390 OFFCURVE",
"631 505 CURVE SMOOTH",
"631 637 OFFCURVE",
"544 710 OFFCURVE",
"375 710 CURVE SMOOTH",
"297 710 LINE",
"24 705 LINE",
"24 605 LINE",
"119 568 LINE",
"84 609 LINE",
"84 95 LINE",
"108 133 LINE",
"24 100 LINE",
"24 0 LINE"
);
},
{
closed = 1;
nodes = (
"289 596 LINE",
"257 566 LINE",
"349 566 LINE SMOOTH",
"401 566 OFFCURVE",
"423 536 OFFCURVE",
"423 491 CURVE SMOOTH",
"423 434 OFFCURVE",
"394 405 OFFCURVE",
"327 405 CURVE SMOOTH",
"257 405 LINE",
"289 355 LINE"
);
}
);
width = 677;
}
);
leftKerningGroup = H;
rightKerningGroup = R;
unicode = 0052;
},
{
glyphname = S;
layers = (
{
anchors = (
{
name = bottom;
position = "{305, 0}";
},
{
name = top;
position = "{311, 692}";
}
);
background = {
paths = (
{
closed = 1;
nodes = (
"145 9 OFFCURVE",
"211 -6 OFFCURVE",
"272 -6 CURVE SMOOTH",
"400 -6 OFFCURVE",
"509 59 OFFCURVE",
"509 181 CURVE SMOOTH",
"509 416 OFFCURVE",
"120 312 OFFCURVE",
"120 527 CURVE SMOOTH",
"120 635 OFFCURVE",
"214 678 OFFCURVE",
"315 678 CURVE SMOOTH",
"368 678 OFFCURVE",
"422 666 OFFCURVE",
"466 646 CURVE",
"494 656 LINE",
"453 679 OFFCURVE",
"387 698 OFFCURVE",
"322 698 CURVE SMOOTH",
"211 698 OFFCURVE",
"98 653 OFFCURVE",
"98 523 CURVE SMOOTH",
"98 290 OFFCURVE",
"487 389 OFFCURVE",
"487 178 CURVE SMOOTH",
"487 70 OFFCURVE",
"387 15 OFFCURVE",
"272 15 CURVE SMOOTH",
"221 15 OFFCURVE",
"167 26 OFFCURVE",
"117 48 CURVE",
"85 39 LINE"
);
},
{
closed = 1;
nodes = (
"117 48 LINE",
"106 186 LINE",
"91 186 LINE",
"85 39 LINE"
);
},
{
closed = 1;
nodes = (
"488 516 LINE",
"494 656 LINE",
"466 646 LINE",
"473 516 LINE"
);
}
);
};
layerId = "075BA79B-D813-4287-A9DD-CCAF2D535ED3";
paths = (
{
closed = 1;
nodes = (
"122 635 OFFCURVE",
"216 678 OFFCURVE",
"317 678 CURVE SMOOTH",
"372 678 OFFCURVE",
"429 665 OFFCURVE",
"474 644 CURVE",
"466 653 LINE",
"475 522 LINE",
"490 522 LINE",
"496 659 LINE",
"438 685 OFFCURVE",
"377 698 OFFCURVE",
"320 698 CURVE SMOOTH",
"195 698 OFFCURVE",
"100 640 OFFCURVE",
"100 524 CURVE SMOOTH",
"100 290 OFFCURVE",
"487 402 OFFCURVE",
"487 181 CURVE SMOOTH",
"487 70 OFFCURVE",
"390 15 OFFCURVE",
"276 15 CURVE SMOOTH",
"223 15 OFFCURVE",
"166 27 OFFCURVE",
"113 51 CURVE",
"118 41 LINE",
"106 175 LINE",
"91 175 LINE",
"85 36 LINE",
"146 8 OFFCURVE",
"211 -6 OFFCURVE",
"273 -6 CURVE SMOOTH",
"401 -6 OFFCURVE",
"509 55 OFFCURVE",
"509 183 CURVE SMOOTH",
"509 424 OFFCURVE",
"122 312 OFFCURVE",
"122 528 CURVE SMOOTH"
);
}
);
width = 598;
},
{
anchors = (
{
name = bottom;
position = "{307, 0}";
},
{
name = top;
position = "{312, 710}";
}
);
background = {
paths = (
{
closed = 1;
nodes = (
"237 565 OFFCURVE",
"275 579 OFFCURVE",
"320 579 CURVE SMOOTH",
"347 579 OFFCURVE",
"377 574 OFFCURVE",
"404 565 CURVE",
"384 584 LINE",
"411 486 LINE",
"531 486 LINE",
"544 698 LINE",
"469 714 OFFCURVE",
"392 725 OFFCURVE",
"314 725 CURVE SMOOTH",
"158 725 OFFCURVE",
"40 649 OFFCURVE",
"40 499 CURVE SMOOTH",
"40 248 OFFCURVE",
"372 309 OFFCURVE",
"372 192 CURVE SMOOTH",
"372 151 OFFCURVE",
"332 131 OFFCURVE",
"280 131 CURVE SMOOTH",
"251 131 OFFCURVE",
"211 137 OFFCURVE",
"176 151 CURVE",
"194 125 LINE",
"168 230 LINE",
"46 230 LINE",
"46 26 LINE",
"121 -2 OFFCURVE",
"197 -15 OFFCURVE",
"265 -15 CURVE SMOOTH",
"437 -15 OFFCURVE",
"572 68 OFFCURVE",
"572 230 CURVE SMOOTH",
"572 485 OFFCURVE",
"237 429 OFFCURVE",
"237 531 CURVE SMOOTH"
);
}
);
};
layerId = "927AED37-E9E6-4F96-A08E-421C3785EFC6";
paths = (
{
closed = 1;
nodes = (
"232 562 OFFCURVE",
"274 577 OFFCURVE",
"324 577 CURVE SMOOTH",
"354 577 OFFCURVE",
"385 572 OFFCURVE",
"413 563 CURVE",
"393 582 LINE",
"420 484 LINE",
"540 484 LINE",
"553 679 LINE",
"470 709 OFFCURVE",
"386 725 OFFCURVE",
"311 725 CURVE SMOOTH",
"154 725 OFFCURVE",
"35 653 OFFCURVE",
"35 500 CURVE SMOOTH",
"35 240 OFFCURVE",
"381 300 OFFCURVE",
"381 188 CURVE SMOOTH",
"381 149 OFFCURVE",
"337 132 OFFCURVE",
"284 132 CURVE SMOOTH",
"246 132 OFFCURVE",
"204 141 OFFCURVE",
"171 157 CURVE",
"189 126 LINE",
"163 241 LINE",
"46 241 LINE",
"41 26 LINE",
"118 -2 OFFCURVE",
"199 -16 OFFCURVE",
"275 -16 CURVE SMOOTH",
"442 -16 OFFCURVE",
"581 55 OFFCURVE",
"581 215 CURVE SMOOTH",
"581 469 OFFCURVE",
"232 427 OFFCURVE",
"232 527 CURVE SMOOTH"
);
}
);
width = 603;
}
);
leftKerningGroup = S;
rightKerningGroup = S;
unicode = 0053;
},
{
glyphname = Scedilla;
layers = (
{
background = {
anchors = (
{
name = _bottom;
position = "{314, 0}";
},
{
name = bottom;
position = "{314, 0}";
},
{
name = top;
position = "{320, 691}";
}
);
paths = (
{
closed = 1;
nodes = (
"518 426 OFFCURVE",
"131 312 OFFCURVE",
"131 527 CURVE SMOOTH",
"131 635 OFFCURVE",
"225 678 OFFCURVE",
"326 678 CURVE SMOOTH",
"378 678 OFFCURVE",
"432 666 OFFCURVE",
"475 647 CURVE",
"484 522 LINE",
"499 522 LINE",
"505 659 LINE",
"447 685 OFFCURVE",
"386 698 OFFCURVE",
"329 698 CURVE SMOOTH",
"204 698 OFFCURVE",
"109 640 OFFCURVE",
"109 523 CURVE SMOOTH",
"109 290 OFFCURVE",
"496 404 OFFCURVE",
"496 178 CURVE SMOOTH",
"496 71 OFFCURVE",
"399 15 OFFCURVE",
"285 15 CURVE SMOOTH",
"233 15 OFFCURVE",
"178 26 OFFCURVE",
"126 49 CURVE",
"115 175 LINE",
"100 175 LINE",
"94 36 LINE",
"155 8 OFFCURVE",
"220 -6 OFFCURVE",
"282 -6 CURVE SMOOTH",
"290 -6 OFFCURVE",
"297 -6 OFFCURVE",
"305 -5 CURVE",
"301 -87 LINE",
"368 -88 OFFCURVE",
"399 -106 OFFCURVE",
"399 -141 CURVE SMOOTH",
"399 -175 OFFCURVE",
"368 -192 OFFCURVE",
"329 -192 CURVE SMOOTH",
"308 -192 OFFCURVE",
"284 -187 OFFCURVE",
"264 -179 CURVE",
"256 -196 LINE",
"280 -207 OFFCURVE",
"306 -212 OFFCURVE",
"329 -212 CURVE SMOOTH",
"380 -212 OFFCURVE",
"420 -188 OFFCURVE",
"420 -138 CURVE SMOOTH",
"420 -102 OFFCURVE",
"399 -74 OFFCURVE",
"324 -68 CURVE",
"324 -4 LINE",
"433 9 OFFCURVE",
"518 70 OFFCURVE",
"518 181 CURVE SMOOTH"
);
}
);
};
components = (
{
name = S;
},
{
name = cedillacomb.case;
transform = "{1, 0, 0, 1, 161, 0}";
}
);
layerId = "075BA79B-D813-4287-A9DD-CCAF2D535ED3";
width = 598;
},
{
background = {
anchors = (
{
name = _bottom;
position = "{305, 0}";
},
{
name = top;
position = "{310, 710}";
}
);
paths = (
{
closed = 1;
nodes = (
"579 470 OFFCURVE",
"230 426 OFFCURVE",
"230 528 CURVE SMOOTH",
"230 562 OFFCURVE",
"272 577 OFFCURVE",
"322 577 CURVE SMOOTH",
"346 577 OFFCURVE",
"371 574 OFFCURVE",
"395 568 CURVE",
"418 486 LINE",
"538 486 LINE",
"551 679 LINE",
"468 709 OFFCURVE",
"384 725 OFFCURVE",
"309 725 CURVE SMOOTH",
"152 725 OFFCURVE",
"33 655 OFFCURVE",
"33 496 CURVE SMOOTH",
"33 245 OFFCURVE",
"379 298 OFFCURVE",
"379 188 CURVE SMOOTH",
"379 149 OFFCURVE",
"335 132 OFFCURVE",
"282 132 CURVE SMOOTH",
"249 132 OFFCURVE",
"212 139 OFFCURVE",
"181 152 CURVE",
"161 241 LINE",
"39 241 LINE",
"39 26 LINE",
"103 3 OFFCURVE",
"170 -11 OFFCURVE",
"235 -15 CURVE",
"228 -117 LINE",
"279 -119 OFFCURVE",
"334 -129 OFFCURVE",
"334 -151 CURVE SMOOTH",
"334 -166 OFFCURVE",
"319 -172 OFFCURVE",
"297 -172 CURVE SMOOTH",
"271 -172 OFFCURVE",
"235 -164 OFFCURVE",
"207 -154 CURVE",
"171 -246 LINE",
"210 -266 OFFCURVE",
"255 -275 OFFCURVE",
"298 -275 CURVE SMOOTH",
"390 -275 OFFCURVE",
"474 -232 OFFCURVE",
"474 -146 CURVE SMOOTH",
"474 -89 OFFCURVE",
"428 -49 OFFCURVE",
"351 -39 CURVE",
"351 -10 LINE",
"481 9 OFFCURVE",
"579 81 OFFCURVE",
"579 215 CURVE SMOOTH"
);
}
);
};
components = (
{
name = S;
},
{
name = cedillacomb.case;
transform = "{1, 0, 0, 1, 175, 0}";
}
);
layerId = "927AED37-E9E6-4F96-A08E-421C3785EFC6";
width = 603;
}
);
leftKerningGroup = S;
rightKerningGroup = S;
unicode = 015E;
},
{
glyphname = Sdotbelowdotaccent;
layers = (
{
components = (
{
name = S;
},
{
name = dotaccentcomb.case;
transform = "{1, 0, 0, 1, 186, 0}";
},
{
name = dotbelowcomb.case;
transform = "{1, 0, 0, 1, 250, 0}";
}
);
guideLines = (
{
angle = 90;
position = "{280, 0}";
}
);
layerId = "075BA79B-D813-4287-A9DD-CCAF2D535ED3";
width = 598;
},
{
background = {
anchors = (
{
name = _center;
position = "{310, 865}";
},
{
name = bottom;
position = "{305, 0}";
},
{
name = top;
position = "{310, 710}";
}
);
paths = (
{
closed = 1;
nodes = (
"230 562 OFFCURVE",
"272 577 OFFCURVE",
"322 577 CURVE SMOOTH",
"352 577 OFFCURVE",
"383 572 OFFCURVE",
"411 563 CURVE",
"391 582 LINE",
"418 486 LINE",
"538 486 LINE",
"551 679 LINE",
"468 709 OFFCURVE",
"384 725 OFFCURVE",
"309 725 CURVE SMOOTH",
"152 725 OFFCURVE",
"33 655 OFFCURVE",
"33 496 CURVE SMOOTH",
"33 245 OFFCURVE",
"379 298 OFFCURVE",
"379 188 CURVE SMOOTH",
"379 149 OFFCURVE",
"335 132 OFFCURVE",
"282 132 CURVE SMOOTH",
"244 132 OFFCURVE",
"202 141 OFFCURVE",
"169 157 CURVE",
"187 126 LINE",
"161 241 LINE",
"39 241 LINE",
"39 26 LINE",
"116 -2 OFFCURVE",
"197 -16 OFFCURVE",
"273 -16 CURVE SMOOTH",
"440 -16 OFFCURVE",
"579 55 OFFCURVE",
"579 215 CURVE SMOOTH",
"579 470 OFFCURVE",
"230 426 OFFCURVE",
"230 528 CURVE SMOOTH"
);
},
{
closed = 1;
nodes = (
"372 761 OFFCURVE",
"419 798 OFFCURVE",
"419 870 CURVE SMOOTH",
"419 943 OFFCURVE",
"373 978 OFFCURVE",
"310 978 CURVE SMOOTH",
"246 978 OFFCURVE",
"199 942 OFFCURVE",
"199 869 CURVE SMOOTH",
"199 799 OFFCURVE",
"244 761 OFFCURVE",
"309 761 CURVE SMOOTH"
);
},
{
closed = 1;
nodes = (
"367 -258 OFFCURVE",
"414 -221 OFFCURVE",
"414 -149 CURVE SMOOTH",
"414 -76 OFFCURVE",
"368 -41 OFFCURVE",
"305 -41 CURVE SMOOTH",
"241 -41 OFFCURVE",
"194 -77 OFFCURVE",
"194 -150 CURVE SMOOTH",
"194 -220 OFFCURVE",
"239 -258 OFFCURVE",
"304 -258 CURVE SMOOTH"
);
}
);
};
components = (
{
name = S;
},
{
name = dotaccentcomb.case;
transform = "{1, 0, 0, 1, 167, 0}";
},
{
name = dotbelowcomb.case;
transform = "{1, 0, 0, 1, 162, 0}";
}
);
layerId = "927AED37-E9E6-4F96-A08E-421C3785EFC6";
width = 603;
}
);
leftKerningGroup = S;
rightKerningGroup = S;
unicode = 1E68;
},
{
glyphname = Germandbls;
layers = (
{
background = {
paths = (
{
closed = 1;
nodes = (
"608 -6 OFFCURVE",
"660 90 OFFCURVE",
"660 191 CURVE SMOOTH",
"660 334 OFFCURVE",
"557 386 OFFCURVE",
"386 396 CURVE",
"388 387 LINE",
"584 671 LINE",
"584 692 LINE",
"181 692 LINE",
"60 687 LINE",
"60 672 LINE",
"167 662 LINE",
"160 670 LINE",
"160 21 LINE",
"167 29 LINE",
"60 15 LINE",
"60 0 LINE",
"180 0 LINE",
"180 680 LINE",
"173 672 LINE",
"571 673 LINE",
"570 685 LINE",
"370 397 LINE",
"370 378 LINE",
"540 370 OFFCURVE",
"638 323 OFFCURVE",
"638 190 CURVE SMOOTH",
"638 98 OFFCURVE",
"590 14 OFFCURVE",
"448 14 CURVE SMOOTH",
"404 14 OFFCURVE",
"357 22 OFFCURVE",
"314 32 CURVE",
"319 24 LINE",
"307 137 LINE",
"292 137 LINE",
"286 19 LINE",
"339 3 OFFCURVE",
"392 -6 OFFCURVE",
"443 -6 CURVE SMOOTH"
);
}
);
};
layerId = "075BA79B-D813-4287-A9DD-CCAF2D535ED3";
paths = (
{
closed = 1;
nodes = (
"563 -6 OFFCURVE",
"655 61 OFFCURVE",
"655 196 CURVE SMOOTH",
"655 345 OFFCURVE",
"542 386 OFFCURVE",
"376 396 CURVE",
"378 387 LINE",
"584 671 LINE",
"584 692 LINE",
"181 692 LINE",
"60 687 LINE",
"60 672 LINE",
"167 662 LINE",
"160 670 LINE",
"160 21 LINE",
"167 29 LINE",
"60 15 LINE",
"60 0 LINE",
"180 0 LINE",
"180 680 LINE",
"173 672 LINE",
"571 673 LINE",
"570 685 LINE",
"360 397 LINE",
"360 378 LINE",
"530 369 OFFCURVE",
"633 333 OFFCURVE",
"633 196 CURVE SMOOTH",
"633 75 OFFCURVE",
"552 14 OFFCURVE",
"442 14 CURVE SMOOTH",
"404 14 OFFCURVE",
"360 20 OFFCURVE",
"314 32 CURVE",
"319 24 LINE",
"307 137 LINE",
"292 137 LINE",
"286 19 LINE",
"340 3 OFFCURVE",
"395 -6 OFFCURVE",
"440 -6 CURVE SMOOTH"
);
}
);
width = 715;
},
{
background = {
paths = (
{
closed = 1;
nodes = (
"627 -12 OFFCURVE",
"724 62 OFFCURVE",
"724 200 CURVE SMOOTH",
"724 347 OFFCURVE",
"616 385 OFFCURVE",
"506 415 CURVE",
"530 390 LINE",
"656 573 LINE",
"656 710 LINE",
"284 710 LINE",
"24 705 LINE",
"24 605 LINE",
"108 572 LINE",
"84 610 LINE",
"84 100 LINE",
"108 134 LINE",
"24 100 LINE",
"24 0 LINE",
"289 0 LINE",
"289 595 LINE",
"259 565 LINE",
"504 565 LINE",
"508 619 LINE",
"375 433 LINE",
"375 311 LINE",
"476 296 OFFCURVE",
"516 277 OFFCURVE",
"516 209 CURVE SMOOTH",
"516 154 OFFCURVE",
"492 133 OFFCURVE",
"474 133 CURVE SMOOTH",
"461 133 OFFCURVE",
"446 133 OFFCURVE",
"431 142 CURVE",
"463 113 LINE",
"438 194 LINE",
"330 194 LINE",
"322 8 LINE",
"380 -8 OFFCURVE",
"438 -12 OFFCURVE",
"474 -12 CURVE SMOOTH"
);
}
);
};
layerId = "927AED37-E9E6-4F96-A08E-421C3785EFC6";
paths = (
{
closed = 1;
nodes = (
"614 -14 OFFCURVE",
"724 64 OFFCURVE",
"724 208 CURVE SMOOTH",
"724 364 OFFCURVE",
"595 400 OFFCURVE",
"486 420 CURVE",
"510 381 LINE",
"656 564 LINE",
"656 710 LINE",
"284 710 LINE",
"24 705 LINE",
"24 605 LINE",
"108 572 LINE",
"84 610 LINE",
"84 100 LINE",
"108 134 LINE",
"24 100 LINE",
"24 0 LINE",
"289 0 LINE",
"289 595 LINE",
"259 565 LINE",
"504 565 LINE",
"508 619 LINE",
"355 433 LINE",
"355 311 LINE",
"456 296 OFFCURVE",
"516 278 OFFCURVE",
"516 205 CURVE SMOOTH",
"516 162 OFFCURVE",
"495 133 OFFCURVE",
"464 133 CURVE SMOOTH",
"454 133 OFFCURVE",
"443 136 OFFCURVE",
"431 142 CURVE",
"463 113 LINE",
"438 194 LINE",
"330 194 LINE",
"322 8 LINE",
"374 -7 OFFCURVE",
"426 -14 OFFCURVE",
"469 -14 CURVE SMOOTH"
);
}
);
width = 734;
}
);
leftKerningGroup = H;
rightKerningGroup = B;
unicode = 1E9E;
},
{
glyphname = T;
layers = (
{
anchors = (
{
name = bottom;
position = "{279, 0}";
},
{
name = center;
position = "{279, 355}";
},
{
name = top;
position = "{279, 692}";
}
);
background = {
paths = (
{
closed = 1;
nodes = (
"53 556 LINE",
"68 680 LINE",
"38 692 LINE",
"38 556 LINE"
);
},
{
closed = 1;
nodes = (
"520 556 LINE",
"520 692 LINE",
"490 680 LINE",
"505 556 LINE"
);
},
{
closed = 1;
nodes = (
"289 28 LINE",
"289 673 LINE",
"269 673 LINE",
"269 28 LINE"
);
},
{
closed = 1;
nodes = (
"404 0 LINE",
"404 15 LINE",
"289 28 LINE",
"269 28 LINE",
"154 15 LINE",
"154 0 LINE"
);
},
{
closed = 1;
nodes = (
"510 673 LINE",
"520 692 LINE",
"38 692 LINE",
"48 673 LINE"
);
}
);
};
layerId = "075BA79B-D813-4287-A9DD-CCAF2D535ED3";
paths = (
{
closed = 1;
nodes = (
"404 0 LINE",
"404 15 LINE",
"282 29 LINE",
"289 21 LINE",
"289 680 LINE",
"282 673 LINE",
"503 673 LINE",
"495 680 LINE",
"510 552 LINE",
"525 552 LINE",
"525 692 LINE",
"33 692 LINE",
"33 552 LINE",
"48 552 LINE",
"63 680 LINE",
"55 673 LINE",
"276 673 LINE",
"269 680 LINE",
"269 21 LINE",
"276 29 LINE",
"154 15 LINE",
"154 0 LINE"
);
}
);
width = 558;
},
{
anchors = (
{
name = bottom;
position = "{320, 0}";
},
{
name = center;
position = "{320, 337}";
},
{
name = top;
position = "{320, 710}";
}
);
background = {
paths = (
{
closed = 1;
nodes = (
"137 471 LINE",
"160 565 LINE",
"12 710 LINE",
"12 471 LINE"
);
},
{
closed = 1;
nodes = (
"627 471 LINE",
"627 710 LINE",
"479 565 LINE",
"502 471 LINE"
);
},
{
closed = 1;
nodes = (
"422 125 LINE",
"422 565 LINE",
"217 565 LINE",
"217 125 LINE"
);
},
{
closed = 1;
nodes = (
"507 0 LINE",
"507 100 LINE",
"422 125 LINE",
"217 125 LINE",
"132 100 LINE",
"132 0 LINE"
);
},
{
closed = 1;
nodes = (
"479 565 LINE",
"627 710 LINE",
"12 710 LINE",
"160 565 LINE"
);
}
);
};
layerId = "927AED37-E9E6-4F96-A08E-421C3785EFC6";
paths = (
{
closed = 1;
nodes = (
"492 0 LINE",
"492 100 LINE",
"389 135 LINE",
"422 85 LINE",
"422 595 LINE",
"382 565 LINE",
"517 565 LINE",
"475 595 LINE",
"505 477 LINE",
"625 477 LINE",
"625 710 LINE",
"14 710 LINE",
"14 477 LINE",
"134 477 LINE",
"166 603 LINE",
"122 565 LINE",
"257 565 LINE",
"217 595 LINE",
"217 85 LINE",
"252 135 LINE",
"147 100 LINE",
"147 0 LINE"
);
}
);
width = 639;
}
);
leftKerningGroup = T;
rightKerningGroup = T;
unicode = 0054;
},
{
glyphname = Tbar;
layers = (
{
background = {
components = (
{
name = T;
}
);
paths = (
{
closed = 1;
nodes = (
"122 356 LINE",
"438 356 LINE",
"438 375 LINE",
"122 375 LINE"
);
}
);
};
components = (
{
name = T;
},
{
name = strokeshortcomb;
transform = "{1.03226, 0, 0, 1, 57, 55}";
}
);
layerId = "075BA79B-D813-4287-A9DD-CCAF2D535ED3";
width = 558;
},
{
background = {
paths = (
{
closed = 1;
nodes = (
"498 0 LINE",
"498 100 LINE",
"380 135 LINE",
"413 85 LINE",
"413 595 LINE",
"373 565 LINE",
"510 565 LINE",
"463 595 LINE",
"493 471 LINE",
"618 471 LINE",
"618 710 LINE",
"3 710 LINE",
"3 471 LINE",
"128 471 LINE",
"160 603 LINE",
"111 565 LINE",
"248 565 LINE",
"208 595 LINE",
"208 85 LINE",
"243 135 LINE",
"123 100 LINE",
"123 0 LINE"
);
},
{
closed = 1;
nodes = (
"89 279 LINE",
"532 279 LINE",
"532 394 LINE",
"89 394 LINE"
);
}
);
};
components = (
{
name = T;
},
{
name = strokeshortcomb;
transform = "{1.03226, 0, 0, 1.2, 44, -21}";
}
);
layerId = "927AED37-E9E6-4F96-A08E-421C3785EFC6";
width = 639;
}
);
leftKerningGroup = T;
leftMetricsKey = T;
rightKerningGroup = T;
rightMetricsKey = T;
unicode = 0166;
},
{
glyphname = Tcedilla;
layers = (
{
components = (
{
name = T;
},
{
name = cedillacomb.case;
transform = "{1, 0, 0, 1, 135, 0}";
}
);
layerId = "075BA79B-D813-4287-A9DD-CCAF2D535ED3";
width = 558;
},
{
background = {
paths = (
{
closed = 1;
nodes = (
"5 474 LINE",
"125 474 LINE",
"148 565 LINE",
"208 565 LINE",
"208 123 LINE",
"138 100 LINE",
"138 0 LINE",
"242 0 LINE",
"234 -117 LINE",
"285 -119 OFFCURVE",
"340 -129 OFFCURVE",
"340 -151 CURVE SMOOTH",
"340 -166 OFFCURVE",
"325 -172 OFFCURVE",
"303 -172 CURVE SMOOTH",
"277 -172 OFFCURVE",
"241 -164 OFFCURVE",
"213 -154 CURVE",
"177 -246 LINE",
"216 -266 OFFCURVE",
"261 -275 OFFCURVE",
"304 -275 CURVE SMOOTH",
"396 -275 OFFCURVE",
"480 -232 OFFCURVE",
"480 -146 CURVE SMOOTH",
"480 -89 OFFCURVE",
"434 -49 OFFCURVE",
"357 -39 CURVE",
"357 0 LINE",
"483 0 LINE",
"483 100 LINE",
"413 124 LINE",
"413 565 LINE",
"473 565 LINE",
"496 474 LINE",
"616 474 LINE",
"616 710 LINE",
"5 710 LINE"
);
}
);
};
components = (
{
name = T;
},
{
name = cedillacomb.case;
transform = "{1, 0, 0, 1, 188, 0}";
}
);
layerId = "927AED37-E9E6-4F96-A08E-421C3785EFC6";
width = 639;
}
);
leftKerningGroup = T;
rightKerningGroup = T;
unicode = 0162;
},
{
glyphname = U;
layers = (
{
anchors = (
{
name = bottom;
position = "{378, 0}";
},
{
name = ogonek;
position = "{446, 0}";
},
{
name = top;
position = "{378, 692}";
},
{
name = topright;
position = "{667, 689}";
}
);
background = {
paths = (
{
closed = 1;
nodes = (
"562 -5 OFFCURVE",
"617 90 OFFCURVE",
"617 254 CURVE SMOOTH",
"617 664 LINE",
"597 664 LINE",
"597 254 LINE SMOOTH",
"597 101 OFFCURVE",
"550 15 OFFCURVE",
"374 15 CURVE SMOOTH",
"213 15 OFFCURVE",
"159 88 OFFCURVE",
"159 245 CURVE SMOOTH",
"159 664 LINE",
"139 664 LINE",
"139 245 LINE SMOOTH",
"139 78 OFFCURVE",
"201 -5 OFFCURVE",
"375 -5 CURVE SMOOTH"
);
},
{
closed = 1;
nodes = (
"159 664 LINE",
"274 677 LINE",
"274 692 LINE",
"39 687 LINE",
"39 672 LINE",
"139 664 LINE"
);
},
{
closed = 1;
nodes = (
"617 664 LINE",
"717 677 LINE",
"717 692 LINE",
"482 687 LINE",
"482 672 LINE",
"597 664 LINE"
);
}
);
};
layerId = "075BA79B-D813-4287-A9DD-CCAF2D535ED3";
paths = (
{
closed = 1;
nodes = (
"497 672 LINE",
"604 664 LINE",
"597 671 LINE",
"597 254 LINE SMOOTH",
"597 171 OFFCURVE",
"597 13 OFFCURVE",
"376 13 CURVE SMOOTH",
"159 13 OFFCURVE",
"159 164 OFFCURVE",
"159 245 CURVE SMOOTH",
"159 671 LINE",
"152 663 LINE",
"259 677 LINE",
"259 692 LINE",
"39 687 LINE",
"39 672 LINE",
"146 663 LINE",
"139 671 LINE",
"139 245 LINE SMOOTH",
"139 166 OFFCURVE",
"139 -6 OFFCURVE",
"376 -6 CURVE SMOOTH",
"617 -6 OFFCURVE",
"617 171 OFFCURVE",
"617 254 CURVE SMOOTH",
"617 671 LINE",
"610 663 LINE",
"717 677 LINE",
"717 692 LINE",
"497 687 LINE"
);
}
);
width = 755;
},
{
anchors = (
{
name = bottom;
position = "{364, 0}";
},
{
name = ogonek;
position = "{483, 0}";
},
{
name = top;
position = "{371, 710}";
},
{
name = topright;
position = "{611, 707}";
}
);
background = {
paths = (
{
closed = 1;
nodes = (
"560 -15 OFFCURVE",
"668 73 OFFCURVE",
"668 285 CURVE SMOOTH",
"668 581 LINE",
"463 581 LINE",
"463 285 LINE SMOOTH",
"463 183 OFFCURVE",
"444 140 OFFCURVE",
"365 140 CURVE SMOOTH",
"289 140 OFFCURVE",
"273 180 OFFCURVE",
"273 270 CURVE SMOOTH",
"273 580 LINE",
"68 580 LINE",
"68 270 LINE SMOOTH",
"68 70 OFFCURVE",
"170 -15 OFFCURVE",
"364 -15 CURVE SMOOTH"
);
},
{
closed = 1;
nodes = (
"273 580 LINE",
"338 610 LINE",
"338 710 LINE",
"-2 705 LINE",
"-2 605 LINE",
"68 580 LINE"
);
},
{
closed = 1;
nodes = (
"668 581 LINE",
"738 610 LINE",
"738 710 LINE",
"398 705 LINE",
"398 605 LINE",
"463 581 LINE"
);
}
);
};
layerId = "927AED37-E9E6-4F96-A08E-421C3785EFC6";
paths = (
{
closed = 1;
nodes = (
"403 605 LINE",
"479 575 LINE",
"463 621 LINE",
"463 285 LINE SMOOTH",
"463 183 OFFCURVE",
"444 140 OFFCURVE",
"365 140 CURVE SMOOTH",
"289 140 OFFCURVE",
"273 180 OFFCURVE",
"273 270 CURVE SMOOTH",
"273 620 LINE",
"255 572 LINE",
"333 610 LINE",
"333 710 LINE",
"8 705 LINE",
"8 605 LINE",
"89 573 LINE",
"68 620 LINE",
"68 270 LINE SMOOTH",
"68 191 OFFCURVE",
"68 -15 OFFCURVE",
"362 -15 CURVE SMOOTH",
"555 -15 OFFCURVE",
"668 74 OFFCURVE",
"668 285 CURVE SMOOTH",
"668 621 LINE",
"647 572 LINE",
"728 610 LINE",
"728 710 LINE",
"403 705 LINE"
);
}
);
width = 736;
}
);
leftKerningGroup = U;
rightKerningGroup = U;
unicode = 0055;
},
{
glyphname = Uhookabove;
layers = (
{
background = {
anchors = (
{
name = _top;
position = "{385, 692}";
},
{
name = bottom;
position = "{385, 0}";
},
{
name = ogonek;
position = "{455, 0}";
},
{
name = top;
position = "{385, 692}";
},
{
name = topright;
position = "{674, 689}";
}
);
paths = (
{
closed = 1;
nodes = (
"504 672 LINE",
"611 664 LINE",
"604 671 LINE",
"604 254 LINE SMOOTH",
"604 101 OFFCURVE",
"557 13 OFFCURVE",
"381 13 CURVE SMOOTH",
"220 13 OFFCURVE",
"166 88 OFFCURVE",
"166 245 CURVE SMOOTH",
"166 671 LINE",
"159 663 LINE",
"266 677 LINE",
"266 692 LINE",
"46 687 LINE",
"46 672 LINE",
"153 663 LINE",
"146 671 LINE",
"146 245 LINE SMOOTH",
"146 78 OFFCURVE",
"208 -6 OFFCURVE",
"382 -6 CURVE SMOOTH",
"569 -6 OFFCURVE",
"624 90 OFFCURVE",
"624 254 CURVE SMOOTH",
"624 671 LINE",
"617 663 LINE",
"724 677 LINE",
"724 692 LINE",
"504 687 LINE"
);
},
{
closed = 1;
nodes = (
"394 730 LINE",
"394 761 LINE",
"442 767 OFFCURVE",
"467 792 OFFCURVE",
"467 828 CURVE SMOOTH",
"467 872 OFFCURVE",
"432 890 OFFCURVE",
"391 890 CURVE SMOOTH",
"371 890 OFFCURVE",
"350 886 OFFCURVE",
"331 878 CURVE",
"336 862 LINE",
"355 868 OFFCURVE",
"374 871 OFFCURVE",
"390 871 CURVE SMOOTH",
"421 871 OFFCURVE",
"444 859 OFFCURVE",
"444 827 CURVE SMOOTH",
"444 794 OFFCURVE",
"418 778 OFFCURVE",
"374 776 CURVE",
"374 730 LINE"
);
}
);
};
components = (
{
name = U;
},
{
name = hookabovecomb.case;
transform = "{1, 0, 0, 1, 242, 0}";
}
);
layerId = "075BA79B-D813-4287-A9DD-CCAF2D535ED3";
width = 755;
},
{
background = {
anchors = (
{
name = _top;
position = "{367, 710}";
},
{
name = bottom;
position = "{360, 0}";
},
{
name = ogonek;
position = "{479, 0}";
},
{
name = top;
position = "{367, 710}";
},
{
name = topright;
position = "{607, 707}";
}
);
paths = (
{
closed = 1;
nodes = (
"399 605 LINE",
"475 575 LINE",
"459 621 LINE",
"459 285 LINE SMOOTH",
"459 183 OFFCURVE",
"440 140 OFFCURVE",
"361 140 CURVE SMOOTH",
"285 140 OFFCURVE",
"269 180 OFFCURVE",
"269 270 CURVE SMOOTH",
"269 620 LINE",
"251 572 LINE",
"329 610 LINE",
"329 710 LINE",
"4 705 LINE",
"4 605 LINE",
"85 573 LINE",
"64 620 LINE",
"64 270 LINE SMOOTH",
"64 70 OFFCURVE",
"161 -15 OFFCURVE",
"355 -15 CURVE SMOOTH",
"551 -15 OFFCURVE",
"664 73 OFFCURVE",
"664 285 CURVE SMOOTH",
"664 621 LINE",
"643 572 LINE",
"724 610 LINE",
"724 710 LINE",
"399 705 LINE"
);
},
{
closed = 1;
nodes = (
"419 756 LINE",
"419 792 LINE",
"487 806 OFFCURVE",
"515 846 OFFCURVE",
"515 897 CURVE SMOOTH",
"515 977 OFFCURVE",
"448 1012 OFFCURVE",
"365 1012 CURVE SMOOTH",
"326 1012 OFFCURVE",
"284 1004 OFFCURVE",
"243 990 CURVE",
"266 903 LINE",
"288 909 OFFCURVE",
"312 914 OFFCURVE",
"332 914 CURVE SMOOTH",
"356 914 OFFCURVE",
"374 907 OFFCURVE",
"374 887 CURVE SMOOTH",
"374 863 OFFCURVE",
"348 850 OFFCURVE",
"296 847 CURVE",
"296 756 LINE"
);
}
);
};
components = (
{
name = U;
},
{
name = hookabovecomb.case;
transform = "{1, 0, 0, 1, 241, 0}";
}
);
layerId = "927AED37-E9E6-4F96-A08E-421C3785EFC6";
width = 736;
}
);
leftKerningGroup = U;
rightKerningGroup = U;
unicode = 1EE6;
},
{
glyphname = Uhorn;
layers = (
{
anchors = (
{
name = bottom;
position = "{378, 0}";
},
{
name = top;
position = "{378, 692}";
}
);
background = {
components = (
{
name = U;
transform = "{1, 0, 0, 1, -7, 0}";
},
{
name = horncomb.case;
transform = "{1, 0, 0, 1, 566, -2}";
}
);
};
layerId = "075BA79B-D813-4287-A9DD-CCAF2D535ED3";
paths = (
{
closed = 1;
nodes = (
"682 669 OFFCURVE",
"716 701 OFFCURVE",
"716 752 CURVE SMOOTH",
"716 773 OFFCURVE",
"710 796 OFFCURVE",
"700 821 CURVE",
"680 814 LINE",
"688 789 OFFCURVE",
"692 768 OFFCURVE",
"692 751 CURVE SMOOTH",
"692 711 OFFCURVE",
"670 691 OFFCURVE",
"616 690 CURVE SMOOTH",
"497 687 LINE",
"497 672 LINE",
"604 664 LINE",
"597 671 LINE",
"597 254 LINE SMOOTH",
"597 101 OFFCURVE",
"550 13 OFFCURVE",
"374 13 CURVE SMOOTH",
"213 13 OFFCURVE",
"159 88 OFFCURVE",
"159 245 CURVE SMOOTH",
"159 671 LINE",
"152 663 LINE",
"259 677 LINE",
"259 692 LINE",
"39 687 LINE",
"39 672 LINE",
"146 663 LINE",
"139 671 LINE",
"139 245 LINE SMOOTH",
"139 78 OFFCURVE",
"201 -6 OFFCURVE",
"375 -6 CURVE SMOOTH",
"562 -6 OFFCURVE",
"617 90 OFFCURVE",
"617 254 CURVE SMOOTH",
"617 680 LINE",
"611 670 LINE"
);
}
);
width = 741;
},
{
anchors = (
{
name = bottom;
position = "{364, 0}";
},
{
name = top;
position = "{371, 710}";
}
);
background = {
components = (
{
alignment = 1;
name = U;
transform = "{1, 0, 0, 1, 4, 0}";
},
{
alignment = 1;
name = horncomb.case;
transform = "{1, 0, 0, 1, 524, 0}";
}
);
};
layerId = "927AED37-E9E6-4F96-A08E-421C3785EFC6";
paths = (
{
closed = 1;
nodes = (
"708 604 OFFCURVE",
"782 665 OFFCURVE",
"782 752 CURVE SMOOTH",
"782 786 OFFCURVE",
"771 824 OFFCURVE",
"749 867 CURVE",
"607 837 LINE",
"619 806 OFFCURVE",
"626 779 OFFCURVE",
"626 759 CURVE SMOOTH",
"626 728 OFFCURVE",
"608 710 OFFCURVE",
"565 709 CURVE SMOOTH",
"403 705 LINE",
"403 605 LINE",
"479 575 LINE",
"463 621 LINE",
"463 285 LINE SMOOTH",
"463 183 OFFCURVE",
"444 140 OFFCURVE",
"365 140 CURVE SMOOTH",
"289 140 OFFCURVE",
"273 180 OFFCURVE",
"273 270 CURVE SMOOTH",
"273 620 LINE",
"255 572 LINE",
"333 610 LINE",
"333 710 LINE",
"8 705 LINE",
"8 605 LINE",
"89 573 LINE",
"68 620 LINE",
"68 270 LINE SMOOTH",
"68 70 OFFCURVE",
"165 -15 OFFCURVE",
"359 -15 CURVE SMOOTH",
"555 -15 OFFCURVE",
"668 73 OFFCURVE",
"668 285 CURVE SMOOTH",
"668 647 LINE",
"578 609 LINE"
);
}
);
width = 757;
}
);
leftKerningGroup = U;
leftMetricsKey = U;
rightKerningGroup = Uhorn;
unicode = 01AF;
},
{
glyphname = Utildeacute;
layers = (
{
components = (
{
name = U;
},
{
alignment = 1;
name = tildecomb_acutecomb.case;
transform = "{1, 0, 0, 1, 138, 0}";
}
);
layerId = "075BA79B-D813-4287-A9DD-CCAF2D535ED3";
width = 755;
},
{
background = {
paths = (
{
closed = 1;
nodes = (
"255 789 OFFCURVE",
"269 803 OFFCURVE",
"290 803 CURVE SMOOTH",
"326 803 OFFCURVE",
"391 760 OFFCURVE",
"443 760 CURVE SMOOTH",
"503 760 OFFCURVE",
"548 802 OFFCURVE",
"577 904 CURVE",
"495 939 LINE",
"475 907 OFFCURVE",
"458 892 OFFCURVE",
"434 892 CURVE SMOOTH",
"394 892 OFFCURVE",
"333 936 OFFCURVE",
"278 936 CURVE SMOOTH",
"221 936 OFFCURVE",
"182 894 OFFCURVE",
"154 794 CURVE",
"234 758 LINE"
);
},
{
closed = 1;
nodes = (
"526 1039 LINE",
"459 1182 LINE",
"202 1043 LINE",
"244 948 LINE"
);
}
);
};
components = (
{
name = U;
},
{
alignment = 1;
name = tildecomb_acutecomb.case;
transform = "{1, 0, 0, 1, 128, 0}";
}
);
layerId = "927AED37-E9E6-4F96-A08E-421C3785EFC6";
width = 736;
}
);
leftKerningGroup = U;
rightKerningGroup = U;
unicode = 1E78;
},
{
glyphname = V;
layers = (
{
anchors = (
{
name = bottom;
position = "{338, 0}";
},
{
name = top;
position = "{338, 692}";
}
);
background = {
paths = (
{
closed = 1;
nodes = (
"343 -2 LINE",
"576 664 LINE",
"554 664 LINE",
"330 19 LINE",
"338 19 LINE",
"124 664 LINE",
"101 664 LINE",
"323 -2 LINE"
);
},
{
closed = 1;
nodes = (
"124 664 LINE",
"239 677 LINE",
"239 692 LINE",
"6 687 LINE",
"6 672 LINE",
"101 664 LINE"
);
},
{
closed = 1;
nodes = (
"576 664 LINE",
"671 677 LINE",
"671 692 LINE",
"439 687 LINE",
"439 672 LINE",
"554 664 LINE"
);
}
);
};
layerId = "075BA79B-D813-4287-A9DD-CCAF2D535ED3";
paths = (
{
closed = 1;
nodes = (
"343 -2 LINE",
"578 670 LINE",
"569 663 LINE",
"671 677 LINE",
"671 692 LINE",
"439 687 LINE",
"439 672 LINE",
"561 664 LINE",
"558 670 LINE",
"331 19 LINE",
"336 19 LINE",
"120 670 LINE",
"117 663 LINE",
"239 677 LINE",
"239 692 LINE",
"6 687 LINE",
"6 672 LINE",
"108 663 LINE",
"99 670 LINE",
"323 -2 LINE"
);
}
);
width = 677;
},
{
anchors = (
{
name = bottom;
position = "{362, 0}";
},
{
name = top;
position = "{382, 710}";
}
);
layerId = "927AED37-E9E6-4F96-A08E-421C3785EFC6";
paths = (
{
closed = 1;
nodes = (
"467 0 LINE",
"684 610 LINE",
"639 576 LINE",
"724 610 LINE",
"724 710 LINE",
"439 705 LINE",
"439 605 LINE",
"515 572 LINE",
"499 611 LINE",
"362 177 LINE",
"390 177 LINE",
"269 624 LINE",
"245 575 LINE",
"330 610 LINE",
"330 710 LINE",
"3 705 LINE",
"3 605 LINE",
"89 571 LINE",
"43 605 LINE",
"249 0 LINE"
);
}
);
width = 725;
}
);
leftKerningGroup = V;
rightKerningGroup = V;
unicode = 0056;
},
{
glyphname = W;
layers = (
{
anchors = (
{
name = bottom;
position = "{513, 0}";
},
{
name = top;
position = "{516, 692}";
}
);
background = {
paths = (
{
closed = 1;
nodes = (
"304 -2 LINE",
"520 672 LINE",
"510 672 LINE",
"712 -2 LINE",
"734 -2 LINE",
"926 664 LINE",
"906 664 LINE",
"719 13 LINE",
"729 13 LINE",
"525 692 LINE",
"506 689 LINE",
"290 14 LINE",
"298 14 LINE",
"125 664 LINE",
"104 664 LINE",
"281 -2 LINE"
);
},
{
closed = 1;
nodes = (
"125 664 LINE",
"241 677 LINE",
"241 692 LINE",
"7 687 LINE",
"7 672 LINE",
"104 664 LINE"
);
},
{
closed = 1;
nodes = (
"926 664 LINE",
"1020 677 LINE",
"1020 692 LINE",
"791 687 LINE",
"791 672 LINE",
"906 664 LINE"
);
}
);
};
layerId = "075BA79B-D813-4287-A9DD-CCAF2D535ED3";
paths = (
{
closed = 1;
nodes = (
"791 672 LINE",
"913 664 LINE",
"908 670 LINE",
"724 24 LINE",
"728 24 LINE",
"525 692 LINE",
"506 689 LINE",
"292 22 LINE",
"296 21 LINE",
"123 671 LINE",
"118 663 LINE",
"241 677 LINE",
"241 692 LINE",
"7 687 LINE",
"7 672 LINE",
"111 663 LINE",
"102 671 LINE",
"281 -2 LINE",
"304 -2 LINE",
"517 662 LINE",
"513 662 LINE",
"715 -2 LINE",
"736 -2 LINE",
"928 670 LINE",
"919 663 LINE",
"1020 677 LINE",
"1020 692 LINE",
"791 687 LINE"
);
}
);
width = 1027;
},
{
anchors = (
{
name = bottom;
position = "{502, 0}";
},
{
name = top;
position = "{523, 710}";
}
);
background = {
paths = (
{
closed = 1;
nodes = (
"765 0 LINE",
"982 610 LINE",
"937 576 LINE",
"1014 610 LINE",
"1014 710 LINE",
"734 705 LINE",
"734 605 LINE",
"813 572 LINE",
"797 611 LINE",
"663 177 LINE",
"686 177 LINE",
"567 624 LINE",
"543 575 LINE",
"626 610 LINE",
"626 710 LINE",
"306 705 LINE",
"306 605 LINE",
"387 571 LINE",
"341 605 LINE",
"547 0 LINE"
);
}
);
};
layerId = "927AED37-E9E6-4F96-A08E-421C3785EFC6";
paths = (
{
closed = 1;
nodes = (
"737 605 LINE",
"813 575 LINE",
"797 611 LINE",
"697 183 LINE",
"739 184 LINE",
"612 710 LINE",
"424 705 LINE",
"295 182 LINE",
"337 182 LINE",
"254 611 LINE",
"230 575 LINE",
"299 610 LINE",
"299 710 LINE",
"2 705 LINE",
"2 605 LINE",
"61 580 LINE",
"45 611 LINE",
"204 0 LINE",
"394 0 LINE",
"522 465 LINE",
"485 466 LINE",
"608 0 LINE",
"801 0 LINE",
"976 629 LINE",
"931 577 LINE",
"1017 610 LINE",
"1017 710 LINE",
"737 705 LINE"
);
}
);
width = 1018;
}
);
leftKerningGroup = V;
rightKerningGroup = V;
unicode = 0057;
},
{
glyphname = X;
layers = (
{
background = {
paths = (
{
closed = 1;
nodes = (
"252 0 LINE",
"252 15 LINE",
"140 27 LINE",
"120 27 LINE",
"26 15 LINE",
"26 0 LINE"
);
},
{
closed = 1;
nodes = (
"659 0 LINE",
"659 15 LINE",
"566 27 LINE",
"544 27 LINE",
"433 15 LINE",
"433 0 LINE"
);
},
{
closed = 1;
nodes = (
"157 664 LINE",
"262 677 LINE",
"262 692 LINE",
"41 687 LINE",
"41 672 LINE",
"135 664 LINE"
);
},
{
closed = 1;
nodes = (
"549 664 LINE",
"644 677 LINE",
"644 692 LINE",
"423 687 LINE",
"423 672 LINE",
"529 664 LINE"
);
},
{
closed = 1;
nodes = (
"566 27 LINE",
"157 664 LINE",
"135 664 LINE",
"544 27 LINE"
);
},
{
closed = 1;
nodes = (
"140 27 LINE",
"344 346 LINE",
"348 357 LINE",
"549 664 LINE",
"529 664 LINE",
"339 374 LINE",
"334 361 LINE",
"120 27 LINE"
);
}
);
};
layerId = "075BA79B-D813-4287-A9DD-CCAF2D535ED3";
paths = (
{
closed = 1;
nodes = (
"347 368 LINE",
"347 356 LINE",
"553 670 LINE",
"542 663 LINE",
"644 677 LINE",
"644 692 LINE",
"423 687 LINE",
"423 672 LINE",
"536 663 LINE",
"533 670 LINE",
"337 371 LINE",
"345 371 LINE",
"153 670 LINE",
"150 663 LINE",
"262 677 LINE",
"262 692 LINE",
"41 687 LINE",
"41 672 LINE",
"142 663 LINE",
"131 670 LINE",
"336 352 LINE",
"336 364 LINE",
"116 21 LINE",
"127 28 LINE",
"26 15 LINE",
"26 0 LINE",
"252 0 LINE",
"252 15 LINE",
"133 28 LINE",
"136 21 LINE",
"346 348 LINE",
"338 348 LINE",
"548 21 LINE",
"551 28 LINE",
"433 15 LINE",
"433 0 LINE",
"659 0 LINE",
"659 15 LINE",
"559 28 LINE",
"570 21 LINE"
);
}
);
width = 684;
},
{
background = {
paths = (
{
closed = 1;
nodes = (
"471 387 LINE",
"462 339 LINE",
"676 610 LINE",
"629 568 LINE",
"700 610 LINE",
"700 710 LINE",
"434 705 LINE",
"434 605 LINE",
"499 576 LINE",
"489 604 LINE",
"372 449 LINE",
"411 448 LINE",
"288 604 LINE",
"281 580 LINE",
"342 610 LINE",
"342 710 LINE",
"19 705 LINE",
"19 605 LINE",
"85 581 LINE",
"41 610 LINE",
"256 334 LINE",
"261 373 LINE",
"32 89 LINE",
"84 134 LINE",
"12 100 LINE",
"12 0 LINE",
"281 0 LINE",
"281 100 LINE",
"210 135 LINE",
"219 92 LINE",
"363 275 LINE",
"315 274 LINE",
"454 100 LINE",
"447 130 LINE",
"382 100 LINE",
"382 0 LINE",
"711 0 LINE",
"711 100 LINE",
"638 133 LINE",
"696 91 LINE"
);
}
);
};
layerId = "927AED37-E9E6-4F96-A08E-421C3785EFC6";
paths = (
{
closed = 1;
nodes = (
"468 387 LINE",
"462 339 LINE",
"676 610 LINE",
"629 568 LINE",
"700 610 LINE",
"700 710 LINE",
"434 705 LINE",
"434 605 LINE",
"499 576 LINE",
"489 604 LINE",
"372 449 LINE",
"416 439 LINE",
"293 604 LINE",
"286 580 LINE",
"347 610 LINE",
"347 710 LINE",
"24 705 LINE",
"24 605 LINE",
"90 581 LINE",
"46 610 LINE",
"261 325 LINE",
"263 375 LINE",
"34 89 LINE",
"86 134 LINE",
"14 100 LINE",
"14 0 LINE",
"283 0 LINE",
"283 100 LINE",
"212 135 LINE",
"221 92 LINE",
"363 278 LINE",
"316 276 LINE",
"454 100 LINE",
"447 130 LINE",
"382 100 LINE",
"382 0 LINE",
"711 0 LINE",
"711 100 LINE",
"638 133 LINE",
"696 91 LINE"
);
}
);
width = 724;
}
);
leftKerningGroup = X;
rightKerningGroup = X;
unicode = 0058;
},
{
glyphname = Y;
layers = (
{
anchors = (
{
name = bottom;
position = "{317, 0}";
},
{
name = top;
position = "{317, 692}";
}
);
background = {
paths = (
{
closed = 1;
nodes = (
"327 259 LINE",
"535 664 LINE",
"515 664 LINE",
"317 279 LINE",
"319 279 LINE",
"122 664 LINE",
"101 664 LINE",
"307 259 LINE"
);
},
{
closed = 1;
nodes = (
"122 664 LINE",
"240 677 LINE",
"240 692 LINE",
"5 687 LINE",
"5 672 LINE",
"101 664 LINE"
);
},
{
closed = 1;
nodes = (
"535 664 LINE",
"630 677 LINE",
"630 692 LINE",
"398 687 LINE",
"398 672 LINE",
"515 664 LINE"
);
},
{
closed = 1;
nodes = (
"327 259 LINE",
"307 259 LINE",
"307 28 LINE",
"327 28 LINE"
);
},
{
closed = 1;
nodes = (
"427 0 LINE",
"427 15 LINE",
"327 28 LINE",
"307 28 LINE",
"207 15 LINE",
"207 0 LINE"
);
}
);
};
layerId = "075BA79B-D813-4287-A9DD-CCAF2D535ED3";
paths = (
{
closed = 1;
nodes = (
"427 0 LINE",
"427 15 LINE",
"320 29 LINE",
"327 21 LINE",
"327 268 LINE",
"323 251 LINE",
"538 670 LINE",
"528 663 LINE",
"630 677 LINE",
"630 692 LINE",
"398 687 LINE",
"398 672 LINE",
"522 664 LINE",
"518 670 LINE",
"315 275 LINE",
"321 275 LINE",
"119 670 LINE",
"115 663 LINE",
"240 677 LINE",
"240 692 LINE",
"5 687 LINE",
"5 672 LINE",
"108 663 LINE",
"98 670 LINE",
"311 251 LINE",
"307 268 LINE",
"307 21 LINE",
"314 29 LINE",
"207 15 LINE",
"207 0 LINE"
);
}
);
width = 635;
},
{
anchors = (
{
name = bottom;
position = "{327, 0}";
},
{
name = top;
position = "{333, 710}";
}
);
background = {
paths = (
{
closed = 1;
nodes = (
"490 0 LINE",
"490 100 LINE",
"399 135 LINE",
"426 95 LINE",
"426 288 LINE",
"412 223 LINE",
"620 609 LINE",
"584 580 LINE",
"643 610 LINE",
"643 710 LINE",
"379 705 LINE",
"379 605 LINE",
"454 571 LINE",
"440 605 LINE",
"322 361 LINE",
"355 361 LINE",
"240 614 LINE",
"230 580 LINE",
"301 610 LINE",
"301 710 LINE",
"11 705 LINE",
"11 605 LINE",
"68 573 LINE",
"33 603 LINE",
"238 223 LINE",
"221 288 LINE",
"221 95 LINE",
"247 135 LINE",
"156 100 LINE",
"156 0 LINE"
);
}
);
};
layerId = "927AED37-E9E6-4F96-A08E-421C3785EFC6";
paths = (
{
closed = 1;
nodes = (
"490 0 LINE",
"490 100 LINE",
"399 135 LINE",
"426 95 LINE",
"426 281 LINE",
"412 216 LINE",
"620 609 LINE",
"584 580 LINE",
"653 610 LINE",
"653 710 LINE",
"379 705 LINE",
"379 605 LINE",
"454 571 LINE",
"440 605 LINE",
"322 354 LINE",
"360 354 LINE",
"245 614 LINE",
"230 580 LINE",
"301 610 LINE",
"301 710 LINE",
"1 705 LINE",
"1 605 LINE",
"68 573 LINE",
"33 603 LINE",
"238 216 LINE",
"221 281 LINE",
"221 95 LINE",
"247 135 LINE",
"156 100 LINE",
"156 0 LINE"
);
}
);
width = 654;
}
);
leftKerningGroup = Y;
rightKerningGroup = Y;
unicode = 0059;
},
{
glyphname = Z;
layers = (
{
anchors = (
{
name = bottom;
position = "{303, 0}";
},
{
name = top;
position = "{307, 692}";
}
);
background = {
paths = (
{
closed = 1;
nodes = (
"525 0 LINE",
"515 20 LINE",
"84 20 LINE",
"54 16 LINE",
"54 0 LINE"
);
},
{
closed = 1;
nodes = (
"529 138 LINE",
"514 138 LINE",
"499 12 LINE",
"525 0 LINE"
);
},
{
closed = 1;
nodes = (
"83 20 LINE",
"526 676 LINE",
"499 672 LINE",
"54 16 LINE"
);
},
{
closed = 1;
nodes = (
"94 556 LINE",
"109 680 LINE",
"79 692 LINE",
"79 556 LINE"
);
},
{
closed = 1;
nodes = (
"500 672 LINE",
"526 676 LINE",
"526 692 LINE",
"79 692 LINE",
"89 672 LINE"
);
}
);
};
layerId = "075BA79B-D813-4287-A9DD-CCAF2D535ED3";
paths = (
{
closed = 1;
nodes = (
"545 0 LINE",
"549 145 LINE",
"534 145 LINE",
"515 13 LINE",
"527 20 LINE",
"76 20 LINE",
"79 14 LINE",
"542 676 LINE",
"542 692 LINE",
"77 692 LINE",
"77 547 LINE",
"92 547 LINE",
"108 679 LINE",
"99 672 LINE",
"522 672 LINE",
"519 678 LINE",
"54 16 LINE",
"54 0 LINE"
);
}
);
width = 610;
},
{
anchors = (
{
name = bottom;
position = "{316, 0}";
},
{
name = top;
position = "{316, 710}";
}
);
background = {
paths = (
{
closed = 1;
nodes = (
"587 0 LINE",
"454 150 LINE",
"271 150 LINE",
"24 135 LINE",
"24 0 LINE"
);
},
{
closed = 1;
nodes = (
"587 221 LINE",
"468 221 LINE",
"454 150 LINE",
"587 0 LINE"
);
},
{
closed = 1;
nodes = (
"271 150 LINE",
"584 576 LINE",
"343 560 LINE",
"24 135 LINE"
);
},
{
closed = 1;
nodes = (
"157 489 LINE",
"178 560 LINE",
"46 710 LINE",
"46 489 LINE"
);
},
{
closed = 1;
nodes = (
"343 560 LINE",
"584 576 LINE",
"584 710 LINE",
"46 710 LINE",
"178 560 LINE"
);
}
);
};
layerId = "927AED37-E9E6-4F96-A08E-421C3785EFC6";
paths = (
{
closed = 1;
nodes = (
"597 0 LINE",
"597 230 LINE",
"475 230 LINE",
"455 120 LINE",
"494 147 LINE",
"241 147 LINE",
"247 117 LINE",
"594 576 LINE",
"594 710 LINE",
"47 710 LINE",
"47 480 LINE",
"167 480 LINE",
"194 583 LINE",
"149 563 LINE",
"393 563 LINE",
"372 585 LINE",
"24 135 LINE",
"24 0 LINE"
);
}
);
width = 630;
}
);
leftKerningGroup = Z;
rightKerningGroup = Z;
unicode = 005A;
},
{
glyphname = Q.alt;
layers = (
{
anchors = (
{
name = bottom;
position = "{385, 0}";
},
{
name = top;
position = "{385, 692}";
}
);
background = {
components = (
{
name = Q;
}
);
};
layerId = "075BA79B-D813-4287-A9DD-CCAF2D535ED3";
paths = (
{
closed = 1;
nodes = (
"702 -154 OFFCURVE",
"735 -138 OFFCURVE",
"790 -105 CURVE",
"756 -139 LINE",
"740 -104 LINE",
"780 -90 LINE",
"729 -120 OFFCURVE",
"698 -134 OFFCURVE",
"666 -134 CURVE SMOOTH",
"608 -134 OFFCURVE",
"543 -89 OFFCURVE",
"401 -2 CURVE",
"403 -5 LINE",
"563 8 OFFCURVE",
"691 135 OFFCURVE",
"691 356 CURVE SMOOTH",
"691 591 OFFCURVE",
"546 698 OFFCURVE",
"389 698 CURVE SMOOTH",
"225 698 OFFCURVE",
"79 581 OFFCURVE",
"79 341 CURVE SMOOTH",
"79 109 OFFCURVE",
"214 -4 OFFCURVE",
"373 -6 CURVE",
"362 -2 LINE",
"528 -104 OFFCURVE",
"603 -154 OFFCURVE",
"666 -154 CURVE SMOOTH"
);
},
{
closed = 1;
nodes = (
"229 14 OFFCURVE",
"101 121 OFFCURVE",
"101 342 CURVE SMOOTH",
"101 568 OFFCURVE",
"235 678 OFFCURVE",
"388 678 CURVE SMOOTH",
"539 678 OFFCURVE",
"669 570 OFFCURVE",
"669 353 CURVE SMOOTH",
"669 129 OFFCURVE",
"532 14 OFFCURVE",
"378 14 CURVE SMOOTH"
);
}
);
width = 770;
},
{
anchors = (
{
name = bottom;
position = "{361, 0}";
},
{
name = top;
position = "{361, 710}";
}
);
background = {
components = (
{
name = Q;
}
);
};
layerId = "927AED37-E9E6-4F96-A08E-421C3785EFC6";
paths = (
{
closed = 1;
nodes = (
"687 -213 OFFCURVE",
"759 -175 OFFCURVE",
"871 -96 CURVE",
"713 -245 LINE",
"664 -18 LINE",
"799 -2 LINE",
"714 -36 OFFCURVE",
"667 -53 OFFCURVE",
"627 -53 CURVE SMOOTH",
"578 -53 OFFCURVE",
"543 -28 OFFCURVE",
"471 26 CURVE",
"465 3 LINE",
"609 39 OFFCURVE",
"700 182 OFFCURVE",
"700 371 CURVE SMOOTH",
"700 594 OFFCURVE",
"585 725 OFFCURVE",
"369 725 CURVE SMOOTH",
"153 725 OFFCURVE",
"23 594 OFFCURVE",
"23 345 CURVE SMOOTH",
"23 114 OFFCURVE",
"135 -13 OFFCURVE",
"341 -15 CURVE",
"297 0 LINE",
"456 -143 OFFCURVE",
"527 -213 OFFCURVE",
"619 -213 CURVE SMOOTH"
);
},
{
closed = 1;
nodes = (
"273 140 OFFCURVE",
"243 194 OFFCURVE",
"243 351 CURVE SMOOTH",
"243 514 OFFCURVE",
"273 570 OFFCURVE",
"360 570 CURVE SMOOTH",
"449 570 OFFCURVE",
"480 517 OFFCURVE",
"480 363 CURVE SMOOTH",
"480 197 OFFCURVE",
"449 140 OFFCURVE",
"359 140 CURVE SMOOTH"
);
}
);
width = 722;
}
);
leftKerningGroup = O;
rightKerningGroup = O;
},
{
export = 0;
glyphname = A.ogonekAccent;
layers = (
{
anchors = (
{
name = bottom;
position = "{354, 0}";
},
{
name = ogonek;
position = "{611, 0}";
},
{
name = top;
position = "{359, 692}";
}
);
background = {
components = (
{
name = A;
}
);
};
layerId = "075BA79B-D813-4287-A9DD-CCAF2D535ED3";
paths = (
{
closed = 1;
nodes = (
"368 693 LINE",
"349 691 LINE",
"97 22 LINE",
"105 29 LINE",
"6 15 LINE",
"6 0 LINE",
"235 0 LINE",
"235 15 LINE",
"113 29 LINE",
"118 22 LINE",
"189 213 LINE",
"179 206 LINE",
"525 206 LINE",
"517 211 LINE",
"591 0 LINE",
"698 0 LINE",
"698 15 LINE",
"596 29 LINE",
"605 22 LINE"
);
},
{
closed = 1;
nodes = (
"360 672 LINE",
"356 672 LINE",
"514 220 LINE",
"518 225 LINE",
"185 225 LINE",
"191 219 LINE"
);
}
);
width = 704;
},
{
anchors = (
{
name = bottom;
position = "{341, 0}";
},
{
name = ogonek;
position = "{581, 0}";
},
{
name = top;
position = "{365, 710}";
}
);
background = {
components = (
{
name = A;
}
);
};
layerId = "927AED37-E9E6-4F96-A08E-421C3785EFC6";
paths = (
{
closed = 1;
nodes = (
"471 713 LINE",
"260 708 LINE",
"32 94 LINE",
"77 133 LINE",
"1 100 LINE",
"1 0 LINE",
"279 0 LINE",
"279 100 LINE",
"219 127 LINE",
"223 108 LINE",
"252 202 LINE",
"231 180 LINE",
"455 180 LINE",
"426 205 LINE",
"481 0 LINE",
"716 0 LINE",
"716 100 LINE",
"638 135 LINE",
"689 89 LINE"
);
},
{
closed = 1;
nodes = (
"375 604 LINE",
"327 605 LINE",
"404 289 LINE",
"423 320 LINE",
"268 320 LINE",
"280 294 LINE"
);
}
);
width = 718;
}
);
leftKerningGroup = A;
rightKerningGroup = A;
},
{
color = 0;
glyphname = a;
layers = (
{
anchors = (
{
name = bottom;
position = "{268, 0}";
},
{
name = ogonek;
position = "{429, 0}";
},
{
name = top;
position = "{260, 522}";
}
);
background = {
paths = (
{
closed = 1;
nodes = (
"399 106 LINE",
"250 -24 OFFCURVE",
"91 -14 OFFCURVE",
"91 140 CURVE SMOOTH",
"91 216 OFFCURVE",
"130 253 OFFCURVE",
"260 253 CURVE SMOOTH",
"401 253 LINE",
"401 272 LINE",
"257 272 LINE SMOOTH",
"156 272 OFFCURVE",
"70 250 OFFCURVE",
"70 133 CURVE SMOOTH",
"70 -42 OFFCURVE",
"262 -44 OFFCURVE",
"400 87 CURVE"
);
},
{
closed = 1;
nodes = (
"509 2 LINE",
"509 14 LINE",
"419 31 LINE",
"419 394 LINE",
"399 391 LINE",
"399 106 LINE",
"404 -2 LINE"
);
},
{
closed = 1;
nodes = (
"419 394 LINE",
"419 547 OFFCURVE",
"262 554 OFFCURVE",
"97 491 CURVE",
"105 392 LINE",
"122 392 LINE",
"128 481 LINE",
"272 533 OFFCURVE",
"399 521 OFFCURVE",
"399 391 CURVE"
);
}
);
};
layerId = "075BA79B-D813-4287-A9DD-CCAF2D535ED3";
paths = (
{
closed = 1;
nodes = (
"419 394 LINE SMOOTH",
"419 490 OFFCURVE",
"358 528 OFFCURVE",
"268 528 CURVE SMOOTH",
"216 528 OFFCURVE",
"155 515 OFFCURVE",
"93 491 CURVE",
"101 392 LINE",
"118 392 LINE",
"125 490 LINE",
"118 479 LINE",
"171 499 OFFCURVE",
"223 509 OFFCURVE",
"267 509 CURVE SMOOTH",
"347 509 OFFCURVE",
"399 475 OFFCURVE",
"399 391 CURVE SMOOTH",
"399 268 LINE",
"406 275 LINE",
"248 275 LINE SMOOTH",
"149 275 OFFCURVE",
"70 254 OFFCURVE",
"70 136 CURVE SMOOTH",
"70 40 OFFCURVE",
"122 -6 OFFCURVE",
"198 -6 CURVE SMOOTH",
"266 -6 OFFCURVE",
"342 30 OFFCURVE",
"404 91 CURVE",
"400 94 LINE",
"404 -2 LINE",
"509 2 LINE",
"509 17 LINE",
"412 27 LINE",
"419 19 LINE"
);
},
{
closed = 1;
nodes = (
"91 227 OFFCURVE",
"137 256 OFFCURVE",
"250 256 CURVE SMOOTH",
"406 256 LINE",
"399 263 LINE",
"399 99 LINE",
"404 110 LINE",
"337 48 OFFCURVE",
"261 13 OFFCURVE",
"201 13 CURVE SMOOTH",
"137 13 OFFCURVE",
"91 53 OFFCURVE",
"91 140 CURVE SMOOTH"
);
}
);
width = 534;
},
{
anchors = (
{
name = bottom;
position = "{287, 0}";
},
{
name = ogonek;
position = "{482, 0}";
},
{
name = top;
position = "{287, 540}";
}
);
background = {
paths = (
{
closed = 1;
nodes = (
"244 0 LINE",
"244 100 LINE",
"183 126 LINE",
"199 99 LINE",
"199 394 LINE",
"187 366 LINE",
"217 392 OFFCURVE",
"248 405 OFFCURVE",
"272 405 CURVE SMOOTH",
"300 405 OFFCURVE",
"319 387 OFFCURVE",
"319 350 CURVE SMOOTH",
"319 99 LINE",
"340 127 LINE",
"274 100 LINE",
"274 0 LINE",
"564 0 LINE",
"564 100 LINE",
"503 129 LINE",
"519 103 LINE",
"519 388 LINE SMOOTH",
"519 492 OFFCURVE",
"450 555 OFFCURVE",
"362 555 CURVE SMOOTH",
"299 555 OFFCURVE",
"225 524 OFFCURVE",
"161 461 CURVE",
"179 453 LINE",
"155 546 LINE",
"-56 536 LINE",
"-56 436 LINE",
"21 406 LINE",
"-1 436 LINE",
"-1 103 LINE",
"21 130 LINE",
"-56 100 LINE",
"-56 0 LINE"
);
}
);
};
layerId = "927AED37-E9E6-4F96-A08E-421C3785EFC6";
paths = (
{
closed = 1;
nodes = (
"517 376 LINE SMOOTH",
"517 497 OFFCURVE",
"448 555 OFFCURVE",
"305 555 CURVE SMOOTH",
"236 555 OFFCURVE",
"150 542 OFFCURVE",
"46 515 CURVE",
"54 348 LINE",
"174 348 LINE",
"190 419 LINE",
"175 401 LINE",
"203 407 OFFCURVE",
"229 410 OFFCURVE",
"249 410 CURVE SMOOTH",
"297 410 OFFCURVE",
"317 390 OFFCURVE",
"317 339 CURVE SMOOTH",
"317 303 LINE",
"327 313 LINE",
"239 313 LINE SMOOTH",
"85 313 OFFCURVE",
"15 263 OFFCURVE",
"15 154 CURVE SMOOTH",
"15 51 OFFCURVE",
"77 -15 OFFCURVE",
"174 -15 CURVE SMOOTH",
"244 -15 OFFCURVE",
"303 18 OFFCURVE",
"348 81 CURVE",
"336 84 LINE",
"361 -10 LINE",
"572 0 LINE",
"572 100 LINE",
"491 136 LINE",
"517 97 LINE"
);
},
{
closed = 1;
nodes = (
"215 211 OFFCURVE",
"230 223 OFFCURVE",
"272 223 CURVE SMOOTH",
"328 223 LINE",
"317 234 LINE",
"317 135 LINE",
"323 157 LINE",
"304 136 OFFCURVE",
"280 124 OFFCURVE",
"259 124 CURVE SMOOTH",
"234 124 OFFCURVE",
"215 141 OFFCURVE",
"215 178 CURVE SMOOTH"
);
}
);
width = 575;
},
{
anchors = (
{
name = bottom;
position = "{273, 0}";
},
{
name = ogonek;
position = "{534, 1}";
},
{
name = top;
position = "{269, 530}";
}
);
associatedMasterId = "075BA79B-D813-4287-A9DD-CCAF2D535ED3";
background = {
paths = (
{
closed = 1;
nodes = (
"459 386 LINE SMOOTH",
"459 493 OFFCURVE",
"394 540 OFFCURVE",
"282 540 CURVE SMOOTH",
"223 540 OFFCURVE",
"155 527 OFFCURVE",
"74 502 CURVE",
"82 374 LINE",
"145 374 LINE",
"156 458 LINE",
"145 444 LINE",
"187 458 OFFCURVE",
"224 465 OFFCURVE",
"257 465 CURVE SMOOTH",
"321 465 OFFCURVE",
"359 437 OFFCURVE",
"359 368 CURVE SMOOTH",
"359 282 LINE",
"368 293 LINE",
"246 293 LINE SMOOTH",
"124 293 OFFCURVE",
"45 257 OFFCURVE",
"45 142 CURVE SMOOTH",
"45 44 OFFCURVE",
"104 -10 OFFCURVE",
"188 -10 CURVE SMOOTH",
"254 -10 OFFCURVE",
"320 23 OFFCURVE",
"376 87 CURVE",
"368 90 LINE",
"382 -6 LINE",
"534 1 LINE",
"534 54 LINE",
"444 75 LINE",
"459 54 LINE"
);
},
{
closed = 1;
nodes = (
"146 206 OFFCURVE",
"174 233 OFFCURVE",
"262 233 CURVE SMOOTH",
"368 233 LINE",
"359 241 LINE",
"359 115 LINE",
"365 139 LINE",
"319 94 OFFCURVE",
"264 63 OFFCURVE",
"222 63 CURVE SMOOTH",
"178 63 OFFCURVE",
"146 91 OFFCURVE",
"146 154 CURVE SMOOTH"
);
}
);
};
layerId = "91C4189D-5999-4309-A290-3D294E67BEB4";
name = "{100}";
paths = (
{
closed = 1;
nodes = (
"459 386 LINE SMOOTH",
"459 493 OFFCURVE",
"394 540 OFFCURVE",
"282 540 CURVE SMOOTH",
"223 540 OFFCURVE",
"155 527 OFFCURVE",
"74 502 CURVE",
"82 369 LINE",
"148 369 LINE",
"159 458 LINE",
"145 444 LINE",
"187 458 OFFCURVE",
"224 465 OFFCURVE",
"257 465 CURVE SMOOTH",
"321 465 OFFCURVE",
"359 437 OFFCURVE",
"359 368 CURVE SMOOTH",
"359 282 LINE",
"368 293 LINE",
"246 293 LINE SMOOTH",
"124 293 OFFCURVE",
"45 257 OFFCURVE",
"45 142 CURVE SMOOTH",
"45 41 OFFCURVE",
"108 -10 OFFCURVE",
"186 -10 CURVE SMOOTH",
"248 -10 OFFCURVE",
"319 22 OFFCURVE",
"376 87 CURVE",
"368 90 LINE",
"382 -6 LINE",
"534 1 LINE",
"534 54 LINE",
"444 75 LINE",
"459 54 LINE"
);
},
{
closed = 1;
nodes = (
"146 202 OFFCURVE",
"174 229 OFFCURVE",
"262 229 CURVE SMOOTH",
"368 229 LINE",
"359 239 LINE",
"359 115 LINE",
"365 140 LINE",
"317 94 OFFCURVE",
"263 65 OFFCURVE",
"220 65 CURVE SMOOTH",
"177 65 OFFCURVE",
"146 91 OFFCURVE",
"146 149 CURVE SMOOTH"
);
}
);
width = 551;
}
);
leftKerningGroup = a;
rightKerningGroup = n;
unicode = 0061;
},
{
color = 0;
glyphname = ae;
layers = (
{
anchors = (
{
name = bottom;
position = "{446, 0}";
},
{
name = top;
position = "{446, 522}";
}
);
background = {
paths = (
{
closed = 1;
nodes = (
"118 392 LINE",
"125 490 LINE",
"118 479 LINE",
"171 499 OFFCURVE",
"223 509 OFFCURVE",
"267 509 CURVE SMOOTH",
"347 509 OFFCURVE",
"399 475 OFFCURVE",
"399 391 CURVE SMOOTH",
"399 274 LINE",
"408 283 LINE",
"249 283 LINE SMOOTH",
"155 283 OFFCURVE",
"70 263 OFFCURVE",
"70 137 CURVE SMOOTH",
"70 -41 OFFCURVE",
"315 -58 OFFCURVE",
"434 112 CURVE",
"426 114 LINE",
"461 36 OFFCURVE",
"530 -6 OFFCURVE",
"612 -6 CURVE SMOOTH",
"674 -6 OFFCURVE",
"744 18 OFFCURVE",
"815 67 CURVE",
"804 83 LINE",
"738 36 OFFCURVE",
"673 14 OFFCURVE",
"616 14 CURVE SMOOTH",
"502 14 OFFCURVE",
"420 99 OFFCURVE",
"420 256 CURVE SMOOTH",
"420 273 LINE",
"411 264 LINE",
"813 264 LINE",
"814 276 OFFCURVE",
"814 278 OFFCURVE",
"814 296 CURVE SMOOTH",
"814 431 OFFCURVE",
"755 528 OFFCURVE",
"624 528 CURVE SMOOTH",
"523 528 OFFCURVE",
"449 469 OFFCURVE",
"417 374 CURVE",
"419 371 LINE",
"419 394 LINE SMOOTH",
"419 490 OFFCURVE",
"358 528 OFFCURVE",
"268 528 CURVE SMOOTH",
"216 528 OFFCURVE",
"155 515 OFFCURVE",
"93 491 CURVE",
"101 392 LINE"
);
},
{
closed = 1;
nodes = (
"427 132 LINE",
"320 -30 OFFCURVE",
"91 -25 OFFCURVE",
"91 140 CURVE SMOOTH",
"91 225 OFFCURVE",
"133 264 OFFCURVE",
"251 264 CURVE SMOOTH",
"408 264 LINE",
"399 273 LINE",
"399 211 OFFCURVE",
"405 162 OFFCURVE",
"423 120 CURVE"
);
},
{
closed = 1;
nodes = (
"426 417 OFFCURVE",
"502 509 OFFCURVE",
"623 509 CURVE SMOOTH",
"752 509 OFFCURVE",
"795 405 OFFCURVE",
"793 276 CURVE",
"802 283 LINE",
"412 283 LINE",
"421 276 LINE"
);
}
);
};
guideLines = (
{
position = "{543, 264}";
},
{
position = "{543, 283}";
}
);
layerId = "075BA79B-D813-4287-A9DD-CCAF2D535ED3";
paths = (
{
closed = 1;
nodes = (
"118 392 LINE",
"125 490 LINE",
"118 479 LINE",
"176 499 OFFCURVE",
"227 508 OFFCURVE",
"268 508 CURVE SMOOTH",
"352 508 OFFCURVE",
"399 468 OFFCURVE",
"399 391 CURVE SMOOTH",
"399 274 LINE",
"408 283 LINE",
"249 283 LINE SMOOTH",
"125 283 OFFCURVE",
"70 238 OFFCURVE",
"70 137 CURVE SMOOTH",
"70 43 OFFCURVE",
"139 -6 OFFCURVE",
"221 -6 CURVE SMOOTH",
"294 -6 OFFCURVE",
"378 32 OFFCURVE",
"434 112 CURVE",
"426 114 LINE",
"460 38 OFFCURVE",
"528 -6 OFFCURVE",
"612 -6 CURVE SMOOTH",
"676 -6 OFFCURVE",
"746 19 OFFCURVE",
"815 67 CURVE",
"804 83 LINE",
"741 38 OFFCURVE",
"676 14 OFFCURVE",
"616 14 CURVE SMOOTH",
"495 14 OFFCURVE",
"420 107 OFFCURVE",
"420 256 CURVE SMOOTH",
"420 273 LINE",
"411 264 LINE",
"813 264 LINE",
"814 274 OFFCURVE",
"814 276 OFFCURVE",
"814 296 CURVE SMOOTH",
"814 443 OFFCURVE",
"745 528 OFFCURVE",
"624 528 CURVE SMOOTH",
"526 528 OFFCURVE",
"450 472 OFFCURVE",
"417 374 CURVE",
"419 371 LINE",
"419 394 LINE SMOOTH",
"419 482 OFFCURVE",
"364 528 OFFCURVE",
"270 528 CURVE SMOOTH",
"221 528 OFFCURVE",
"161 515 OFFCURVE",
"93 491 CURVE",
"101 392 LINE"
);
},
{
closed = 1;
nodes = (
"427 132 LINE",
"375 53 OFFCURVE",
"293 13 OFFCURVE",
"223 13 CURVE SMOOTH",
"151 13 OFFCURVE",
"91 56 OFFCURVE",
"91 140 CURVE SMOOTH",
"91 228 OFFCURVE",
"137 264 OFFCURVE",
"251 264 CURVE SMOOTH",
"408 264 LINE",
"399 273 LINE",
"399 205 OFFCURVE",
"406 158 OFFCURVE",
"423 120 CURVE"
);
},
{
closed = 1;
nodes = (
"426 419 OFFCURVE",
"504 509 OFFCURVE",
"623 509 CURVE SMOOTH",
"736 509 OFFCURVE",
"795 428 OFFCURVE",
"793 276 CURVE",
"802 283 LINE",
"412 283 LINE",
"421 276 LINE"
);
}
);
width = 881;
},
{
anchors = (
{
name = bottom;
position = "{421, 0}";
},
{
name = top;
position = "{421, 540}";
}
);
background = {
paths = (
{
closed = 1;
nodes = (
"261 -15 OFFCURVE",
"328 23 OFFCURVE",
"388 105 CURVE",
"363 105 LINE",
"398 30 OFFCURVE",
"470 -15 OFFCURVE",
"569 -15 CURVE SMOOTH",
"650 -15 OFFCURVE",
"737 12 OFFCURVE",
"818 68 CURVE",
"753 172 LINE",
"701 145 OFFCURVE",
"652 131 OFFCURVE",
"617 131 CURVE SMOOTH",
"546 131 OFFCURVE",
"523 185 OFFCURVE",
"519 229 CURVE SMOOTH",
"518 241 LINE",
"508 221 LINE",
"818 221 LINE",
"824 251 OFFCURVE",
"827 283 OFFCURVE",
"827 311 CURVE SMOOTH",
"827 449 OFFCURVE",
"756 555 OFFCURVE",
"596 555 CURVE SMOOTH",
"528 555 OFFCURVE",
"471 531 OFFCURVE",
"431 496 CURVE",
"439 494 LINE",
"436 500 LINE SMOOTH",
"419 534 OFFCURVE",
"390 555 OFFCURVE",
"305 555 CURVE SMOOTH",
"232 555 OFFCURVE",
"149 542 OFFCURVE",
"46 515 CURVE",
"54 351 LINE",
"174 351 LINE",
"190 419 LINE",
"175 401 LINE",
"204 407 OFFCURVE",
"229 410 OFFCURVE",
"249 410 CURVE SMOOTH",
"295 410 OFFCURVE",
"317 391 OFFCURVE",
"317 339 CURVE SMOOTH",
"317 303 LINE",
"327 316 LINE",
"233 316 LINE SMOOTH",
"90 316 OFFCURVE",
"15 267 OFFCURVE",
"15 151 CURVE SMOOTH",
"15 42 OFFCURVE",
"88 -15 OFFCURVE",
"172 -15 CURVE SMOOTH"
);
},
{
closed = 1;
nodes = (
"232 125 OFFCURVE",
"215 140 OFFCURVE",
"215 177 CURVE SMOOTH",
"215 214 OFFCURVE",
"235 221 OFFCURVE",
"276 221 CURVE SMOOTH",
"327 221 LINE",
"317 233 LINE",
"317 201 OFFCURVE",
"317 170 OFFCURVE",
"317 138 CURVE",
"325 151 LINE",
"301 135 OFFCURVE",
"276 125 OFFCURVE",
"256 125 CURVE SMOOTH"
);
},
{
closed = 1;
nodes = (
"516 364 OFFCURVE",
"526 415 OFFCURVE",
"575 415 CURVE SMOOTH",
"621 415 OFFCURVE",
"621 365 OFFCURVE",
"621 307 CURVE",
"631 316 LINE",
"504 316 LINE",
"516 298 LINE"
);
}
);
};
guideLines = (
{
position = "{416, 221}";
},
{
position = "{416, 316}";
}
);
layerId = "927AED37-E9E6-4F96-A08E-421C3785EFC6";
paths = (
{
closed = 1;
nodes = (
"174 351 LINE",
"190 419 LINE",
"175 402 LINE",
"204 408 OFFCURVE",
"228 411 OFFCURVE",
"247 411 CURVE SMOOTH",
"298 411 OFFCURVE",
"317 389 OFFCURVE",
"317 339 CURVE SMOOTH",
"317 303 LINE",
"327 316 LINE",
"233 316 LINE SMOOTH",
"85 316 OFFCURVE",
"15 263 OFFCURVE",
"15 151 CURVE SMOOTH",
"15 43 OFFCURVE",
"97 -15 OFFCURVE",
"192 -15 CURVE SMOOTH",
"269 -15 OFFCURVE",
"354 24 OFFCURVE",
"411 105 CURVE",
"363 105 LINE",
"399 29 OFFCURVE",
"473 -14 OFFCURVE",
"569 -14 CURVE SMOOTH",
"653 -14 OFFCURVE",
"740 15 OFFCURVE",
"818 68 CURVE",
"753 172 LINE",
"703 146 OFFCURVE",
"653 131 OFFCURVE",
"617 131 CURVE SMOOTH",
"562 131 OFFCURVE",
"525 168 OFFCURVE",
"519 229 CURVE SMOOTH",
"518 241 LINE",
"508 221 LINE",
"818 221 LINE",
"824 243 OFFCURVE",
"827 275 OFFCURVE",
"827 311 CURVE SMOOTH",
"827 465 OFFCURVE",
"741 555 OFFCURVE",
"596 555 CURVE SMOOTH",
"533 555 OFFCURVE",
"474 534 OFFCURVE",
"431 496 CURVE",
"448 481 LINE",
"436 500 LINE SMOOTH",
"413 537 OFFCURVE",
"365 555 OFFCURVE",
"291 555 CURVE SMOOTH",
"228 555 OFFCURVE",
"146 542 OFFCURVE",
"46 515 CURVE",
"54 351 LINE"
);
},
{
closed = 1;
nodes = (
"325 151 LINE",
"300 133 OFFCURVE",
"277 124 OFFCURVE",
"259 124 CURVE SMOOTH",
"232 124 OFFCURVE",
"215 143 OFFCURVE",
"215 177 CURVE SMOOTH",
"215 210 OFFCURVE",
"230 221 OFFCURVE",
"276 221 CURVE SMOOTH",
"327 221 LINE",
"317 233 LINE",
"317 201 OFFCURVE",
"317 170 OFFCURVE",
"317 138 CURVE"
);
},
{
closed = 1;
nodes = (
"516 380 OFFCURVE",
"534 415 OFFCURVE",
"575 415 CURVE SMOOTH",
"610 415 OFFCURVE",
"621 390 OFFCURVE",
"621 307 CURVE",
"631 316 LINE",
"504 316 LINE",
"516 298 LINE"
);
}
);
width = 845;
},
{
anchors = (
{
name = bottom;
position = "{435, 0}";
},
{
name = top;
position = "{435, 530}";
}
);
associatedMasterId = "075BA79B-D813-4287-A9DD-CCAF2D535ED3";
background = {
paths = (
{
closed = 1;
nodes = (
"462 386 LINE SMOOTH",
"462 493 OFFCURVE",
"397 540 OFFCURVE",
"285 540 CURVE SMOOTH",
"226 540 OFFCURVE",
"158 527 OFFCURVE",
"77 502 CURVE",
"85 374 LINE",
"148 374 LINE",
"159 458 LINE",
"148 444 LINE",
"190 458 OFFCURVE",
"227 465 OFFCURVE",
"260 465 CURVE SMOOTH",
"324 465 OFFCURVE",
"362 437 OFFCURVE",
"362 368 CURVE SMOOTH",
"362 282 LINE",
"371 293 LINE",
"249 293 LINE SMOOTH",
"127 293 OFFCURVE",
"48 257 OFFCURVE",
"48 142 CURVE SMOOTH",
"48 41 OFFCURVE",
"111 -10 OFFCURVE",
"189 -10 CURVE SMOOTH",
"251 -10 OFFCURVE",
"322 22 OFFCURVE",
"379 87 CURVE",
"371 90 LINE",
"385 -6 LINE",
"537 1 LINE",
"537 54 LINE",
"447 75 LINE",
"462 54 LINE"
);
},
{
closed = 1;
nodes = (
"149 204 OFFCURVE",
"177 231 OFFCURVE",
"265 231 CURVE SMOOTH",
"371 231 LINE",
"362 239 LINE",
"362 115 LINE",
"368 137 LINE",
"320 90 OFFCURVE",
"266 63 OFFCURVE",
"223 63 CURVE SMOOTH",
"180 63 OFFCURVE",
"149 90 OFFCURVE",
"149 154 CURVE SMOOTH"
);
}
);
};
guideLines = (
{
position = "{541, 264}";
},
{
position = "{541, 283}";
}
);
layerId = "C5AA469E-57A5-47B5-A186-30BBB557A1CE";
name = "{100}";
paths = (
{
closed = 1;
nodes = (
"143 374 LINE",
"154 458 LINE",
"143 444 LINE",
"189 459 OFFCURVE",
"228 466 OFFCURVE",
"260 466 CURVE SMOOTH",
"328 466 OFFCURVE",
"362 434 OFFCURVE",
"362 368 CURVE SMOOTH",
"362 287 LINE",
"372 304 LINE",
"242 304 LINE SMOOTH",
"107 304 OFFCURVE",
"45 249 OFFCURVE",
"45 143 CURVE SMOOTH",
"45 43 OFFCURVE",
"120 -11 OFFCURVE",
"208 -11 CURVE SMOOTH",
"283 -11 OFFCURVE",
"367 28 OFFCURVE",
"424 109 CURVE",
"398 110 LINE",
"433 34 OFFCURVE",
"503 -10 OFFCURVE",
"593 -10 CURVE SMOOTH",
"666 -10 OFFCURVE",
"743 17 OFFCURVE",
"816 67 CURVE",
"781 123 LINE",
"724 86 OFFCURVE",
"666 66 OFFCURVE",
"616 66 CURVE SMOOTH",
"525 66 OFFCURVE",
"466 134 OFFCURVE",
"464 244 CURVE SMOOTH",
"463 259 LINE",
"454 235 LINE",
"815 235 LINE",
"818 250 OFFCURVE",
"820 276 OFFCURVE",
"820 303 CURVE SMOOTH",
"820 453 OFFCURVE",
"743 540 OFFCURVE",
"611 540 CURVE SMOOTH",
"529 540 OFFCURVE",
"460 500 OFFCURVE",
"423 428 CURVE",
"432 420 LINE",
"426 441 LINE SMOOTH",
"415 506 OFFCURVE",
"361 540 OFFCURVE",
"272 540 CURVE SMOOTH",
"218 540 OFFCURVE",
"150 528 OFFCURVE",
"72 502 CURVE",
"80 374 LINE"
);
},
{
closed = 1;
nodes = (
"381 140 LINE",
"340 88 OFFCURVE",
"285 63 OFFCURVE",
"239 63 CURVE SMOOTH",
"187 63 OFFCURVE",
"146 94 OFFCURVE",
"146 156 CURVE SMOOTH",
"146 220 OFFCURVE",
"178 235 OFFCURVE",
"262 235 CURVE SMOOTH",
"372 235 LINE",
"362 255 LINE",
"362 203 OFFCURVE",
"366 163 OFFCURVE",
"376 128 CURVE"
);
},
{
closed = 1;
nodes = (
"466 402 OFFCURVE",
"517 467 OFFCURVE",
"601 467 CURVE SMOOTH",
"680 467 OFFCURVE",
"717 411 OFFCURVE",
"716 290 CURVE",
"726 304 LINE",
"453 304 LINE",
"463 286 LINE"
);
}
);
width = 863;
}
);
leftKerningGroup = a;
leftMetricsKey = a;
rightKerningGroup = e;
rightMetricsKey = e;
unicode = 00E6;
},
{
glyphname = b;
layers = (
{
background = {
paths = (
{
closed = 1;
nodes = (
"504 32 OFFCURVE",
"504 265 CURVE SMOOTH",
"504 433 OFFCURVE",
"416 528 OFFCURVE",
"307 528 CURVE SMOOTH",
"249 528 OFFCURVE",
"185 500 OFFCURVE",
"124 441 CURVE",
"128 437 LINE",
"128 765 LINE",
"18 760 LINE",
"18 745 LINE",
"117 731 LINE",
"108 741 LINE",
"108 15 LINE",
"345 -48 OFFCURVE"
);
},
{
closed = 1;
nodes = (
"343 -27 OFFCURVE",
"123 33 CURVE",
"128 22 LINE",
"128 432 LINE",
"124 417 LINE",
"184 480 OFFCURVE",
"248 509 OFFCURVE",
"305 509 CURVE SMOOTH",
"404 509 OFFCURVE",
"483 420 OFFCURVE",
"483 264 CURVE SMOOTH",
"483 50 OFFCURVE"
);
}
);
};
layerId = "075BA79B-D813-4287-A9DD-CCAF2D535ED3";
paths = (
{
closed = 1;
nodes = (
"407 -6 OFFCURVE",
"504 83 OFFCURVE",
"504 265 CURVE SMOOTH",
"504 433 OFFCURVE",
"416 528 OFFCURVE",
"307 528 CURVE SMOOTH",
"249 528 OFFCURVE",
"185 500 OFFCURVE",
"124 441 CURVE",
"128 437 LINE",
"128 765 LINE",
"18 760 LINE",
"18 745 LINE",
"117 731 LINE",
"108 741 LINE",
"108 15 LINE",
"160 1 OFFCURVE",
"208 -6 OFFCURVE",
"251 -6 CURVE SMOOTH"
);
},
{
closed = 1;
nodes = (
"216 13 OFFCURVE",
"171 20 OFFCURVE",
"123 33 CURVE",
"128 22 LINE",
"128 432 LINE",
"124 417 LINE",
"184 480 OFFCURVE",
"248 509 OFFCURVE",
"305 509 CURVE SMOOTH",
"404 509 OFFCURVE",
"483 420 OFFCURVE",
"483 264 CURVE SMOOTH",
"483 97 OFFCURVE",
"398 13 OFFCURVE",
"255 13 CURVE SMOOTH"
);
}
);
width = 568;
},
{
background = {
paths = (
{
closed = 1;
nodes = (
"522 -15 OFFCURVE",
"585 124 OFFCURVE",
"585 283 CURVE SMOOTH",
"585 463 OFFCURVE",
"505 555 OFFCURVE",
"388 555 CURVE SMOOTH",
"310 555 OFFCURVE",
"248 514 OFFCURVE",
"205 461 CURVE",
"242 388 LINE",
"266 406 OFFCURVE",
"287 415 OFFCURVE",
"306 415 CURVE SMOOTH",
"356 415 OFFCURVE",
"377 357 OFFCURVE",
"377 269 CURVE SMOOTH",
"377 178 OFFCURVE",
"356 125 OFFCURVE",
"282 125 CURVE SMOOTH",
"268 125 OFFCURVE",
"249 127 OFFCURVE",
"227 133 CURVE",
"48 4 LINE",
"125 -9 OFFCURVE",
"191 -15 OFFCURVE",
"248 -15 CURVE SMOOTH"
);
},
{
closed = 1;
nodes = (
"248 4 LINE",
"248 785 LINE",
"-7 775 LINE",
"-7 675 LINE",
"70 645 LINE",
"48 675 LINE",
"48 4 LINE"
);
}
);
};
layerId = "927AED37-E9E6-4F96-A08E-421C3785EFC6";
paths = (
{
closed = 1;
nodes = (
"522 -15 OFFCURVE",
"585 124 OFFCURVE",
"585 283 CURVE SMOOTH",
"585 463 OFFCURVE",
"505 555 OFFCURVE",
"388 555 CURVE SMOOTH",
"321 555 OFFCURVE",
"266 525 OFFCURVE",
"224 483 CURVE",
"248 454 LINE",
"248 785 LINE",
"-7 775 LINE",
"-7 675 LINE",
"77 643 LINE",
"48 694 LINE",
"48 4 LINE",
"125 -9 OFFCURVE",
"191 -15 OFFCURVE",
"248 -15 CURVE SMOOTH"
);
},
{
closed = 1;
nodes = (
"267 125 OFFCURVE",
"246 128 OFFCURVE",
"225 133 CURVE",
"248 88 LINE",
"248 427 LINE",
"225 370 LINE",
"257 396 OFFCURVE",
"283 410 OFFCURVE",
"307 410 CURVE SMOOTH",
"356 410 OFFCURVE",
"377 352 OFFCURVE",
"377 267 CURVE SMOOTH",
"377 181 OFFCURVE",
"356 125 OFFCURVE",
"284 125 CURVE SMOOTH"
);
}
);
width = 600;
}
);
leftKerningGroup = h;
rightKerningGroup = o;
unicode = 0062;
},
{
glyphname = c;
layers = (
{
anchors = (
{
name = bottom;
position = "{271, 0}";
},
{
name = top;
position = "{285, 522}";
}
);
background = {
paths = (
{
closed = 1;
nodes = (
"331 -6 OFFCURVE",
"392 16 OFFCURVE",
"458 66 CURVE",
"447 82 LINE",
"385 36 OFFCURVE",
"329 14 OFFCURVE",
"276 14 CURVE SMOOTH",
"162 14 OFFCURVE",
"83 107 OFFCURVE",
"83 255 CURVE SMOOTH",
"83 412 OFFCURVE",
"168 509 OFFCURVE",
"290 509 CURVE SMOOTH",
"322 509 OFFCURVE",
"373 502 OFFCURVE",
"418 479 CURVE",
"413 488 LINE",
"425 382 LINE",
"444 382 LINE",
"447 486 LINE",
"397 516 OFFCURVE",
"335 528 OFFCURVE",
"294 528 CURVE SMOOTH",
"165 528 OFFCURVE",
"62 431 OFFCURVE",
"62 253 CURVE SMOOTH",
"62 91 OFFCURVE",
"150 -6 OFFCURVE",
"275 -6 CURVE SMOOTH"
);
}
);
};
layerId = "075BA79B-D813-4287-A9DD-CCAF2D535ED3";
paths = (
{
closed = 1;
nodes = (
"328 -6 OFFCURVE",
"393 17 OFFCURVE",
"458 66 CURVE",
"447 82 LINE",
"388 36 OFFCURVE",
"328 14 OFFCURVE",
"275 14 CURVE SMOOTH",
"166 14 OFFCURVE",
"83 103 OFFCURVE",
"83 255 CURVE SMOOTH",
"83 412 OFFCURVE",
"168 509 OFFCURVE",
"290 509 CURVE SMOOTH",
"322 509 OFFCURVE",
"373 502 OFFCURVE",
"418 479 CURVE",
"413 488 LINE",
"425 382 LINE",
"444 382 LINE",
"447 486 LINE",
"397 516 OFFCURVE",
"335 528 OFFCURVE",
"294 528 CURVE SMOOTH",
"165 528 OFFCURVE",
"62 431 OFFCURVE",
"62 253 CURVE SMOOTH",
"62 91 OFFCURVE",
"153 -6 OFFCURVE",
"271 -6 CURVE SMOOTH"
);
}
);
width = 509;
},
{
anchors = (
{
name = bottom;
position = "{274, 0}";
},
{
name = top;
position = "{282, 540}";
}
);
background = {
paths = (
{
closed = 1;
nodes = (
"356 -15 OFFCURVE",
"437 14 OFFCURVE",
"516 75 CURVE",
"451 175 LINE",
"403 143 OFFCURVE",
"356 130 OFFCURVE",
"321 130 CURVE SMOOTH",
"255 130 OFFCURVE",
"221 176 OFFCURVE",
"221 278 CURVE SMOOTH",
"221 360 OFFCURVE",
"240 415 OFFCURVE",
"309 415 CURVE SMOOTH",
"330 415 OFFCURVE",
"352 412 OFFCURVE",
"360 411 CURVE",
"351 419 LINE",
"367 354 LINE",
"487 354 LINE",
"492 517 LINE",
"454 532 OFFCURVE",
"379 555 OFFCURVE",
"303 555 CURVE SMOOTH",
"165 555 OFFCURVE",
"13 493 OFFCURVE",
"13 267 CURVE SMOOTH",
"13 86 OFFCURVE",
"125 -15 OFFCURVE",
"274 -15 CURVE SMOOTH"
);
}
);
};
layerId = "927AED37-E9E6-4F96-A08E-421C3785EFC6";
paths = (
{
closed = 1;
nodes = (
"356 -15 OFFCURVE",
"437 14 OFFCURVE",
"516 75 CURVE",
"452 174 LINE",
"400 145 OFFCURVE",
"356 130 OFFCURVE",
"320 130 CURVE SMOOTH",
"257 130 OFFCURVE",
"221 177 OFFCURVE",
"221 278 CURVE SMOOTH",
"221 360 OFFCURVE",
"240 415 OFFCURVE",
"309 415 CURVE SMOOTH",
"330 415 OFFCURVE",
"352 412 OFFCURVE",
"360 411 CURVE",
"346 419 LINE",
"362 349 LINE",
"487 349 LINE",
"492 517 LINE",
"454 532 OFFCURVE",
"379 555 OFFCURVE",
"303 555 CURVE SMOOTH",
"165 555 OFFCURVE",
"13 493 OFFCURVE",
"13 267 CURVE SMOOTH",
"13 86 OFFCURVE",
"125 -15 OFFCURVE",
"274 -15 CURVE SMOOTH"
);
}
);
width = 520;
}
);
leftKerningGroup = o;
rightKerningGroup = c;
unicode = 0063;
},
{
glyphname = d;
layers = (
{
anchors = (
{
name = bottom;
position = "{289, 0}";
},
{
name = center;
position = "{289, 261}";
},
{
name = topright;
position = "{568, 762}";
}
);
background = {
paths = (
{
closed = 1;
nodes = (
"550 -230 LINE",
"550 -215 LINE",
"453 -201 LINE",
"460 -209 LINE",
"460 502 LINE",
"405 519 OFFCURVE",
"355 528 OFFCURVE",
"309 528 CURVE SMOOTH",
"159 528 OFFCURVE",
"64 431 OFFCURVE",
"64 256 CURVE SMOOTH",
"64 88 OFFCURVE",
"152 -7 OFFCURVE",
"261 -7 CURVE SMOOTH",
"319 -7 OFFCURVE",
"383 21 OFFCURVE",
"444 80 CURVE",
"440 83 LINE",
"440 -209 LINE",
"447 -201 LINE",
"335 -215 LINE",
"335 -230 LINE"
);
},
{
closed = 1;
nodes = (
"164 12 OFFCURVE",
"85 101 OFFCURVE",
"85 257 CURVE SMOOTH",
"85 417 OFFCURVE",
"168 509 OFFCURVE",
"308 509 CURVE SMOOTH",
"349 509 OFFCURVE",
"395 501 OFFCURVE",
"445 484 CURVE",
"440 493 LINE",
"440 92 LINE",
"444 104 LINE",
"384 41 OFFCURVE",
"320 12 OFFCURVE",
"263 12 CURVE SMOOTH"
);
}
);
};
layerId = "075BA79B-D813-4287-A9DD-CCAF2D535ED3";
paths = (
{
closed = 1;
nodes = (
"319 -6 OFFCURVE",
"383 22 OFFCURVE",
"444 80 CURVE",
"440 83 LINE",
"445 -2 LINE",
"550 2 LINE",
"550 17 LINE",
"453 27 LINE",
"460 19 LINE",
"460 765 LINE",
"345 760 LINE",
"345 746 LINE",
"447 731 LINE",
"440 739 LINE",
"440 502 LINE",
"447 506 LINE",
"397 520 OFFCURVE",
"351 528 OFFCURVE",
"309 528 CURVE SMOOTH",
"159 528 OFFCURVE",
"64 431 OFFCURVE",
"64 256 CURVE SMOOTH",
"64 89 OFFCURVE",
"152 -6 OFFCURVE",
"261 -6 CURVE SMOOTH"
);
},
{
closed = 1;
nodes = (
"164 13 OFFCURVE",
"85 102 OFFCURVE",
"85 257 CURVE SMOOTH",
"85 417 OFFCURVE",
"168 509 OFFCURVE",
"308 509 CURVE SMOOTH",
"349 509 OFFCURVE",
"395 501 OFFCURVE",
"445 484 CURVE",
"440 491 LINE",
"440 92 LINE",
"444 104 LINE",
"384 42 OFFCURVE",
"320 13 OFFCURVE",
"263 13 CURVE SMOOTH"
);
}
);
width = 582;
},
{
anchors = (
{
name = bottom;
position = "{322, 0}";
},
{
name = center;
position = "{312, 270}";
},
{
name = topright;
position = "{593, 780}";
}
);
background = {
paths = (
{
closed = 1;
nodes = (
"79 555 OFFCURVE",
"16 416 OFFCURVE",
"16 257 CURVE SMOOTH",
"16 77 OFFCURVE",
"96 -15 OFFCURVE",
"213 -15 CURVE SMOOTH",
"280 -15 OFFCURVE",
"335 15 OFFCURVE",
"377 57 CURVE",
"353 86 LINE",
"353 -245 LINE",
"608 -235 LINE",
"608 -135 LINE",
"524 -103 LINE",
"553 -154 LINE",
"553 536 LINE",
"476 549 OFFCURVE",
"410 555 OFFCURVE",
"353 555 CURVE SMOOTH"
);
},
{
closed = 1;
nodes = (
"333 415 OFFCURVE",
"355 412 OFFCURVE",
"376 407 CURVE",
"353 452 LINE",
"353 113 LINE",
"376 170 LINE",
"344 144 OFFCURVE",
"318 130 OFFCURVE",
"295 130 CURVE SMOOTH",
"245 130 OFFCURVE",
"224 188 OFFCURVE",
"224 271 CURVE SMOOTH",
"224 362 OFFCURVE",
"245 415 OFFCURVE",
"319 415 CURVE SMOOTH"
);
}
);
};
layerId = "927AED37-E9E6-4F96-A08E-421C3785EFC6";
paths = (
{
closed = 1;
nodes = (
"280 -15 OFFCURVE",
"335 14 OFFCURVE",
"392 71 CURVE",
"372 77 LINE",
"397 -10 LINE",
"608 0 LINE",
"608 100 LINE",
"531 134 LINE",
"553 108 LINE",
"553 785 LINE",
"293 775 LINE",
"293 675 LINE",
"365 643 LINE",
"353 660 LINE",
"353 531 LINE",
"388 552 LINE",
"365 554 OFFCURVE",
"344 555 OFFCURVE",
"323 555 CURVE SMOOTH",
"126 555 OFFCURVE",
"16 463 OFFCURVE",
"16 255 CURVE SMOOTH",
"16 78 OFFCURVE",
"96 -15 OFFCURVE",
"214 -15 CURVE SMOOTH"
);
},
{
closed = 1;
nodes = (
"245 130 OFFCURVE",
"224 188 OFFCURVE",
"224 274 CURVE SMOOTH",
"224 359 OFFCURVE",
"245 415 OFFCURVE",
"317 415 CURVE SMOOTH",
"334 415 OFFCURVE",
"355 412 OFFCURVE",
"376 407 CURVE",
"353 452 LINE",
"353 113 LINE",
"376 170 LINE",
"344 144 OFFCURVE",
"318 130 OFFCURVE",
"294 130 CURVE SMOOTH"
);
}
);
width = 615;
}
);
leftKerningGroup = o;
rightKerningGroup = l;
unicode = 0064;
},
{
glyphname = eth;
layers = (
{
background = {
paths = (
{
closed = 1;
nodes = (
"416 -6 OFFCURVE",
"511 94 OFFCURVE",
"511 312 CURVE SMOOTH",
"511 545 OFFCURVE",
"403 768 OFFCURVE",
"160 768 CURVE",
"157 749 LINE",
"344 749 OFFCURVE",
"456 606 OFFCURVE",
"485 401 CURVE",
"488 401 LINE",
"452 484 OFFCURVE",
"382 528 OFFCURVE",
"296 528 CURVE SMOOTH",
"156 528 OFFCURVE",
"64 418 OFFCURVE",
"64 246 CURVE SMOOTH",
"64 89 OFFCURVE",
"141 -6 OFFCURVE",
"277 -6 CURVE SMOOTH"
);
},
{
closed = 1;
nodes = (
"158 13 OFFCURVE",
"85 102 OFFCURVE",
"85 251 CURVE SMOOTH",
"85 404 OFFCURVE",
"162 509 OFFCURVE",
"296 509 CURVE SMOOTH",
"421 509 OFFCURVE",
"490 418 OFFCURVE",
"490 277 CURVE SMOOTH",
"490 127 OFFCURVE",
"413 13 OFFCURVE",
"277 13 CURVE SMOOTH"
);
},
{
closed = 1;
nodes = (
"469 752 LINE",
"459 768 LINE",
"218 629 LINE",
"228 613 LINE"
);
}
);
};
layerId = "075BA79B-D813-4287-A9DD-CCAF2D535ED3";
paths = (
{
closed = 1;
nodes = (
"416 -6 OFFCURVE",
"511 94 OFFCURVE",
"511 312 CURVE SMOOTH",
"511 545 OFFCURVE",
"403 768 OFFCURVE",
"160 768 CURVE",
"157 749 LINE",
"349 749 OFFCURVE",
"458 601 OFFCURVE",
"487 396 CURVE",
"490 396 LINE",
"454 479 OFFCURVE",
"389 528 OFFCURVE",
"296 528 CURVE SMOOTH",
"156 528 OFFCURVE",
"64 418 OFFCURVE",
"64 246 CURVE SMOOTH",
"64 89 OFFCURVE",
"141 -6 OFFCURVE",
"277 -6 CURVE SMOOTH"
);
},
{
closed = 1;
nodes = (
"158 13 OFFCURVE",
"85 102 OFFCURVE",
"85 251 CURVE SMOOTH",
"85 404 OFFCURVE",
"162 509 OFFCURVE",
"296 509 CURVE SMOOTH",
"421 509 OFFCURVE",
"490 418 OFFCURVE",
"490 277 CURVE SMOOTH",
"490 127 OFFCURVE",
"413 13 OFFCURVE",
"277 13 CURVE SMOOTH"
);
},
{
closed = 1;
nodes = (
"469 752 LINE",
"459 768 LINE",
"218 629 LINE",
"228 613 LINE"
);
}
);
width = 588;
},
{
background = {
paths = (
{
closed = 1;
nodes = (
"482 -15 OFFCURVE",
"556 143 OFFCURVE",
"556 319 CURVE SMOOTH",
"556 555 OFFCURVE",
"423 795 OFFCURVE",
"107 795 CURVE",
"92 655 LINE",
"241 650 OFFCURVE",
"347 586 OFFCURVE",
"372 418 CURVE",
"390 409 LINE",
"355 461 OFFCURVE",
"296 483 OFFCURVE",
"235 483 CURVE SMOOTH",
"114 483 OFFCURVE",
"12 397 OFFCURVE",
"12 235 CURVE SMOOTH",
"12 91 OFFCURVE",
"93 -15 OFFCURVE",
"268 -15 CURVE SMOOTH"
);
},
{
closed = 1;
nodes = (
"244 125 OFFCURVE",
"217 150 OFFCURVE",
"217 239 CURVE SMOOTH",
"217 336 OFFCURVE",
"249 352 OFFCURVE",
"284 352 CURVE SMOOTH",
"324 352 OFFCURVE",
"351 331 OFFCURVE",
"351 243 CURVE SMOOTH",
"351 146 OFFCURVE",
"318 125 OFFCURVE",
"283 125 CURVE SMOOTH"
);
},
{
closed = 1;
nodes = (
"483 720 LINE",
"422 799 LINE",
"149 596 LINE",
"210 518 LINE"
);
}
);
};
layerId = "927AED37-E9E6-4F96-A08E-421C3785EFC6";
paths = (
{
closed = 1;
nodes = (
"482 -15 OFFCURVE",
"559 143 OFFCURVE",
"559 319 CURVE SMOOTH",
"559 555 OFFCURVE",
"423 795 OFFCURVE",
"107 795 CURVE",
"92 655 LINE",
"241 650 OFFCURVE",
"347 586 OFFCURVE",
"372 418 CURVE",
"390 409 LINE",
"355 461 OFFCURVE",
"296 483 OFFCURVE",
"235 483 CURVE SMOOTH",
"114 483 OFFCURVE",
"9 397 OFFCURVE",
"9 235 CURVE SMOOTH",
"9 91 OFFCURVE",
"93 -15 OFFCURVE",
"268 -15 CURVE SMOOTH"
);
},
{
closed = 1;
nodes = (
"244 125 OFFCURVE",
"217 150 OFFCURVE",
"217 239 CURVE SMOOTH",
"217 336 OFFCURVE",
"249 352 OFFCURVE",
"284 352 CURVE SMOOTH",
"324 352 OFFCURVE",
"351 331 OFFCURVE",
"351 243 CURVE SMOOTH",
"351 146 OFFCURVE",
"318 125 OFFCURVE",
"283 125 CURVE SMOOTH"
);
},
{
closed = 1;
nodes = (
"479 720 LINE",
"418 799 LINE",
"145 596 LINE",
"206 518 LINE"
);
}
);
width = 579;
}
);
leftKerningGroup = o;
rightKerningGroup = o;
unicode = 00F0;
},
{
color = 0;
glyphname = dcroat;
layers = (
{
background = {
paths = (
{
closed = 1;
nodes = (
"241 622 LINE",
"551 622 LINE",
"551 641 LINE",
"241 641 LINE"
);
},
{
closed = 1;
nodes = (
"317 -6 OFFCURVE",
"386 25 OFFCURVE",
"445 88 CURVE",
"441 91 LINE",
"446 -2 LINE",
"551 2 LINE",
"551 17 LINE",
"454 27 LINE",
"461 19 LINE",
"461 765 LINE",
"346 760 LINE",
"346 746 LINE",
"448 731 LINE",
"441 739 LINE",
"441 490 LINE",
"446 495 LINE",
"393 517 OFFCURVE",
"342 528 OFFCURVE",
"297 528 CURVE SMOOTH",
"158 528 OFFCURVE",
"60 428 OFFCURVE",
"60 251 CURVE SMOOTH",
"60 82 OFFCURVE",
"150 -6 OFFCURVE",
"255 -6 CURVE SMOOTH"
);
},
{
closed = 1;
nodes = (
"162 13 OFFCURVE",
"81 94 OFFCURVE",
"81 254 CURVE SMOOTH",
"81 420 OFFCURVE",
"169 509 OFFCURVE",
"294 509 CURVE SMOOTH",
"340 509 OFFCURVE",
"392 496 OFFCURVE",
"446 470 CURVE",
"441 479 LINE",
"441 99 LINE",
"445 110 LINE",
"388 45 OFFCURVE",
"320 13 OFFCURVE",
"259 13 CURVE SMOOTH"
);
}
);
};
guideLines = (
{
angle = 90;
position = "{551, 316}";
}
);
layerId = "075BA79B-D813-4287-A9DD-CCAF2D535ED3";
paths = (
{
closed = 1;
nodes = (
"241 622 LINE",
"551 622 LINE",
"551 641 LINE",
"241 641 LINE"
);
},
{
closed = 1;
nodes = (
"319 -6 OFFCURVE",
"383 21 OFFCURVE",
"444 79 CURVE",
"440 82 LINE",
"445 -3 LINE",
"550 1 LINE",
"550 16 LINE",
"453 26 LINE",
"460 18 LINE",
"460 764 LINE",
"345 759 LINE",
"345 745 LINE",
"447 730 LINE",
"440 738 LINE",
"440 501 LINE",
"447 505 LINE",
"397 519 OFFCURVE",
"351 527 OFFCURVE",
"308 527 CURVE SMOOTH",
"159 527 OFFCURVE",
"64 430 OFFCURVE",
"64 255 CURVE SMOOTH",
"64 88 OFFCURVE",
"152 -6 OFFCURVE",
"261 -6 CURVE SMOOTH"
);
},
{
closed = 1;
nodes = (
"164 13 OFFCURVE",
"85 101 OFFCURVE",
"85 256 CURVE SMOOTH",
"85 416 OFFCURVE",
"168 508 OFFCURVE",
"308 508 CURVE SMOOTH",
"349 508 OFFCURVE",
"395 500 OFFCURVE",
"445 483 CURVE",
"440 490 LINE",
"440 91 LINE",
"444 103 LINE",
"384 41 OFFCURVE",
"320 13 OFFCURVE",
"263 13 CURVE SMOOTH"
);
}
);
width = 583;
},
{
background = {
paths = (
{
closed = 1;
nodes = (
"174 566 LINE",
"603 566 LINE",
"603 671 LINE",
"174 671 LINE"
);
},
{
closed = 1;
nodes = (
"285 -15 OFFCURVE",
"342 19 OFFCURVE",
"382 78 CURVE",
"372 77 LINE",
"397 -10 LINE",
"603 0 LINE",
"603 100 LINE",
"539 130 LINE",
"553 108 LINE",
"553 785 LINE",
"293 775 LINE",
"293 690 LINE",
"365 663 LINE",
"353 680 LINE",
"353 510 LINE",
"366 521 LINE",
"333 530 OFFCURVE",
"301 535 OFFCURVE",
"266 535 CURVE SMOOTH",
"112 535 OFFCURVE",
"15 437 OFFCURVE",
"15 249 CURVE SMOOTH",
"15 71 OFFCURVE",
"103 -15 OFFCURVE",
"214 -15 CURVE SMOOTH"
);
},
{
closed = 1;
nodes = (
"252 125 OFFCURVE",
"223 183 OFFCURVE",
"223 261 CURVE SMOOTH",
"223 356 OFFCURVE",
"259 395 OFFCURVE",
"310 395 CURVE SMOOTH",
"327 395 OFFCURVE",
"344 390 OFFCURVE",
"366 383 CURVE",
"353 400 LINE",
"353 131 LINE",
"362 153 LINE",
"339 134 OFFCURVE",
"318 125 OFFCURVE",
"299 125 CURVE SMOOTH"
);
}
);
};
guideLines = (
{
angle = 90;
position = "{603, 316}";
}
);
layerId = "927AED37-E9E6-4F96-A08E-421C3785EFC6";
paths = (
{
closed = 1;
nodes = (
"174 556 LINE",
"603 556 LINE",
"603 661 LINE",
"174 661 LINE"
);
},
{
closed = 1;
nodes = (
"280 -15 OFFCURVE",
"335 14 OFFCURVE",
"392 70 CURVE",
"372 76 LINE",
"397 -11 LINE",
"608 0 LINE",
"608 99 LINE",
"531 133 LINE",
"553 107 LINE",
"553 784 LINE",
"293 774 LINE",
"293 681 LINE",
"365 655 LINE",
"353 669 LINE",
"353 516 LINE",
"388 537 LINE",
"364 539 OFFCURVE",
"340 540 OFFCURVE",
"318 540 CURVE SMOOTH",
"123 540 OFFCURVE",
"16 456 OFFCURVE",
"16 253 CURVE SMOOTH",
"16 78 OFFCURVE",
"96 -15 OFFCURVE",
"214 -15 CURVE SMOOTH"
);
},
{
closed = 1;
nodes = (
"245 129 OFFCURVE",
"224 187 OFFCURVE",
"224 272 CURVE SMOOTH",
"224 362 OFFCURVE",
"248 401 OFFCURVE",
"312 401 CURVE SMOOTH",
"330 401 OFFCURVE",
"351 398 OFFCURVE",
"376 392 CURVE",
"353 437 LINE",
"353 112 LINE",
"376 169 LINE",
"344 143 OFFCURVE",
"318 129 OFFCURVE",
"294 129 CURVE SMOOTH"
);
}
);
width = 615;
},
{
associatedMasterId = "927AED37-E9E6-4F96-A08E-421C3785EFC6";
background = {
paths = (
{
closed = 1;
nodes = (
"172 571 LINE",
"601 571 LINE",
"601 646 LINE",
"172 646 LINE"
);
},
{
closed = 1;
nodes = (
"283 -15 OFFCURVE",
"340 19 OFFCURVE",
"380 78 CURVE",
"370 77 LINE",
"395 -10 LINE",
"601 0 LINE",
"601 100 LINE",
"537 130 LINE",
"551 108 LINE",
"551 785 LINE",
"291 775 LINE",
"291 685 LINE",
"363 658 LINE",
"351 675 LINE",
"351 510 LINE",
"364 521 LINE",
"331 530 OFFCURVE",
"299 535 OFFCURVE",
"264 535 CURVE SMOOTH",
"110 535 OFFCURVE",
"13 437 OFFCURVE",
"13 249 CURVE SMOOTH",
"13 71 OFFCURVE",
"101 -15 OFFCURVE",
"212 -15 CURVE SMOOTH"
);
},
{
closed = 1;
nodes = (
"250 125 OFFCURVE",
"221 183 OFFCURVE",
"221 261 CURVE SMOOTH",
"221 356 OFFCURVE",
"257 395 OFFCURVE",
"308 395 CURVE SMOOTH",
"325 395 OFFCURVE",
"342 390 OFFCURVE",
"364 383 CURVE",
"351 400 LINE",
"351 131 LINE",
"360 153 LINE",
"337 134 OFFCURVE",
"316 125 OFFCURVE",
"297 125 CURVE SMOOTH"
);
}
);
};
guideLines = (
{
angle = 90;
position = "{601, 316}";
}
);
layerId = "3A1FC05E-D8A2-441C-B113-B3E7E98A0313";
name = "Bold [155]";
paths = (
{
closed = 1;
nodes = (
"177 591 LINE",
"606 591 LINE",
"606 696 LINE",
"177 696 LINE"
);
},
{
closed = 1;
nodes = (
"280 -16 OFFCURVE",
"335 13 OFFCURVE",
"392 70 CURVE",
"372 76 LINE",
"397 -11 LINE",
"608 -1 LINE",
"608 99 LINE",
"531 133 LINE",
"553 107 LINE",
"553 784 LINE",
"353 774 LINE",
"353 516 LINE",
"388 537 LINE",
"363 539 OFFCURVE",
"339 540 OFFCURVE",
"317 540 CURVE SMOOTH",
"123 540 OFFCURVE",
"16 459 OFFCURVE",
"16 254 CURVE SMOOTH",
"16 77 OFFCURVE",
"96 -16 OFFCURVE",
"214 -16 CURVE SMOOTH"
);
},
{
closed = 1;
nodes = (
"245 129 OFFCURVE",
"224 187 OFFCURVE",
"224 273 CURVE SMOOTH",
"224 365 OFFCURVE",
"248 401 OFFCURVE",
"311 401 CURVE SMOOTH",
"329 401 OFFCURVE",
"350 398 OFFCURVE",
"376 392 CURVE",
"353 437 LINE",
"353 112 LINE",
"376 169 LINE",
"344 143 OFFCURVE",
"318 129 OFFCURVE",
"294 129 CURVE SMOOTH"
);
}
);
width = 615;
},
{
associatedMasterId = "075BA79B-D813-4287-A9DD-CCAF2D535ED3";
background = {
paths = (
{
closed = 1;
nodes = (
"241 630 LINE",
"551 630 LINE",
"551 649 LINE",
"241 649 LINE"
);
},
{
closed = 1;
nodes = (
"317 -6 OFFCURVE",
"386 25 OFFCURVE",
"445 88 CURVE",
"441 91 LINE",
"446 -2 LINE",
"551 2 LINE",
"551 17 LINE",
"454 27 LINE",
"461 19 LINE",
"461 762 LINE",
"441 762 LINE",
"441 490 LINE",
"446 495 LINE",
"393 517 OFFCURVE",
"342 528 OFFCURVE",
"297 528 CURVE SMOOTH",
"158 528 OFFCURVE",
"60 428 OFFCURVE",
"60 251 CURVE SMOOTH",
"60 82 OFFCURVE",
"150 -6 OFFCURVE",
"255 -6 CURVE SMOOTH"
);
},
{
closed = 1;
nodes = (
"162 13 OFFCURVE",
"81 94 OFFCURVE",
"81 254 CURVE SMOOTH",
"81 420 OFFCURVE",
"169 509 OFFCURVE",
"294 509 CURVE SMOOTH",
"340 509 OFFCURVE",
"392 496 OFFCURVE",
"446 470 CURVE",
"441 479 LINE",
"441 99 LINE",
"445 110 LINE",
"388 45 OFFCURVE",
"320 13 OFFCURVE",
"259 13 CURVE SMOOTH"
);
}
);
};
guideLines = (
{
angle = 90;
position = "{551, 316}";
}
);
layerId = "7A44008B-405B-4BA5-8432-530D112081D2";
name = "Light [155]";
paths = (
{
closed = 1;
nodes = (
"241 630 LINE",
"551 630 LINE",
"551 649 LINE",
"241 649 LINE"
);
},
{
closed = 1;
nodes = (
"319 -8 OFFCURVE",
"383 20 OFFCURVE",
"444 79 CURVE",
"440 82 LINE",
"445 -3 LINE",
"550 1 LINE",
"550 16 LINE",
"453 26 LINE",
"460 18 LINE",
"460 764 LINE",
"440 762 LINE",
"440 501 LINE",
"447 505 LINE",
"397 519 OFFCURVE",
"351 527 OFFCURVE",
"308 527 CURVE SMOOTH",
"159 527 OFFCURVE",
"64 430 OFFCURVE",
"64 255 CURVE SMOOTH",
"64 87 OFFCURVE",
"152 -8 OFFCURVE",
"261 -8 CURVE SMOOTH"
);
},
{
closed = 1;
nodes = (
"164 11 OFFCURVE",
"85 100 OFFCURVE",
"85 256 CURVE SMOOTH",
"85 416 OFFCURVE",
"168 508 OFFCURVE",
"308 508 CURVE SMOOTH",
"349 508 OFFCURVE",
"395 500 OFFCURVE",
"445 483 CURVE",
"440 490 LINE",
"440 91 LINE",
"444 103 LINE",
"384 40 OFFCURVE",
"320 11 OFFCURVE",
"263 11 CURVE SMOOTH"
);
}
);
width = 583;
}
);
leftKerningGroup = o;
leftMetricsKey = d;
rightKerningGroup = l;
rightMetricsKey = d;
unicode = 0111;
},
{
color = 0;
glyphname = e;
layers = (
{
anchors = (
{
name = bottom;
position = "{276, 0}";
},
{
name = ogonek;
position = "{331, 0}";
},
{
name = top;
position = "{286, 522}";
}
);
background = {
paths = (
{
closed = 1;
nodes = (
"339 -6 OFFCURVE",
"409 18 OFFCURVE",
"480 67 CURVE",
"469 82 LINE",
"403 37 OFFCURVE",
"338 14 OFFCURVE",
"281 14 CURVE SMOOTH",
"167 14 OFFCURVE",
"85 99 OFFCURVE",
"85 256 CURVE SMOOTH",
"85 408 OFFCURVE",
"161 509 OFFCURVE",
"287 509 CURVE SMOOTH",
"418 509 OFFCURVE",
"460 404 OFFCURVE",
"458 290 CURVE",
"467 296 LINE",
"73 296 LINE",
"73 277 LINE",
"478 277 LINE",
"479 291 OFFCURVE",
"479 298 OFFCURVE",
"479 305 CURVE SMOOTH",
"479 436 OFFCURVE",
"414 528 OFFCURVE",
"288 528 CURVE SMOOTH",
"152 528 OFFCURVE",
"64 420 OFFCURVE",
"64 254 CURVE SMOOTH",
"64 86 OFFCURVE",
"154 -6 OFFCURVE",
"277 -6 CURVE SMOOTH"
);
}
);
};
layerId = "075BA79B-D813-4287-A9DD-CCAF2D535ED3";
paths = (
{
closed = 1;
nodes = (
"338 -6 OFFCURVE",
"408 17 OFFCURVE",
"480 67 CURVE",
"469 82 LINE",
"402 35 OFFCURVE",
"336 13 OFFCURVE",
"279 13 CURVE SMOOTH",
"166 13 OFFCURVE",
"85 100 OFFCURVE",
"85 256 CURVE SMOOTH",
"85 408 OFFCURVE",
"161 509 OFFCURVE",
"288 509 CURVE SMOOTH",
"415 509 OFFCURVE",
"460 408 OFFCURVE",
"458 290 CURVE",
"467 296 LINE",
"73 296 LINE",
"73 277 LINE",
"478 277 LINE",
"479 291 OFFCURVE",
"479 298 OFFCURVE",
"479 305 CURVE SMOOTH",
"479 436 OFFCURVE",
"414 528 OFFCURVE",
"288 528 CURVE SMOOTH",
"152 528 OFFCURVE",
"64 420 OFFCURVE",
"64 254 CURVE SMOOTH",
"64 87 OFFCURVE",
"153 -6 OFFCURVE",
"276 -6 CURVE SMOOTH"
);
}
);
width = 546;
},
{
anchors = (
{
name = bottom;
position = "{273, 0}";
},
{
name = ogonek;
position = "{381, 0}";
},
{
name = top;
position = "{283, 540}";
}
);
background = {
paths = (
{
closed = 1;
nodes = (
"357 -15 OFFCURVE",
"444 12 OFFCURVE",
"525 68 CURVE",
"460 174 LINE",
"408 147 OFFCURVE",
"360 133 OFFCURVE",
"317 133 CURVE SMOOTH",
"241 133 OFFCURVE",
"215 177 OFFCURVE",
"215 282 CURVE SMOOTH",
"215 378 OFFCURVE",
"233 415 OFFCURVE",
"277 415 CURVE SMOOTH",
"315 415 OFFCURVE",
"328 386 OFFCURVE",
"328 322 CURVE",
"179 322 LINE",
"179 220 LINE",
"525 223 LINE",
"531 253 OFFCURVE",
"534 283 OFFCURVE",
"534 311 CURVE SMOOTH",
"534 449 OFFCURVE",
"466 555 OFFCURVE",
"296 555 CURVE SMOOTH",
"122 555 OFFCURVE",
"14 445 OFFCURVE",
"14 257 CURVE SMOOTH",
"14 80 OFFCURVE",
"116 -15 OFFCURVE",
"273 -15 CURVE SMOOTH"
);
}
);
};
layerId = "927AED37-E9E6-4F96-A08E-421C3785EFC6";
paths = (
{
closed = 1;
nodes = (
"357 -15 OFFCURVE",
"444 12 OFFCURVE",
"525 68 CURVE",
"460 171 LINE",
"408 144 OFFCURVE",
"359 130 OFFCURVE",
"321 130 CURVE SMOOTH",
"232 130 OFFCURVE",
"219 205 OFFCURVE",
"219 290 CURVE SMOOTH",
"219 352 OFFCURVE",
"226 415 OFFCURVE",
"279 415 CURVE SMOOTH",
"320 415 OFFCURVE",
"330 379 OFFCURVE",
"328 303 CURVE",
"359 325 LINE",
"179 325 LINE",
"179 222 LINE",
"525 222 LINE",
"531 253 OFFCURVE",
"534 283 OFFCURVE",
"534 312 CURVE SMOOTH",
"534 449 OFFCURVE",
"466 555 OFFCURVE",
"296 555 CURVE SMOOTH",
"122 555 OFFCURVE",
"14 444 OFFCURVE",
"14 259 CURVE SMOOTH",
"14 79 OFFCURVE",
"116 -15 OFFCURVE",
"273 -15 CURVE SMOOTH"
);
}
);
width = 552;
},
{
anchors = (
{
name = bottom;
position = "{288, 0}";
},
{
name = ogonek;
position = "{353, 0}";
},
{
name = top;
position = "{284, 530}";
}
);
associatedMasterId = "075BA79B-D813-4287-A9DD-CCAF2D535ED3";
background = {
anchors = (
{
name = bottom;
position = "{290, 0}";
},
{
name = ogonek;
position = "{355, 0}";
},
{
name = top;
position = "{287, 530}";
}
);
paths = (
{
closed = 1;
nodes = (
"348 -10 OFFCURVE",
"426 15 OFFCURVE",
"501 67 CURVE",
"466 122 LINE",
"406 84 OFFCURVE",
"348 66 OFFCURVE",
"300 66 CURVE SMOOTH",
"197 66 OFFCURVE",
"146 147 OFFCURVE",
"146 269 CURVE SMOOTH",
"146 384 OFFCURVE",
"191 467 OFFCURVE",
"285 467 CURVE SMOOTH",
"371 467 OFFCURVE",
"403 397 OFFCURVE",
"401 315 CURVE",
"410 321 LINE",
"121 321 LINE",
"121 252 LINE",
"500 252 LINE",
"503 274 OFFCURVE",
"504 291 OFFCURVE",
"504 308 CURVE SMOOTH",
"504 442 OFFCURVE",
"438 540 OFFCURVE",
"293 540 CURVE SMOOTH",
"140 540 OFFCURVE",
"43 431 OFFCURVE",
"43 256 CURVE SMOOTH",
"43 83 OFFCURVE",
"138 -10 OFFCURVE",
"276 -10 CURVE SMOOTH"
);
}
);
};
layerId = "FC6433CF-2B87-4175-A62D-BF714C6363B9";
name = "{100}";
paths = (
{
closed = 1;
nodes = (
"348 -10 OFFCURVE",
"426 15 OFFCURVE",
"501 67 CURVE",
"466 122 LINE",
"406 84 OFFCURVE",
"348 66 OFFCURVE",
"300 66 CURVE SMOOTH",
"197 66 OFFCURVE",
"146 147 OFFCURVE",
"146 269 CURVE SMOOTH",
"146 383 OFFCURVE",
"191 465 OFFCURVE",
"285 465 CURVE SMOOTH",
"371 465 OFFCURVE",
"403 396 OFFCURVE",
"401 315 CURVE",
"410 321 LINE",
"121 321 LINE",
"121 252 LINE",
"500 252 LINE",
"503 274 OFFCURVE",
"504 291 OFFCURVE",
"504 308 CURVE SMOOTH",
"504 442 OFFCURVE",
"438 540 OFFCURVE",
"293 540 CURVE SMOOTH",
"140 540 OFFCURVE",
"43 431 OFFCURVE",
"43 256 CURVE SMOOTH",
"43 83 OFFCURVE",
"138 -10 OFFCURVE",
"276 -10 CURVE SMOOTH"
);
}
);
width = 547;
}
);
leftKerningGroup = o;
rightKerningGroup = e;
unicode = 0065;
},
{
glyphname = eogonek;
layers = (
{
background = {
anchors = (
{
name = bottom;
position = "{276, 0}";
},
{
name = ogonek;
position = "{331, 0}";
},
{
name = top;
position = "{286, 522}";
}
);
paths = (
{
closed = 1;
nodes = (
"338 -6 OFFCURVE",
"408 17 OFFCURVE",
"480 67 CURVE",
"469 82 LINE",
"402 35 OFFCURVE",
"336 13 OFFCURVE",
"279 13 CURVE SMOOTH",
"166 13 OFFCURVE",
"85 100 OFFCURVE",
"85 256 CURVE SMOOTH",
"85 408 OFFCURVE",
"161 509 OFFCURVE",
"288 509 CURVE SMOOTH",
"415 509 OFFCURVE",
"460 408 OFFCURVE",
"458 290 CURVE",
"467 296 LINE",
"73 296 LINE",
"73 277 LINE",
"478 277 LINE",
"479 291 OFFCURVE",
"479 298 OFFCURVE",
"479 305 CURVE SMOOTH",
"479 436 OFFCURVE",
"414 528 OFFCURVE",
"288 528 CURVE SMOOTH",
"152 528 OFFCURVE",
"64 420 OFFCURVE",
"64 254 CURVE SMOOTH",
"64 87 OFFCURVE",
"153 -6 OFFCURVE",
"276 -6 CURVE SMOOTH"
);
},
{
closed = 1;
nodes = (
"309 -216 OFFCURVE",
"325 -214 OFFCURVE",
"342 -211 CURVE",
"338 -193 LINE",
"324 -196 OFFCURVE",
"312 -197 OFFCURVE",
"300 -197 CURVE SMOOTH",
"238 -197 OFFCURVE",
"206 -166 OFFCURVE",
"206 -128 CURVE SMOOTH",
"206 -84 OFFCURVE",
"247 -33 OFFCURVE",
"331 0 CURVE",
"324 14 LINE",
"232 -19 OFFCURVE",
"185 -78 OFFCURVE",
"185 -130 CURVE SMOOTH",
"185 -177 OFFCURVE",
"223 -216 OFFCURVE",
"295 -216 CURVE SMOOTH"
);
}
);
};
components = (
{
name = e;
},
{
name = ogonekcomb.case.alt;
transform = "{1, 0, 0, 1, 97, 0}";
}
);
layerId = "075BA79B-D813-4287-A9DD-CCAF2D535ED3";
width = 546;
},
{
background = {
anchors = (
{
name = bottom;
position = "{272, 0}";
},
{
name = ogonek;
position = "{380, 0}";
},
{
name = top;
position = "{282, 540}";
}
);
paths = (
{
closed = 1;
nodes = (
"356 -15 OFFCURVE",
"443 12 OFFCURVE",
"524 68 CURVE",
"459 171 LINE",
"407 144 OFFCURVE",
"358 130 OFFCURVE",
"320 130 CURVE SMOOTH",
"231 130 OFFCURVE",
"218 205 OFFCURVE",
"218 290 CURVE SMOOTH",
"218 352 OFFCURVE",
"225 415 OFFCURVE",
"278 415 CURVE SMOOTH",
"319 415 OFFCURVE",
"329 379 OFFCURVE",
"327 303 CURVE",
"358 325 LINE",
"178 325 LINE",
"178 222 LINE",
"524 222 LINE",
"530 253 OFFCURVE",
"533 283 OFFCURVE",
"533 312 CURVE SMOOTH",
"533 449 OFFCURVE",
"465 555 OFFCURVE",
"295 555 CURVE SMOOTH",
"121 555 OFFCURVE",
"13 444 OFFCURVE",
"13 259 CURVE SMOOTH",
"13 79 OFFCURVE",
"115 -15 OFFCURVE",
"272 -15 CURVE SMOOTH"
);
},
{
closed = 1;
nodes = (
"216 -229 OFFCURVE",
"298 -229 CURVE SMOOTH",
"328 -229 OFFCURVE",
"361 -223 OFFCURVE",
"395 -212 CURVE",
"384 -101 LINE",
"374 -102 OFFCURVE",
"364 -103 OFFCURVE",
"354 -103 CURVE SMOOTH",
"323 -103 OFFCURVE",
"298 -94 OFFCURVE",
"298 -69 CURVE SMOOTH",
"298 -42 OFFCURVE",
"329 -13 OFFCURVE",
"379 0 CURVE",
"362 62 LINE",
"220 30 OFFCURVE",
"157 -55 OFFCURVE",
"157 -122 CURVE SMOOTH",
"157 -189 OFFCURVE"
);
}
);
};
components = (
{
name = e;
},
{
name = ogonekcomb.case.alt;
transform = "{1, 0, 0, 1, 151, 0}";
}
);
layerId = "927AED37-E9E6-4F96-A08E-421C3785EFC6";
width = 552;
}
);
leftKerningGroup = o;
rightKerningGroup = e;
unicode = 0119;
},
{
color = 0;
glyphname = schwa;
layers = (
{
guideLines = (
{
position = "{241, 277}";
}
);
layerId = "075BA79B-D813-4287-A9DD-CCAF2D535ED3";
paths = (
{
closed = 1;
nodes = (
"208 528 OFFCURVE",
"138 505 OFFCURVE",
"66 455 CURVE",
"77 440 LINE",
"144 487 OFFCURVE",
"210 509 OFFCURVE",
"267 509 CURVE SMOOTH",
"380 509 OFFCURVE",
"461 422 OFFCURVE",
"461 266 CURVE SMOOTH",
"461 114 OFFCURVE",
"385 13 OFFCURVE",
"258 13 CURVE SMOOTH",
"131 13 OFFCURVE",
"86 118 OFFCURVE",
"88 240 CURVE",
"79 234 LINE",
"473 234 LINE",
"473 253 LINE",
"68 253 LINE",
"67 235 OFFCURVE",
"67 226 OFFCURVE",
"67 217 CURVE SMOOTH",
"67 86 OFFCURVE",
"132 -6 OFFCURVE",
"258 -6 CURVE SMOOTH",
"394 -6 OFFCURVE",
"482 102 OFFCURVE",
"482 268 CURVE SMOOTH",
"482 435 OFFCURVE",
"393 528 OFFCURVE",
"270 528 CURVE SMOOTH"
);
}
);
width = 546;
},
{
guideLines = (
{
position = "{241, 325}";
}
);
layerId = "927AED37-E9E6-4F96-A08E-421C3785EFC6";
paths = (
{
closed = 1;
nodes = (
"193 555 OFFCURVE",
"106 528 OFFCURVE",
"25 472 CURVE",
"90 369 LINE",
"142 396 OFFCURVE",
"191 410 OFFCURVE",
"229 410 CURVE SMOOTH",
"318 410 OFFCURVE",
"331 335 OFFCURVE",
"331 250 CURVE SMOOTH",
"331 188 OFFCURVE",
"324 125 OFFCURVE",
"271 125 CURVE SMOOTH",
"230 125 OFFCURVE",
"220 167 OFFCURVE",
"222 243 CURVE",
"191 221 LINE",
"371 221 LINE",
"371 324 LINE",
"25 324 LINE",
"19 293 OFFCURVE",
"16 257 OFFCURVE",
"16 228 CURVE SMOOTH",
"16 91 OFFCURVE",
"84 -15 OFFCURVE",
"254 -15 CURVE SMOOTH",
"428 -15 OFFCURVE",
"536 96 OFFCURVE",
"536 281 CURVE SMOOTH",
"536 461 OFFCURVE",
"434 555 OFFCURVE",
"277 555 CURVE SMOOTH"
);
}
);
width = 549;
},
{
associatedMasterId = "075BA79B-D813-4287-A9DD-CCAF2D535ED3";
background = {
paths = (
{
closed = 1;
nodes = (
"199 540 OFFCURVE",
"121 515 OFFCURVE",
"46 463 CURVE",
"81 408 LINE",
"141 446 OFFCURVE",
"199 464 OFFCURVE",
"247 464 CURVE SMOOTH",
"350 464 OFFCURVE",
"401 383 OFFCURVE",
"401 261 CURVE SMOOTH",
"401 146 OFFCURVE",
"356 63 OFFCURVE",
"262 63 CURVE SMOOTH",
"176 63 OFFCURVE",
"144 133 OFFCURVE",
"146 215 CURVE",
"137 209 LINE",
"426 209 LINE",
"426 278 LINE",
"47 278 LINE",
"44 256 OFFCURVE",
"43 239 OFFCURVE",
"43 222 CURVE SMOOTH",
"43 88 OFFCURVE",
"109 -10 OFFCURVE",
"254 -10 CURVE SMOOTH",
"407 -10 OFFCURVE",
"504 99 OFFCURVE",
"504 274 CURVE SMOOTH",
"504 447 OFFCURVE",
"409 540 OFFCURVE",
"271 540 CURVE SMOOTH"
);
}
);
};
guideLines = (
{
position = "{241, 277}";
}
);
layerId = "9E782148-9679-45D5-B5D9-7C2D8CDD4934";
name = "{100}";
paths = (
{
closed = 1;
nodes = (
"201 540 OFFCURVE",
"124 515 OFFCURVE",
"48 463 CURVE",
"83 408 LINE",
"143 447 OFFCURVE",
"202 465 OFFCURVE",
"250 465 CURVE SMOOTH",
"352 465 OFFCURVE",
"403 383 OFFCURVE",
"403 259 CURVE SMOOTH",
"403 147 OFFCURVE",
"358 63 OFFCURVE",
"264 63 CURVE SMOOTH",
"175 63 OFFCURVE",
"146 140 OFFCURVE",
"148 241 CURVE",
"127 215 LINE",
"426 215 LINE",
"428 285 LINE",
"49 285 LINE",
"46 261 OFFCURVE",
"44 240 OFFCURVE",
"44 222 CURVE SMOOTH",
"44 88 OFFCURVE",
"111 -10 OFFCURVE",
"256 -10 CURVE SMOOTH",
"409 -10 OFFCURVE",
"506 99 OFFCURVE",
"506 274 CURVE SMOOTH",
"506 447 OFFCURVE",
"411 540 OFFCURVE",
"273 540 CURVE SMOOTH"
);
}
);
width = 547;
}
);
leftKerningGroup = o;
rightKerningGroup = o;
unicode = 0259;
},
{
glyphname = f;
layers = (
{
background = {
anchors = (
{
name = bottom;
position = "{146, 0}";
}
);
paths = (
{
closed = 1;
nodes = (
"266 0 LINE",
"266 15 LINE",
"149 29 LINE",
"156 21 LINE",
"156 506 LINE",
"149 499 LINE",
"293 499 LINE",
"295 518 LINE",
"149 518 LINE",
"156 509 LINE",
"156 615 LINE SMOOTH",
"156 706 OFFCURVE",
"203 749 OFFCURVE",
"277 749 CURVE SMOOTH",
"301 749 OFFCURVE",
"327 745 OFFCURVE",
"356 736 CURVE",
"350 745 LINE",
"362 660 LINE",
"379 660 LINE",
"383 748 LINE",
"345 761 OFFCURVE",
"309 768 OFFCURVE",
"278 768 CURVE SMOOTH",
"192 768 OFFCURVE",
"136 718 OFFCURVE",
"136 612 CURVE SMOOTH",
"136 509 LINE",
"143 518 LINE",
"46 513 LINE",
"46 499 LINE",
"143 499 LINE",
"136 506 LINE",
"136 21 LINE",
"143 29 LINE",
"46 15 LINE",
"46 0 LINE"
);
}
);
};
layerId = "075BA79B-D813-4287-A9DD-CCAF2D535ED3";
paths = (
{
closed = 1;
nodes = (
"266 0 LINE",
"266 15 LINE",
"149 29 LINE",
"156 21 LINE",
"156 506 LINE",
"149 499 LINE",
"309 499 LINE",
"311 518 LINE",
"149 518 LINE",
"156 509 LINE",
"156 615 LINE SMOOTH",
"156 705 OFFCURVE",
"201 749 OFFCURVE",
"278 749 CURVE SMOOTH",
"306 749 OFFCURVE",
"336 743 OFFCURVE",
"371 733 CURVE",
"377 750 LINE",
"341 762 OFFCURVE",
"308 768 OFFCURVE",
"279 768 CURVE SMOOTH",
"193 768 OFFCURVE",
"136 719 OFFCURVE",
"136 612 CURVE SMOOTH",
"136 509 LINE",
"143 518 LINE",
"46 513 LINE",
"46 499 LINE",
"143 499 LINE",
"136 506 LINE",
"136 21 LINE",
"143 29 LINE",
"46 15 LINE",
"46 0 LINE"
);
}
);
width = 322;
},
{
background = {
anchors = (
{
name = bottom;
position = "{179, 0}";
}
);
paths = (
{
closed = 1;
nodes = (
"344 0 LINE",
"344 100 LINE",
"263 128 LINE",
"279 110 LINE",
"279 424 LINE",
"262 405 LINE",
"389 405 LINE",
"392 535 LINE",
"255 535 LINE",
"279 513 LINE",
"279 574 LINE SMOOTH",
"279 605 OFFCURVE",
"279 655 OFFCURVE",
"342 655 CURVE SMOOTH",
"354 655 OFFCURVE",
"364 653 OFFCURVE",
"383 650 CURVE",
"370 669 LINE",
"384 605 LINE",
"504 605 LINE",
"509 759 LINE",
"437 783 OFFCURVE",
"369 795 OFFCURVE",
"316 795 CURVE SMOOTH",
"174 795 OFFCURVE",
"79 719 OFFCURVE",
"79 558 CURVE SMOOTH",
"79 513 LINE",
"100 540 LINE",
"19 510 LINE",
"19 405 LINE",
"95 405 LINE",
"79 424 LINE",
"79 109 LINE",
"95 128 LINE",
"24 100 LINE",
"24 0 LINE"
);
}
);
};
layerId = "927AED37-E9E6-4F96-A08E-421C3785EFC6";
paths = (
{
closed = 1;
nodes = (
"344 0 LINE",
"344 100 LINE",
"263 128 LINE",
"279 110 LINE",
"279 424 LINE",
"262 405 LINE",
"386 405 LINE",
"389 535 LINE",
"255 535 LINE",
"279 513 LINE",
"279 574 LINE SMOOTH",
"279 637 OFFCURVE",
"316 656 OFFCURVE",
"359 656 CURVE SMOOTH",
"382 656 OFFCURVE",
"406 651 OFFCURVE",
"428 644 CURVE",
"455 775 LINE",
"405 788 OFFCURVE",
"364 795 OFFCURVE",
"322 795 CURVE SMOOTH",
"174 795 OFFCURVE",
"79 719 OFFCURVE",
"79 558 CURVE SMOOTH",
"79 513 LINE",
"100 540 LINE",
"19 510 LINE",
"19 405 LINE",
"95 405 LINE",
"79 424 LINE",
"79 109 LINE",
"95 128 LINE",
"24 100 LINE",
"24 0 LINE"
);
}
);
width = 400;
}
);
leftKerningGroup = n;
rightKerningGroup = f;
unicode = 0066;
},
